G04 #@! TF.FileFunction,Soldermask,Top*
%FSLAX46Y46*%
G04 Gerber Fmt 4.6, Leading zero omitted, Abs format (unit mm)*
G04 Created by KiCad (PCBNEW 4.0.1-stable) date Tuesday, February 09, 2016 'PMt' 03:50:34 PM*
%MOMM*%
G01*
G04 APERTURE LIST*
%ADD10C,0.100000*%
%ADD11R,1.600000X2.600000*%
%ADD12R,2.000000X1.400000*%
%ADD13R,1.400000X2.000000*%
%ADD14O,1.650000X1.350000*%
%ADD15O,1.400000X1.950000*%
%ADD16R,1.300000X2.100000*%
%ADD17R,2.100000X1.300000*%
%ADD18C,1.900000*%
%ADD19C,1.700000*%
%ADD20R,1.400000X1.900000*%
%ADD21R,1.900000X1.400000*%
G04 APERTURE END LIST*
D10*
D11*
X52955000Y-107580000D03*
X55355000Y-104680000D03*
X60855000Y-104680000D03*
X64555000Y-107580000D03*
X59055000Y-107580000D03*
X52955000Y-83450000D03*
X55355000Y-80550000D03*
X60855000Y-80550000D03*
X64555000Y-83450000D03*
X59055000Y-83450000D03*
D12*
X53975000Y-99465000D03*
X53975000Y-102465000D03*
X87630000Y-112220000D03*
D13*
X92330000Y-109220000D03*
D12*
X87630000Y-106220000D03*
D11*
X52955000Y-54240000D03*
X55355000Y-51340000D03*
X60855000Y-51340000D03*
X64555000Y-54240000D03*
X59055000Y-54240000D03*
X52955000Y-68210000D03*
X55355000Y-65310000D03*
X60855000Y-65310000D03*
X64555000Y-68210000D03*
X59055000Y-68210000D03*
X52955000Y-96150000D03*
X55355000Y-93250000D03*
X60855000Y-93250000D03*
X64555000Y-96150000D03*
X59055000Y-96150000D03*
D14*
X67905900Y-114007460D03*
X62905900Y-114007460D03*
D15*
X68905900Y-116707460D03*
X61905900Y-116707460D03*
D16*
X70665000Y-66040000D03*
X67765000Y-66040000D03*
X70665000Y-52070000D03*
X67765000Y-52070000D03*
X70665000Y-69850000D03*
X67765000Y-69850000D03*
X70665000Y-85090000D03*
X67765000Y-85090000D03*
X70665000Y-81280000D03*
X67765000Y-81280000D03*
X70665000Y-97790000D03*
X67765000Y-97790000D03*
X70665000Y-93980000D03*
X67765000Y-93980000D03*
X70665000Y-55880000D03*
X67765000Y-55880000D03*
D17*
X53340000Y-87450000D03*
X53340000Y-90350000D03*
D18*
X80010000Y-54610000D03*
X80010000Y-50860000D03*
X80010000Y-58360000D03*
X75010000Y-50860000D03*
X75010000Y-54610000D03*
X75010000Y-58360000D03*
X80010000Y-68580000D03*
X80010000Y-64830000D03*
X80010000Y-72330000D03*
X75010000Y-64830000D03*
X75010000Y-68580000D03*
X75010000Y-72330000D03*
X80010000Y-82550000D03*
X80010000Y-78800000D03*
X80010000Y-86300000D03*
X75010000Y-78800000D03*
X75010000Y-82550000D03*
X75010000Y-86300000D03*
X80010000Y-96520000D03*
X80010000Y-92770000D03*
X80010000Y-100270000D03*
X75010000Y-92770000D03*
X75010000Y-96520000D03*
X75010000Y-100270000D03*
D19*
X58420000Y-113030000D03*
X55880000Y-113030000D03*
X53340000Y-113030000D03*
X53340000Y-115570000D03*
X58420000Y-115570000D03*
D20*
X80890000Y-105410000D03*
X76200000Y-105410000D03*
X71510000Y-105410000D03*
D21*
X78740000Y-118110000D03*
X73660000Y-118110000D03*
M02*
