G04 #@! TF.FileFunction,Legend,Bot*
%FSLAX46Y46*%
G04 Gerber Fmt 4.6, Leading zero omitted, Abs format (unit mm)*
G04 Created by KiCad (PCBNEW 4.0.1-stable) date Tuesday, February 09, 2016 'PMt' 01:35:24 PM*
%MOMM*%
G01*
G04 APERTURE LIST*
%ADD10C,0.100000*%
%ADD11C,0.150000*%
%ADD12C,0.152400*%
%ADD13C,0.076200*%
%ADD14R,1.600000X2.600000*%
%ADD15R,1.400000X2.000000*%
%ADD16R,2.000000X1.400000*%
%ADD17R,0.990000X0.850000*%
%ADD18R,0.850000X0.990000*%
%ADD19R,1.197560X1.197560*%
%ADD20R,1.620000X1.310000*%
%ADD21R,1.100000X1.700000*%
%ADD22R,0.800000X1.750000*%
%ADD23O,1.650000X1.350000*%
%ADD24O,1.400000X1.950000*%
%ADD25R,1.300000X2.100000*%
%ADD26R,2.100000X1.300000*%
%ADD27C,1.900000*%
%ADD28C,1.700000*%
%ADD29R,1.400000X1.900000*%
%ADD30R,1.900000X1.400000*%
%ADD31R,1.771600X0.857200*%
G04 APERTURE END LIST*
D10*
D11*
X71485000Y-74050000D02*
X69485000Y-74050000D01*
X69485000Y-72000000D02*
X71485000Y-72000000D01*
X71485000Y-77225000D02*
X69485000Y-77225000D01*
X69485000Y-75175000D02*
X71485000Y-75175000D01*
X58690000Y-85335000D02*
X60690000Y-85335000D01*
X60690000Y-87385000D02*
X58690000Y-87385000D01*
X66405000Y-72780000D02*
X64405000Y-72780000D01*
X64405000Y-70730000D02*
X66405000Y-70730000D01*
X54365000Y-75200000D02*
X54365000Y-77200000D01*
X52315000Y-77200000D02*
X52315000Y-75200000D01*
X63135000Y-87875000D02*
X65135000Y-87875000D01*
X65135000Y-89925000D02*
X63135000Y-89925000D01*
X59300000Y-101330000D02*
X59300000Y-99330000D01*
X61350000Y-99330000D02*
X61350000Y-101330000D01*
X69605000Y-103775000D02*
X69605000Y-105775000D01*
X67555000Y-105775000D02*
X67555000Y-103775000D01*
X84845000Y-109490000D02*
X84845000Y-111490000D01*
X82795000Y-111490000D02*
X82795000Y-109490000D01*
X79765000Y-103140000D02*
X79765000Y-105140000D01*
X77715000Y-105140000D02*
X77715000Y-103140000D01*
X84070000Y-106680000D02*
X84320000Y-106680000D01*
X83570000Y-106680000D02*
X83320000Y-106680000D01*
X83570000Y-106680000D02*
X84070000Y-107030000D01*
X84070000Y-107030000D02*
X84070000Y-106330000D01*
X84070000Y-106330000D02*
X83570000Y-106680000D01*
X83570000Y-107030000D02*
X83570000Y-106330000D01*
X82520000Y-105880000D02*
X84920000Y-105880000D01*
X82520000Y-107480000D02*
X84920000Y-107480000D01*
X73660000Y-106295000D02*
X73660000Y-106545000D01*
X73660000Y-105795000D02*
X73660000Y-105545000D01*
X73660000Y-105795000D02*
X73310000Y-106295000D01*
X73310000Y-106295000D02*
X74010000Y-106295000D01*
X74010000Y-106295000D02*
X73660000Y-105795000D01*
X73310000Y-105795000D02*
X74010000Y-105795000D01*
X74460000Y-104745000D02*
X74460000Y-107145000D01*
X72860000Y-104745000D02*
X72860000Y-107145000D01*
X54145000Y-108670000D02*
X56045000Y-108670000D01*
X54145000Y-109770000D02*
X56045000Y-109770000D01*
X55045000Y-109220000D02*
X55495000Y-109220000D01*
X54995000Y-109470000D02*
X54995000Y-108970000D01*
X54995000Y-109220000D02*
X55245000Y-109470000D01*
X55245000Y-109470000D02*
X55245000Y-108970000D01*
X55245000Y-108970000D02*
X54995000Y-109220000D01*
X73660000Y-110172500D02*
X73660000Y-110553500D01*
X73660000Y-109156500D02*
X73660000Y-109537500D01*
X73660000Y-109537500D02*
X73279000Y-110172500D01*
X73279000Y-110172500D02*
X74041000Y-110172500D01*
X74041000Y-110172500D02*
X73660000Y-109537500D01*
X73152000Y-109537500D02*
X74168000Y-109537500D01*
X74560000Y-107855000D02*
X74560000Y-111395000D01*
X72760000Y-107855000D02*
X72760000Y-111395000D01*
X69885000Y-110095000D02*
X71085000Y-110095000D01*
X71085000Y-108345000D02*
X69885000Y-108345000D01*
X69755900Y-119387460D02*
X61055900Y-119387460D01*
X69755900Y-112982460D02*
X61055900Y-112982460D01*
X61055900Y-112982460D02*
X61055900Y-119387460D01*
X61055900Y-118157460D02*
X69755900Y-118157460D01*
X69755900Y-119387460D02*
X69755900Y-112982460D01*
X63230000Y-109415000D02*
X61230000Y-109415000D01*
X61230000Y-111565000D02*
X63230000Y-111565000D01*
X62670000Y-70850000D02*
X62670000Y-68850000D01*
X60520000Y-68850000D02*
X60520000Y-70850000D01*
X65135000Y-78300000D02*
X63135000Y-78300000D01*
X63135000Y-80450000D02*
X65135000Y-80450000D01*
X57590000Y-77200000D02*
X57590000Y-75200000D01*
X55440000Y-75200000D02*
X55440000Y-77200000D01*
X70850000Y-87825000D02*
X68850000Y-87825000D01*
X68850000Y-89975000D02*
X70850000Y-89975000D01*
X57590000Y-98790000D02*
X57590000Y-96790000D01*
X55440000Y-96790000D02*
X55440000Y-98790000D01*
X75760000Y-108220000D02*
X75760000Y-110220000D01*
X77910000Y-110220000D02*
X77910000Y-108220000D01*
X79815000Y-115300000D02*
X79815000Y-113300000D01*
X77665000Y-113300000D02*
X77665000Y-115300000D01*
X81720000Y-110855000D02*
X81720000Y-108855000D01*
X79570000Y-108855000D02*
X79570000Y-110855000D01*
D12*
X60045600Y-74015600D02*
X63144400Y-74015600D01*
X63144400Y-77114400D02*
X61899800Y-77114400D01*
X61899800Y-77114400D02*
X61290200Y-77114400D01*
X61290200Y-77114400D02*
X60045600Y-77114400D01*
X60045600Y-76733400D02*
X59055000Y-76733400D01*
X59055000Y-76733400D02*
X59055000Y-76327000D01*
X59055000Y-76327000D02*
X60045600Y-76327000D01*
X60045600Y-76098400D02*
X59055000Y-76098400D01*
X59055000Y-76098400D02*
X59055000Y-75692000D01*
X59055000Y-75692000D02*
X60045600Y-75692000D01*
X60045600Y-75438000D02*
X59055000Y-75438000D01*
X59055000Y-75438000D02*
X59055000Y-75031600D01*
X59055000Y-75031600D02*
X60045600Y-75031600D01*
X60045600Y-74803000D02*
X59055000Y-74803000D01*
X59055000Y-74803000D02*
X59080400Y-74396600D01*
X59080400Y-74396600D02*
X60045600Y-74396600D01*
X63144400Y-74803000D02*
X63144400Y-74396600D01*
X63144400Y-74396600D02*
X64135000Y-74396600D01*
X64135000Y-74396600D02*
X64135000Y-74803000D01*
X64135000Y-74803000D02*
X63144400Y-74803000D01*
X63144400Y-75438000D02*
X63144400Y-75031600D01*
X63144400Y-75031600D02*
X64135000Y-75031600D01*
X64135000Y-75031600D02*
X64135000Y-75438000D01*
X64135000Y-75438000D02*
X63144400Y-75438000D01*
X63144400Y-75692000D02*
X64135000Y-75692000D01*
X64135000Y-75692000D02*
X64135000Y-76098400D01*
X64135000Y-76098400D02*
X63144400Y-76098400D01*
X63144400Y-76327000D02*
X64135000Y-76327000D01*
X64135000Y-76327000D02*
X64135000Y-76733400D01*
X64135000Y-76733400D02*
X63144400Y-76733400D01*
X60045600Y-77114400D02*
X60045600Y-74015600D01*
X60045600Y-74015600D02*
X63144400Y-74015600D01*
X63144400Y-74015600D02*
X63144400Y-77114400D01*
X63144400Y-77114400D02*
X61899800Y-77114400D01*
X61899800Y-77114400D02*
X61290200Y-77114400D01*
X61290200Y-77114400D02*
X60045600Y-77114400D01*
D10*
X61290200Y-77114400D02*
G75*
G02X61899800Y-77114400I304800J0D01*
G01*
D12*
X75844400Y-115214400D02*
X72745600Y-115214400D01*
X72745600Y-112115600D02*
X73990200Y-112115600D01*
X73990200Y-112115600D02*
X74599800Y-112115600D01*
X74599800Y-112115600D02*
X75844400Y-112115600D01*
X75844400Y-112496600D02*
X76835000Y-112496600D01*
X76835000Y-112496600D02*
X76835000Y-112903000D01*
X76835000Y-112903000D02*
X75844400Y-112903000D01*
X75844400Y-113131600D02*
X76835000Y-113131600D01*
X76835000Y-113131600D02*
X76835000Y-113538000D01*
X76835000Y-113538000D02*
X75844400Y-113538000D01*
X75844400Y-113792000D02*
X76835000Y-113792000D01*
X76835000Y-113792000D02*
X76835000Y-114198400D01*
X76835000Y-114198400D02*
X75844400Y-114198400D01*
X75844400Y-114427000D02*
X76835000Y-114427000D01*
X76835000Y-114427000D02*
X76809600Y-114833400D01*
X76809600Y-114833400D02*
X75844400Y-114833400D01*
X72745600Y-114427000D02*
X72745600Y-114833400D01*
X72745600Y-114833400D02*
X71755000Y-114833400D01*
X71755000Y-114833400D02*
X71755000Y-114427000D01*
X71755000Y-114427000D02*
X72745600Y-114427000D01*
X72745600Y-113792000D02*
X72745600Y-114198400D01*
X72745600Y-114198400D02*
X71755000Y-114198400D01*
X71755000Y-114198400D02*
X71755000Y-113792000D01*
X71755000Y-113792000D02*
X72745600Y-113792000D01*
X72745600Y-113538000D02*
X71755000Y-113538000D01*
X71755000Y-113538000D02*
X71755000Y-113131600D01*
X71755000Y-113131600D02*
X72745600Y-113131600D01*
X72745600Y-112903000D02*
X71755000Y-112903000D01*
X71755000Y-112903000D02*
X71755000Y-112496600D01*
X71755000Y-112496600D02*
X72745600Y-112496600D01*
X75844400Y-112115600D02*
X75844400Y-115214400D01*
X75844400Y-115214400D02*
X72745600Y-115214400D01*
X72745600Y-115214400D02*
X72745600Y-112115600D01*
X72745600Y-112115600D02*
X73990200Y-112115600D01*
X73990200Y-112115600D02*
X74599800Y-112115600D01*
X74599800Y-112115600D02*
X75844400Y-112115600D01*
D10*
X74599800Y-112115600D02*
G75*
G02X73990200Y-112115600I-304800J0D01*
G01*
D11*
X70651666Y-75682143D02*
X70699285Y-75729762D01*
X70842142Y-75777381D01*
X70937380Y-75777381D01*
X71080238Y-75729762D01*
X71175476Y-75634524D01*
X71223095Y-75539286D01*
X71270714Y-75348810D01*
X71270714Y-75205952D01*
X71223095Y-75015476D01*
X71175476Y-74920238D01*
X71080238Y-74825000D01*
X70937380Y-74777381D01*
X70842142Y-74777381D01*
X70699285Y-74825000D01*
X70651666Y-74872619D01*
X69699285Y-75777381D02*
X70270714Y-75777381D01*
X69985000Y-75777381D02*
X69985000Y-74777381D01*
X70080238Y-74920238D01*
X70175476Y-75015476D01*
X70270714Y-75063095D01*
X70651666Y-78857143D02*
X70699285Y-78904762D01*
X70842142Y-78952381D01*
X70937380Y-78952381D01*
X71080238Y-78904762D01*
X71175476Y-78809524D01*
X71223095Y-78714286D01*
X71270714Y-78523810D01*
X71270714Y-78380952D01*
X71223095Y-78190476D01*
X71175476Y-78095238D01*
X71080238Y-78000000D01*
X70937380Y-77952381D01*
X70842142Y-77952381D01*
X70699285Y-78000000D01*
X70651666Y-78047619D01*
X70270714Y-78047619D02*
X70223095Y-78000000D01*
X70127857Y-77952381D01*
X69889761Y-77952381D01*
X69794523Y-78000000D01*
X69746904Y-78047619D01*
X69699285Y-78142857D01*
X69699285Y-78238095D01*
X69746904Y-78380952D01*
X70318333Y-78952381D01*
X69699285Y-78952381D01*
X59856666Y-84417143D02*
X59904285Y-84464762D01*
X60047142Y-84512381D01*
X60142380Y-84512381D01*
X60285238Y-84464762D01*
X60380476Y-84369524D01*
X60428095Y-84274286D01*
X60475714Y-84083810D01*
X60475714Y-83940952D01*
X60428095Y-83750476D01*
X60380476Y-83655238D01*
X60285238Y-83560000D01*
X60142380Y-83512381D01*
X60047142Y-83512381D01*
X59904285Y-83560000D01*
X59856666Y-83607619D01*
X59523333Y-83512381D02*
X58904285Y-83512381D01*
X59237619Y-83893333D01*
X59094761Y-83893333D01*
X58999523Y-83940952D01*
X58951904Y-83988571D01*
X58904285Y-84083810D01*
X58904285Y-84321905D01*
X58951904Y-84417143D01*
X58999523Y-84464762D01*
X59094761Y-84512381D01*
X59380476Y-84512381D01*
X59475714Y-84464762D01*
X59523333Y-84417143D01*
X65571666Y-74412143D02*
X65619285Y-74459762D01*
X65762142Y-74507381D01*
X65857380Y-74507381D01*
X66000238Y-74459762D01*
X66095476Y-74364524D01*
X66143095Y-74269286D01*
X66190714Y-74078810D01*
X66190714Y-73935952D01*
X66143095Y-73745476D01*
X66095476Y-73650238D01*
X66000238Y-73555000D01*
X65857380Y-73507381D01*
X65762142Y-73507381D01*
X65619285Y-73555000D01*
X65571666Y-73602619D01*
X64714523Y-73840714D02*
X64714523Y-74507381D01*
X64952619Y-73459762D02*
X65190714Y-74174048D01*
X64571666Y-74174048D01*
X51792143Y-76033334D02*
X51839762Y-75985715D01*
X51887381Y-75842858D01*
X51887381Y-75747620D01*
X51839762Y-75604762D01*
X51744524Y-75509524D01*
X51649286Y-75461905D01*
X51458810Y-75414286D01*
X51315952Y-75414286D01*
X51125476Y-75461905D01*
X51030238Y-75509524D01*
X50935000Y-75604762D01*
X50887381Y-75747620D01*
X50887381Y-75842858D01*
X50935000Y-75985715D01*
X50982619Y-76033334D01*
X50887381Y-76938096D02*
X50887381Y-76461905D01*
X51363571Y-76414286D01*
X51315952Y-76461905D01*
X51268333Y-76557143D01*
X51268333Y-76795239D01*
X51315952Y-76890477D01*
X51363571Y-76938096D01*
X51458810Y-76985715D01*
X51696905Y-76985715D01*
X51792143Y-76938096D01*
X51839762Y-76890477D01*
X51887381Y-76795239D01*
X51887381Y-76557143D01*
X51839762Y-76461905D01*
X51792143Y-76414286D01*
X64301666Y-86957143D02*
X64349285Y-87004762D01*
X64492142Y-87052381D01*
X64587380Y-87052381D01*
X64730238Y-87004762D01*
X64825476Y-86909524D01*
X64873095Y-86814286D01*
X64920714Y-86623810D01*
X64920714Y-86480952D01*
X64873095Y-86290476D01*
X64825476Y-86195238D01*
X64730238Y-86100000D01*
X64587380Y-86052381D01*
X64492142Y-86052381D01*
X64349285Y-86100000D01*
X64301666Y-86147619D01*
X63444523Y-86052381D02*
X63635000Y-86052381D01*
X63730238Y-86100000D01*
X63777857Y-86147619D01*
X63873095Y-86290476D01*
X63920714Y-86480952D01*
X63920714Y-86861905D01*
X63873095Y-86957143D01*
X63825476Y-87004762D01*
X63730238Y-87052381D01*
X63539761Y-87052381D01*
X63444523Y-87004762D01*
X63396904Y-86957143D01*
X63349285Y-86861905D01*
X63349285Y-86623810D01*
X63396904Y-86528571D01*
X63444523Y-86480952D01*
X63539761Y-86433333D01*
X63730238Y-86433333D01*
X63825476Y-86480952D01*
X63873095Y-86528571D01*
X63920714Y-86623810D01*
X58382143Y-100163334D02*
X58429762Y-100115715D01*
X58477381Y-99972858D01*
X58477381Y-99877620D01*
X58429762Y-99734762D01*
X58334524Y-99639524D01*
X58239286Y-99591905D01*
X58048810Y-99544286D01*
X57905952Y-99544286D01*
X57715476Y-99591905D01*
X57620238Y-99639524D01*
X57525000Y-99734762D01*
X57477381Y-99877620D01*
X57477381Y-99972858D01*
X57525000Y-100115715D01*
X57572619Y-100163334D01*
X57477381Y-100496667D02*
X57477381Y-101163334D01*
X58477381Y-100734762D01*
X71237143Y-104608334D02*
X71284762Y-104560715D01*
X71332381Y-104417858D01*
X71332381Y-104322620D01*
X71284762Y-104179762D01*
X71189524Y-104084524D01*
X71094286Y-104036905D01*
X70903810Y-103989286D01*
X70760952Y-103989286D01*
X70570476Y-104036905D01*
X70475238Y-104084524D01*
X70380000Y-104179762D01*
X70332381Y-104322620D01*
X70332381Y-104417858D01*
X70380000Y-104560715D01*
X70427619Y-104608334D01*
X71332381Y-105084524D02*
X71332381Y-105275000D01*
X71284762Y-105370239D01*
X71237143Y-105417858D01*
X71094286Y-105513096D01*
X70903810Y-105560715D01*
X70522857Y-105560715D01*
X70427619Y-105513096D01*
X70380000Y-105465477D01*
X70332381Y-105370239D01*
X70332381Y-105179762D01*
X70380000Y-105084524D01*
X70427619Y-105036905D01*
X70522857Y-104989286D01*
X70760952Y-104989286D01*
X70856190Y-105036905D01*
X70903810Y-105084524D01*
X70951429Y-105179762D01*
X70951429Y-105370239D01*
X70903810Y-105465477D01*
X70856190Y-105513096D01*
X70760952Y-105560715D01*
X86477143Y-109847143D02*
X86524762Y-109799524D01*
X86572381Y-109656667D01*
X86572381Y-109561429D01*
X86524762Y-109418571D01*
X86429524Y-109323333D01*
X86334286Y-109275714D01*
X86143810Y-109228095D01*
X86000952Y-109228095D01*
X85810476Y-109275714D01*
X85715238Y-109323333D01*
X85620000Y-109418571D01*
X85572381Y-109561429D01*
X85572381Y-109656667D01*
X85620000Y-109799524D01*
X85667619Y-109847143D01*
X86572381Y-110799524D02*
X86572381Y-110228095D01*
X86572381Y-110513809D02*
X85572381Y-110513809D01*
X85715238Y-110418571D01*
X85810476Y-110323333D01*
X85858095Y-110228095D01*
X85572381Y-111418571D02*
X85572381Y-111513810D01*
X85620000Y-111609048D01*
X85667619Y-111656667D01*
X85762857Y-111704286D01*
X85953333Y-111751905D01*
X86191429Y-111751905D01*
X86381905Y-111704286D01*
X86477143Y-111656667D01*
X86524762Y-111609048D01*
X86572381Y-111513810D01*
X86572381Y-111418571D01*
X86524762Y-111323333D01*
X86477143Y-111275714D01*
X86381905Y-111228095D01*
X86191429Y-111180476D01*
X85953333Y-111180476D01*
X85762857Y-111228095D01*
X85667619Y-111275714D01*
X85620000Y-111323333D01*
X85572381Y-111418571D01*
X81397143Y-103497143D02*
X81444762Y-103449524D01*
X81492381Y-103306667D01*
X81492381Y-103211429D01*
X81444762Y-103068571D01*
X81349524Y-102973333D01*
X81254286Y-102925714D01*
X81063810Y-102878095D01*
X80920952Y-102878095D01*
X80730476Y-102925714D01*
X80635238Y-102973333D01*
X80540000Y-103068571D01*
X80492381Y-103211429D01*
X80492381Y-103306667D01*
X80540000Y-103449524D01*
X80587619Y-103497143D01*
X81492381Y-104449524D02*
X81492381Y-103878095D01*
X81492381Y-104163809D02*
X80492381Y-104163809D01*
X80635238Y-104068571D01*
X80730476Y-103973333D01*
X80778095Y-103878095D01*
X81492381Y-105401905D02*
X81492381Y-104830476D01*
X81492381Y-105116190D02*
X80492381Y-105116190D01*
X80635238Y-105020952D01*
X80730476Y-104925714D01*
X80778095Y-104830476D01*
X84272381Y-107791905D02*
X83272381Y-107791905D01*
X83272381Y-108030000D01*
X83320000Y-108172858D01*
X83415238Y-108268096D01*
X83510476Y-108315715D01*
X83700952Y-108363334D01*
X83843810Y-108363334D01*
X84034286Y-108315715D01*
X84129524Y-108268096D01*
X84224762Y-108172858D01*
X84272381Y-108030000D01*
X84272381Y-107791905D01*
X84272381Y-109315715D02*
X84272381Y-108744286D01*
X84272381Y-109030000D02*
X83272381Y-109030000D01*
X83415238Y-108934762D01*
X83510476Y-108839524D01*
X83558095Y-108744286D01*
X72262381Y-105306905D02*
X71262381Y-105306905D01*
X71262381Y-105545000D01*
X71310000Y-105687858D01*
X71405238Y-105783096D01*
X71500476Y-105830715D01*
X71690952Y-105878334D01*
X71833810Y-105878334D01*
X72024286Y-105830715D01*
X72119524Y-105783096D01*
X72214762Y-105687858D01*
X72262381Y-105545000D01*
X72262381Y-105306905D01*
X71357619Y-106259286D02*
X71310000Y-106306905D01*
X71262381Y-106402143D01*
X71262381Y-106640239D01*
X71310000Y-106735477D01*
X71357619Y-106783096D01*
X71452857Y-106830715D01*
X71548095Y-106830715D01*
X71690952Y-106783096D01*
X72262381Y-106211667D01*
X72262381Y-106830715D01*
X55983095Y-111172381D02*
X55983095Y-110172381D01*
X55745000Y-110172381D01*
X55602142Y-110220000D01*
X55506904Y-110315238D01*
X55459285Y-110410476D01*
X55411666Y-110600952D01*
X55411666Y-110743810D01*
X55459285Y-110934286D01*
X55506904Y-111029524D01*
X55602142Y-111124762D01*
X55745000Y-111172381D01*
X55983095Y-111172381D01*
X55078333Y-110172381D02*
X54459285Y-110172381D01*
X54792619Y-110553333D01*
X54649761Y-110553333D01*
X54554523Y-110600952D01*
X54506904Y-110648571D01*
X54459285Y-110743810D01*
X54459285Y-110981905D01*
X54506904Y-111077143D01*
X54554523Y-111124762D01*
X54649761Y-111172381D01*
X54935476Y-111172381D01*
X55030714Y-111124762D01*
X55078333Y-111077143D01*
X72398095Y-110307381D02*
X72398095Y-109307381D01*
X72160000Y-109307381D01*
X72017142Y-109355000D01*
X71921904Y-109450238D01*
X71874285Y-109545476D01*
X71826666Y-109735952D01*
X71826666Y-109878810D01*
X71874285Y-110069286D01*
X71921904Y-110164524D01*
X72017142Y-110259762D01*
X72160000Y-110307381D01*
X72398095Y-110307381D01*
X70969523Y-109640714D02*
X70969523Y-110307381D01*
X71207619Y-109259762D02*
X71445714Y-109974048D01*
X70826666Y-109974048D01*
X70651666Y-107572381D02*
X71127857Y-107572381D01*
X71127857Y-106572381D01*
X69794523Y-107572381D02*
X70365952Y-107572381D01*
X70080238Y-107572381D02*
X70080238Y-106572381D01*
X70175476Y-106715238D01*
X70270714Y-106810476D01*
X70365952Y-106858095D01*
X66143095Y-112572381D02*
X66143095Y-111572381D01*
X65762142Y-111572381D01*
X65666904Y-111620000D01*
X65619285Y-111667619D01*
X65571666Y-111762857D01*
X65571666Y-111905714D01*
X65619285Y-112000952D01*
X65666904Y-112048571D01*
X65762142Y-112096190D01*
X66143095Y-112096190D01*
X64619285Y-112572381D02*
X65190714Y-112572381D01*
X64905000Y-112572381D02*
X64905000Y-111572381D01*
X65000238Y-111715238D01*
X65095476Y-111810476D01*
X65190714Y-111858095D01*
X62396666Y-113242381D02*
X62730000Y-112766190D01*
X62968095Y-113242381D02*
X62968095Y-112242381D01*
X62587142Y-112242381D01*
X62491904Y-112290000D01*
X62444285Y-112337619D01*
X62396666Y-112432857D01*
X62396666Y-112575714D01*
X62444285Y-112670952D01*
X62491904Y-112718571D01*
X62587142Y-112766190D01*
X62968095Y-112766190D01*
X61920476Y-113242381D02*
X61730000Y-113242381D01*
X61634761Y-113194762D01*
X61587142Y-113147143D01*
X61491904Y-113004286D01*
X61444285Y-112813810D01*
X61444285Y-112432857D01*
X61491904Y-112337619D01*
X61539523Y-112290000D01*
X61634761Y-112242381D01*
X61825238Y-112242381D01*
X61920476Y-112290000D01*
X61968095Y-112337619D01*
X62015714Y-112432857D01*
X62015714Y-112670952D01*
X61968095Y-112766190D01*
X61920476Y-112813810D01*
X61825238Y-112861429D01*
X61634761Y-112861429D01*
X61539523Y-112813810D01*
X61491904Y-112766190D01*
X61444285Y-112670952D01*
X63317381Y-65397143D02*
X62841190Y-65063809D01*
X63317381Y-64825714D02*
X62317381Y-64825714D01*
X62317381Y-65206667D01*
X62365000Y-65301905D01*
X62412619Y-65349524D01*
X62507857Y-65397143D01*
X62650714Y-65397143D01*
X62745952Y-65349524D01*
X62793571Y-65301905D01*
X62841190Y-65206667D01*
X62841190Y-64825714D01*
X63317381Y-66349524D02*
X63317381Y-65778095D01*
X63317381Y-66063809D02*
X62317381Y-66063809D01*
X62460238Y-65968571D01*
X62555476Y-65873333D01*
X62603095Y-65778095D01*
X62317381Y-66968571D02*
X62317381Y-67063810D01*
X62365000Y-67159048D01*
X62412619Y-67206667D01*
X62507857Y-67254286D01*
X62698333Y-67301905D01*
X62936429Y-67301905D01*
X63126905Y-67254286D01*
X63222143Y-67206667D01*
X63269762Y-67159048D01*
X63317381Y-67063810D01*
X63317381Y-66968571D01*
X63269762Y-66873333D01*
X63222143Y-66825714D01*
X63126905Y-66778095D01*
X62936429Y-66730476D01*
X62698333Y-66730476D01*
X62507857Y-66778095D01*
X62412619Y-66825714D01*
X62365000Y-66873333D01*
X62317381Y-66968571D01*
X64777857Y-82127381D02*
X65111191Y-81651190D01*
X65349286Y-82127381D02*
X65349286Y-81127381D01*
X64968333Y-81127381D01*
X64873095Y-81175000D01*
X64825476Y-81222619D01*
X64777857Y-81317857D01*
X64777857Y-81460714D01*
X64825476Y-81555952D01*
X64873095Y-81603571D01*
X64968333Y-81651190D01*
X65349286Y-81651190D01*
X63825476Y-82127381D02*
X64396905Y-82127381D01*
X64111191Y-82127381D02*
X64111191Y-81127381D01*
X64206429Y-81270238D01*
X64301667Y-81365476D01*
X64396905Y-81413095D01*
X62873095Y-82127381D02*
X63444524Y-82127381D01*
X63158810Y-82127381D02*
X63158810Y-81127381D01*
X63254048Y-81270238D01*
X63349286Y-81365476D01*
X63444524Y-81413095D01*
X57157857Y-73477381D02*
X57491191Y-73001190D01*
X57729286Y-73477381D02*
X57729286Y-72477381D01*
X57348333Y-72477381D01*
X57253095Y-72525000D01*
X57205476Y-72572619D01*
X57157857Y-72667857D01*
X57157857Y-72810714D01*
X57205476Y-72905952D01*
X57253095Y-72953571D01*
X57348333Y-73001190D01*
X57729286Y-73001190D01*
X56205476Y-73477381D02*
X56776905Y-73477381D01*
X56491191Y-73477381D02*
X56491191Y-72477381D01*
X56586429Y-72620238D01*
X56681667Y-72715476D01*
X56776905Y-72763095D01*
X55824524Y-72572619D02*
X55776905Y-72525000D01*
X55681667Y-72477381D01*
X55443571Y-72477381D01*
X55348333Y-72525000D01*
X55300714Y-72572619D01*
X55253095Y-72667857D01*
X55253095Y-72763095D01*
X55300714Y-72905952D01*
X55872143Y-73477381D01*
X55253095Y-73477381D01*
X70492857Y-91652381D02*
X70826191Y-91176190D01*
X71064286Y-91652381D02*
X71064286Y-90652381D01*
X70683333Y-90652381D01*
X70588095Y-90700000D01*
X70540476Y-90747619D01*
X70492857Y-90842857D01*
X70492857Y-90985714D01*
X70540476Y-91080952D01*
X70588095Y-91128571D01*
X70683333Y-91176190D01*
X71064286Y-91176190D01*
X69540476Y-91652381D02*
X70111905Y-91652381D01*
X69826191Y-91652381D02*
X69826191Y-90652381D01*
X69921429Y-90795238D01*
X70016667Y-90890476D01*
X70111905Y-90938095D01*
X69207143Y-90652381D02*
X68588095Y-90652381D01*
X68921429Y-91033333D01*
X68778571Y-91033333D01*
X68683333Y-91080952D01*
X68635714Y-91128571D01*
X68588095Y-91223810D01*
X68588095Y-91461905D01*
X68635714Y-91557143D01*
X68683333Y-91604762D01*
X68778571Y-91652381D01*
X69064286Y-91652381D01*
X69159524Y-91604762D01*
X69207143Y-91557143D01*
X54667381Y-97147143D02*
X54191190Y-96813809D01*
X54667381Y-96575714D02*
X53667381Y-96575714D01*
X53667381Y-96956667D01*
X53715000Y-97051905D01*
X53762619Y-97099524D01*
X53857857Y-97147143D01*
X54000714Y-97147143D01*
X54095952Y-97099524D01*
X54143571Y-97051905D01*
X54191190Y-96956667D01*
X54191190Y-96575714D01*
X54667381Y-98099524D02*
X54667381Y-97528095D01*
X54667381Y-97813809D02*
X53667381Y-97813809D01*
X53810238Y-97718571D01*
X53905476Y-97623333D01*
X53953095Y-97528095D01*
X53667381Y-99004286D02*
X53667381Y-98528095D01*
X54143571Y-98480476D01*
X54095952Y-98528095D01*
X54048333Y-98623333D01*
X54048333Y-98861429D01*
X54095952Y-98956667D01*
X54143571Y-99004286D01*
X54238810Y-99051905D01*
X54476905Y-99051905D01*
X54572143Y-99004286D01*
X54619762Y-98956667D01*
X54667381Y-98861429D01*
X54667381Y-98623333D01*
X54619762Y-98528095D01*
X54572143Y-98480476D01*
X79587381Y-108577143D02*
X79111190Y-108243809D01*
X79587381Y-108005714D02*
X78587381Y-108005714D01*
X78587381Y-108386667D01*
X78635000Y-108481905D01*
X78682619Y-108529524D01*
X78777857Y-108577143D01*
X78920714Y-108577143D01*
X79015952Y-108529524D01*
X79063571Y-108481905D01*
X79111190Y-108386667D01*
X79111190Y-108005714D01*
X79587381Y-109529524D02*
X79587381Y-108958095D01*
X79587381Y-109243809D02*
X78587381Y-109243809D01*
X78730238Y-109148571D01*
X78825476Y-109053333D01*
X78873095Y-108958095D01*
X78587381Y-110386667D02*
X78587381Y-110196190D01*
X78635000Y-110100952D01*
X78682619Y-110053333D01*
X78825476Y-109958095D01*
X79015952Y-109910476D01*
X79396905Y-109910476D01*
X79492143Y-109958095D01*
X79539762Y-110005714D01*
X79587381Y-110100952D01*
X79587381Y-110291429D01*
X79539762Y-110386667D01*
X79492143Y-110434286D01*
X79396905Y-110481905D01*
X79158810Y-110481905D01*
X79063571Y-110434286D01*
X79015952Y-110386667D01*
X78968333Y-110291429D01*
X78968333Y-110100952D01*
X79015952Y-110005714D01*
X79063571Y-109958095D01*
X79158810Y-109910476D01*
X76892381Y-113657143D02*
X76416190Y-113323809D01*
X76892381Y-113085714D02*
X75892381Y-113085714D01*
X75892381Y-113466667D01*
X75940000Y-113561905D01*
X75987619Y-113609524D01*
X76082857Y-113657143D01*
X76225714Y-113657143D01*
X76320952Y-113609524D01*
X76368571Y-113561905D01*
X76416190Y-113466667D01*
X76416190Y-113085714D01*
X76892381Y-114609524D02*
X76892381Y-114038095D01*
X76892381Y-114323809D02*
X75892381Y-114323809D01*
X76035238Y-114228571D01*
X76130476Y-114133333D01*
X76178095Y-114038095D01*
X75892381Y-114942857D02*
X75892381Y-115609524D01*
X76892381Y-115180952D01*
X83002381Y-109212143D02*
X82526190Y-108878809D01*
X83002381Y-108640714D02*
X82002381Y-108640714D01*
X82002381Y-109021667D01*
X82050000Y-109116905D01*
X82097619Y-109164524D01*
X82192857Y-109212143D01*
X82335714Y-109212143D01*
X82430952Y-109164524D01*
X82478571Y-109116905D01*
X82526190Y-109021667D01*
X82526190Y-108640714D01*
X83002381Y-110164524D02*
X83002381Y-109593095D01*
X83002381Y-109878809D02*
X82002381Y-109878809D01*
X82145238Y-109783571D01*
X82240476Y-109688333D01*
X82288095Y-109593095D01*
X82430952Y-110735952D02*
X82383333Y-110640714D01*
X82335714Y-110593095D01*
X82240476Y-110545476D01*
X82192857Y-110545476D01*
X82097619Y-110593095D01*
X82050000Y-110640714D01*
X82002381Y-110735952D01*
X82002381Y-110926429D01*
X82050000Y-111021667D01*
X82097619Y-111069286D01*
X82192857Y-111116905D01*
X82240476Y-111116905D01*
X82335714Y-111069286D01*
X82383333Y-111021667D01*
X82430952Y-110926429D01*
X82430952Y-110735952D01*
X82478571Y-110640714D01*
X82526190Y-110593095D01*
X82621429Y-110545476D01*
X82811905Y-110545476D01*
X82907143Y-110593095D01*
X82954762Y-110640714D01*
X83002381Y-110735952D01*
X83002381Y-110926429D01*
X82954762Y-111021667D01*
X82907143Y-111069286D01*
X82811905Y-111116905D01*
X82621429Y-111116905D01*
X82526190Y-111069286D01*
X82478571Y-111021667D01*
X82430952Y-110926429D01*
D13*
X62562619Y-77669524D02*
X62562619Y-78697619D01*
X62502143Y-78818571D01*
X62441667Y-78879048D01*
X62320714Y-78939524D01*
X62078810Y-78939524D01*
X61957857Y-78879048D01*
X61897381Y-78818571D01*
X61836905Y-78697619D01*
X61836905Y-77669524D01*
X60566905Y-78939524D02*
X61292619Y-78939524D01*
X60929762Y-78939524D02*
X60929762Y-77669524D01*
X61050714Y-77850952D01*
X61171667Y-77971905D01*
X61292619Y-78032381D01*
X64255953Y-73539524D02*
X64679286Y-72934762D01*
X64981667Y-73539524D02*
X64981667Y-72269524D01*
X64497858Y-72269524D01*
X64376905Y-72330000D01*
X64316429Y-72390476D01*
X64255953Y-72511429D01*
X64255953Y-72692857D01*
X64316429Y-72813810D01*
X64376905Y-72874286D01*
X64497858Y-72934762D01*
X64981667Y-72934762D01*
X62985953Y-73418571D02*
X63046429Y-73479048D01*
X63227858Y-73539524D01*
X63348810Y-73539524D01*
X63530238Y-73479048D01*
X63651191Y-73358095D01*
X63711667Y-73237143D01*
X63772143Y-72995238D01*
X63772143Y-72813810D01*
X63711667Y-72571905D01*
X63651191Y-72450952D01*
X63530238Y-72330000D01*
X63348810Y-72269524D01*
X63227858Y-72269524D01*
X63046429Y-72330000D01*
X62985953Y-72390476D01*
X61897381Y-72692857D02*
X61897381Y-73539524D01*
X62199762Y-72209048D02*
X62502143Y-73116190D01*
X61715953Y-73116190D01*
X60627381Y-72269524D02*
X61232143Y-72269524D01*
X61292619Y-72874286D01*
X61232143Y-72813810D01*
X61111191Y-72753333D01*
X60808810Y-72753333D01*
X60687857Y-72813810D01*
X60627381Y-72874286D01*
X60566905Y-72995238D01*
X60566905Y-73297619D01*
X60627381Y-73418571D01*
X60687857Y-73479048D01*
X60808810Y-73539524D01*
X61111191Y-73539524D01*
X61232143Y-73479048D01*
X61292619Y-73418571D01*
X59478333Y-72269524D02*
X59720238Y-72269524D01*
X59841190Y-72330000D01*
X59901667Y-72390476D01*
X60022619Y-72571905D01*
X60083095Y-72813810D01*
X60083095Y-73297619D01*
X60022619Y-73418571D01*
X59962143Y-73479048D01*
X59841190Y-73539524D01*
X59599286Y-73539524D01*
X59478333Y-73479048D01*
X59417857Y-73418571D01*
X59357381Y-73297619D01*
X59357381Y-72995238D01*
X59417857Y-72874286D01*
X59478333Y-72813810D01*
X59599286Y-72753333D01*
X59841190Y-72753333D01*
X59962143Y-72813810D01*
X60022619Y-72874286D01*
X60083095Y-72995238D01*
X58571190Y-72269524D02*
X58450238Y-72269524D01*
X58329286Y-72330000D01*
X58268809Y-72390476D01*
X58208333Y-72511429D01*
X58147857Y-72753333D01*
X58147857Y-73055714D01*
X58208333Y-73297619D01*
X58268809Y-73418571D01*
X58329286Y-73479048D01*
X58450238Y-73539524D01*
X58571190Y-73539524D01*
X58692143Y-73479048D01*
X58752619Y-73418571D01*
X58813095Y-73297619D01*
X58873571Y-73055714D01*
X58873571Y-72753333D01*
X58813095Y-72511429D01*
X58752619Y-72390476D01*
X58692143Y-72330000D01*
X58571190Y-72269524D01*
X59207399Y-76317324D02*
X59207399Y-76619705D01*
X59509780Y-76498752D02*
X59207399Y-76619705D01*
X58905019Y-76498752D01*
X59388828Y-76861610D02*
X59207399Y-76619705D01*
X59025971Y-76861610D01*
X75262619Y-112969524D02*
X75262619Y-113997619D01*
X75202143Y-114118571D01*
X75141667Y-114179048D01*
X75020714Y-114239524D01*
X74778810Y-114239524D01*
X74657857Y-114179048D01*
X74597381Y-114118571D01*
X74536905Y-113997619D01*
X74536905Y-112969524D01*
X73992619Y-113090476D02*
X73932143Y-113030000D01*
X73811191Y-112969524D01*
X73508810Y-112969524D01*
X73387857Y-113030000D01*
X73327381Y-113090476D01*
X73266905Y-113211429D01*
X73266905Y-113332381D01*
X73327381Y-113513810D01*
X74053095Y-114239524D01*
X73266905Y-114239524D01*
X77046667Y-116839524D02*
X77651429Y-116839524D01*
X77651429Y-115569524D01*
X76623334Y-116839524D02*
X76623334Y-115569524D01*
X76200001Y-116476667D01*
X75776667Y-115569524D01*
X75776667Y-116839524D01*
X75232381Y-115690476D02*
X75171905Y-115630000D01*
X75050953Y-115569524D01*
X74748572Y-115569524D01*
X74627619Y-115630000D01*
X74567143Y-115690476D01*
X74506667Y-115811429D01*
X74506667Y-115932381D01*
X74567143Y-116113810D01*
X75292857Y-116839524D01*
X74506667Y-116839524D01*
X73418095Y-115569524D02*
X73660000Y-115569524D01*
X73780952Y-115630000D01*
X73841429Y-115690476D01*
X73962381Y-115871905D01*
X74022857Y-116113810D01*
X74022857Y-116597619D01*
X73962381Y-116718571D01*
X73901905Y-116779048D01*
X73780952Y-116839524D01*
X73539048Y-116839524D01*
X73418095Y-116779048D01*
X73357619Y-116718571D01*
X73297143Y-116597619D01*
X73297143Y-116295238D01*
X73357619Y-116174286D01*
X73418095Y-116113810D01*
X73539048Y-116053333D01*
X73780952Y-116053333D01*
X73901905Y-116113810D01*
X73962381Y-116174286D01*
X74022857Y-116295238D01*
X72692381Y-116839524D02*
X72450476Y-116839524D01*
X72329524Y-116779048D01*
X72269048Y-116718571D01*
X72148095Y-116537143D01*
X72087619Y-116295238D01*
X72087619Y-115811429D01*
X72148095Y-115690476D01*
X72208571Y-115630000D01*
X72329524Y-115569524D01*
X72571428Y-115569524D01*
X72692381Y-115630000D01*
X72752857Y-115690476D01*
X72813333Y-115811429D01*
X72813333Y-116113810D01*
X72752857Y-116234762D01*
X72692381Y-116295238D01*
X72571428Y-116355714D01*
X72329524Y-116355714D01*
X72208571Y-116295238D01*
X72148095Y-116234762D01*
X72087619Y-116113810D01*
X71361904Y-116113810D02*
X71482857Y-116053333D01*
X71543333Y-115992857D01*
X71603809Y-115871905D01*
X71603809Y-115811429D01*
X71543333Y-115690476D01*
X71482857Y-115630000D01*
X71361904Y-115569524D01*
X71120000Y-115569524D01*
X70999047Y-115630000D01*
X70938571Y-115690476D01*
X70878095Y-115811429D01*
X70878095Y-115871905D01*
X70938571Y-115992857D01*
X70999047Y-116053333D01*
X71120000Y-116113810D01*
X71361904Y-116113810D01*
X71482857Y-116174286D01*
X71543333Y-116234762D01*
X71603809Y-116355714D01*
X71603809Y-116597619D01*
X71543333Y-116718571D01*
X71482857Y-116779048D01*
X71361904Y-116839524D01*
X71120000Y-116839524D01*
X70999047Y-116779048D01*
X70938571Y-116718571D01*
X70878095Y-116597619D01*
X70878095Y-116355714D01*
X70938571Y-116234762D01*
X70999047Y-116174286D01*
X71120000Y-116113810D01*
X76682599Y-111521724D02*
X76682599Y-111824105D01*
X76984980Y-111703152D02*
X76682599Y-111824105D01*
X76380219Y-111703152D01*
X76864028Y-112066010D02*
X76682599Y-111824105D01*
X76501171Y-112066010D01*
%LPC*%
D14*
X52955000Y-107580000D03*
X55355000Y-104680000D03*
X60855000Y-104680000D03*
X64555000Y-107580000D03*
X59055000Y-107580000D03*
X52955000Y-83450000D03*
X55355000Y-80550000D03*
X60855000Y-80550000D03*
X64555000Y-83450000D03*
X59055000Y-83450000D03*
D15*
X68985000Y-73025000D03*
X71985000Y-73025000D03*
X68985000Y-76200000D03*
X71985000Y-76200000D03*
X61190000Y-86360000D03*
X58190000Y-86360000D03*
X63905000Y-71755000D03*
X66905000Y-71755000D03*
D16*
X53340000Y-77700000D03*
X53340000Y-74700000D03*
D15*
X65635000Y-88900000D03*
X62635000Y-88900000D03*
D16*
X60325000Y-98830000D03*
X60325000Y-101830000D03*
X68580000Y-106275000D03*
X68580000Y-103275000D03*
X83820000Y-111990000D03*
X83820000Y-108990000D03*
X78740000Y-105640000D03*
X78740000Y-102640000D03*
X87630000Y-112220000D03*
D15*
X92330000Y-109220000D03*
D16*
X87630000Y-106220000D03*
D17*
X82765000Y-106680000D03*
X84875000Y-106680000D03*
D18*
X73660000Y-104990000D03*
X73660000Y-107100000D03*
D19*
X55994300Y-109220000D03*
X54495700Y-109220000D03*
D20*
X73660000Y-108220000D03*
X73660000Y-111490000D03*
D14*
X52955000Y-54240000D03*
X55355000Y-51340000D03*
X60855000Y-51340000D03*
X64555000Y-54240000D03*
X59055000Y-54240000D03*
X52955000Y-68210000D03*
X55355000Y-65310000D03*
X60855000Y-65310000D03*
X64555000Y-68210000D03*
X59055000Y-68210000D03*
X52955000Y-96150000D03*
X55355000Y-93250000D03*
X60855000Y-93250000D03*
X64555000Y-96150000D03*
X59055000Y-96150000D03*
D21*
X71435000Y-109220000D03*
X69535000Y-109220000D03*
D22*
X66705900Y-114007460D03*
X66055900Y-114007460D03*
X65405900Y-114007460D03*
X64755900Y-114007460D03*
X64105900Y-114007460D03*
D23*
X67905900Y-114007460D03*
X62905900Y-114007460D03*
D24*
X68905900Y-116707460D03*
X61905900Y-116707460D03*
D25*
X60780000Y-110490000D03*
X63680000Y-110490000D03*
D26*
X61595000Y-68400000D03*
X61595000Y-71300000D03*
D25*
X62685000Y-79375000D03*
X65585000Y-79375000D03*
D26*
X56515000Y-74750000D03*
X56515000Y-77650000D03*
D25*
X68400000Y-88900000D03*
X71300000Y-88900000D03*
D26*
X56515000Y-96340000D03*
X56515000Y-99240000D03*
X76835000Y-110670000D03*
X76835000Y-107770000D03*
X78740000Y-112850000D03*
X78740000Y-115750000D03*
X80645000Y-108405000D03*
X80645000Y-111305000D03*
D27*
X80010000Y-54610000D03*
X80010000Y-50860000D03*
X80010000Y-58360000D03*
X75010000Y-50860000D03*
X75010000Y-54610000D03*
X75010000Y-58360000D03*
X80010000Y-68580000D03*
X80010000Y-64830000D03*
X80010000Y-72330000D03*
X75010000Y-64830000D03*
X75010000Y-68580000D03*
X75010000Y-72330000D03*
X80010000Y-82550000D03*
X80010000Y-78800000D03*
X80010000Y-86300000D03*
X75010000Y-78800000D03*
X75010000Y-82550000D03*
X75010000Y-86300000D03*
X80010000Y-96520000D03*
X80010000Y-92770000D03*
X80010000Y-100270000D03*
X75010000Y-92770000D03*
X75010000Y-96520000D03*
X75010000Y-100270000D03*
D28*
X58420000Y-113030000D03*
X55880000Y-113030000D03*
X53340000Y-113030000D03*
X53340000Y-115570000D03*
X58420000Y-115570000D03*
D29*
X80890000Y-105410000D03*
X76200000Y-105410000D03*
X71510000Y-105410000D03*
D30*
X78740000Y-118110000D03*
X73660000Y-118110000D03*
D31*
X59413140Y-76530200D03*
X59413140Y-75895200D03*
X59413140Y-75234800D03*
X59413140Y-74599800D03*
X63776860Y-74599800D03*
X63776860Y-75234800D03*
X63776860Y-75895200D03*
X63776860Y-76530200D03*
X76476860Y-112699800D03*
X76476860Y-113334800D03*
X76476860Y-113995200D03*
X76476860Y-114630200D03*
X72113140Y-114630200D03*
X72113140Y-113995200D03*
X72113140Y-113334800D03*
X72113140Y-112699800D03*
M02*
