M48
;DRILL file {KiCad 4.0.1-stable} date Tuesday, February 09, 2016 'PMt' 01:38:31 PM
;FORMAT={-:-/ absolute / metric / decimal}
FMAT,2
METRIC,TZ
T1C0.400
T2C0.500
T3C0.550
T4C0.760
T5C0.762
T6C1.000
T7C1.090
T8C1.200
T9C3.000
%
G90
G05
M71
T1
X2.54Y38.735
X6.985Y46.355
X7.62Y31.115
X12.7Y46.355
X13.97Y46.355
X15.24Y44.45
X15.24Y42.545
X15.875Y10.16
X17.145Y45.085
X20.32Y8.89
X20.32Y4.445
X22.86Y10.16
X23.495Y5.08
X26.035Y41.91
X30.48Y3.81
T7
X2.54Y6.985
X5.08Y6.985
X7.62Y6.985
T8
X24.21Y69.155
X24.21Y65.405
X24.21Y61.655
X24.21Y55.185
X24.21Y51.435
X24.21Y47.685
X24.21Y41.215
X24.21Y37.465
X24.21Y33.715
X24.21Y27.245
X24.21Y23.495
X24.21Y19.745
X29.21Y69.155
X29.21Y65.405
X29.21Y61.655
X29.21Y55.185
X29.21Y51.435
X29.21Y47.685
X29.21Y41.215
X29.21Y37.465
X29.21Y33.715
X29.21Y27.245
X29.21Y23.495
X29.21Y19.745
T9
X18.415Y58.42
X38.1Y67.945
X38.1Y25.4
T2
X11.106Y2.983G85X11.106Y3.633
G05
X18.106Y2.983G85X18.106Y3.633
G05
T3
X11.956Y6.008G85X12.256Y6.008
G05
X16.956Y6.008G85X17.256Y6.008
G05
T4
X20.71Y14.86G85X20.71Y14.35
G05
X25.4Y14.86G85X25.4Y14.35
G05
X30.09Y14.86G85X30.09Y14.35
G05
T5
X37.099Y13.795G85X36.561Y13.795
G05
X37.099Y7.795G85X36.561Y7.795
G05
X41.53Y11.064G85X41.53Y10.526
G05
T6
X2.155Y66.275G85X2.155Y65.275
G05
X2.155Y52.305G85X2.155Y51.305
G05
X2.155Y37.065G85X2.155Y36.065
G05
X2.155Y24.365G85X2.155Y23.365
G05
X2.155Y12.935G85X2.155Y11.935
G05
X4.555Y69.175G85X4.555Y68.175
G05
X4.555Y55.205G85X4.555Y54.205
G05
X4.555Y39.965G85X4.555Y38.965
G05
X4.555Y27.265G85X4.555Y26.265
G05
X4.555Y15.835G85X4.555Y14.835
G05
X8.255Y66.275G85X8.255Y65.275
G05
X8.255Y52.305G85X8.255Y51.305
G05
X8.255Y37.065G85X8.255Y36.065
G05
X8.255Y24.365G85X8.255Y23.365
G05
X8.255Y12.935G85X8.255Y11.935
G05
X10.055Y69.175G85X10.055Y68.175
G05
X10.055Y55.205G85X10.055Y54.205
G05
X10.055Y39.965G85X10.055Y38.965
G05
X10.055Y27.265G85X10.055Y26.265
G05
X10.055Y15.835G85X10.055Y14.835
G05
X13.755Y66.275G85X13.755Y65.275
G05
X13.755Y52.305G85X13.755Y51.305
G05
X13.755Y37.065G85X13.755Y36.065
G05
X13.755Y24.365G85X13.755Y23.365
G05
X13.755Y12.935G85X13.755Y11.935
G05
T0
M30
