G04 #@! TF.FileFunction,Legend,Top*
%FSLAX46Y46*%
G04 Gerber Fmt 4.6, Leading zero omitted, Abs format (unit mm)*
G04 Created by KiCad (PCBNEW 4.0.1-stable) date Tuesday, February 09, 2016 'PMt' 01:35:24 PM*
%MOMM*%
G01*
G04 APERTURE LIST*
%ADD10C,0.100000*%
%ADD11C,0.150000*%
%ADD12C,0.152400*%
%ADD13R,1.600000X2.600000*%
%ADD14R,2.000000X1.400000*%
%ADD15R,1.400000X2.000000*%
%ADD16O,1.650000X1.350000*%
%ADD17O,1.400000X1.950000*%
%ADD18R,1.300000X2.100000*%
%ADD19R,2.100000X1.300000*%
%ADD20C,1.900000*%
%ADD21C,1.700000*%
%ADD22R,1.400000X1.900000*%
%ADD23R,1.900000X1.400000*%
G04 APERTURE END LIST*
D10*
D11*
X47655000Y-109680000D02*
X51655000Y-109680000D01*
X47655000Y-103680000D02*
X47655000Y-109680000D01*
X47655000Y-103680000D02*
X51655000Y-103680000D01*
X65755000Y-103380000D02*
X65755000Y-111580000D01*
X51755000Y-103380000D02*
X51755000Y-111580000D01*
X51755000Y-103380000D02*
X65755000Y-103380000D01*
X51755000Y-111580000D02*
X65755000Y-111580000D01*
X47655000Y-85550000D02*
X51655000Y-85550000D01*
X47655000Y-79550000D02*
X47655000Y-85550000D01*
X47655000Y-79550000D02*
X51655000Y-79550000D01*
X65755000Y-79250000D02*
X65755000Y-87450000D01*
X51755000Y-79250000D02*
X51755000Y-87450000D01*
X51755000Y-79250000D02*
X65755000Y-79250000D01*
X51755000Y-87450000D02*
X65755000Y-87450000D01*
X55000000Y-101965000D02*
X55000000Y-99965000D01*
X52950000Y-99965000D02*
X52950000Y-101965000D01*
X92130000Y-105520000D02*
X83130000Y-105520000D01*
X83130000Y-119920000D02*
X83130000Y-105520000D01*
X92130000Y-119920000D02*
X83030000Y-119920000D01*
X92130000Y-119920000D02*
X92130000Y-105520000D01*
X47655000Y-56340000D02*
X51655000Y-56340000D01*
X47655000Y-50340000D02*
X47655000Y-56340000D01*
X47655000Y-50340000D02*
X51655000Y-50340000D01*
X65755000Y-50040000D02*
X65755000Y-58240000D01*
X51755000Y-50040000D02*
X51755000Y-58240000D01*
X51755000Y-50040000D02*
X65755000Y-50040000D01*
X51755000Y-58240000D02*
X65755000Y-58240000D01*
X47655000Y-70310000D02*
X51655000Y-70310000D01*
X47655000Y-64310000D02*
X47655000Y-70310000D01*
X47655000Y-64310000D02*
X51655000Y-64310000D01*
X65755000Y-64010000D02*
X65755000Y-72210000D01*
X51755000Y-64010000D02*
X51755000Y-72210000D01*
X51755000Y-64010000D02*
X65755000Y-64010000D01*
X51755000Y-72210000D02*
X65755000Y-72210000D01*
X47655000Y-98250000D02*
X51655000Y-98250000D01*
X47655000Y-92250000D02*
X47655000Y-98250000D01*
X47655000Y-92250000D02*
X51655000Y-92250000D01*
X65755000Y-91950000D02*
X65755000Y-100150000D01*
X51755000Y-91950000D02*
X51755000Y-100150000D01*
X51755000Y-91950000D02*
X65755000Y-91950000D01*
X51755000Y-100150000D02*
X65755000Y-100150000D01*
X68215000Y-64965000D02*
X70215000Y-64965000D01*
X70215000Y-67115000D02*
X68215000Y-67115000D01*
X68215000Y-50995000D02*
X70215000Y-50995000D01*
X70215000Y-53145000D02*
X68215000Y-53145000D01*
X68215000Y-68775000D02*
X70215000Y-68775000D01*
X70215000Y-70925000D02*
X68215000Y-70925000D01*
X68215000Y-84015000D02*
X70215000Y-84015000D01*
X70215000Y-86165000D02*
X68215000Y-86165000D01*
X68215000Y-80205000D02*
X70215000Y-80205000D01*
X70215000Y-82355000D02*
X68215000Y-82355000D01*
X68215000Y-96715000D02*
X70215000Y-96715000D01*
X70215000Y-98865000D02*
X68215000Y-98865000D01*
X68215000Y-92905000D02*
X70215000Y-92905000D01*
X70215000Y-95055000D02*
X68215000Y-95055000D01*
X68215000Y-54805000D02*
X70215000Y-54805000D01*
X70215000Y-56955000D02*
X68215000Y-56955000D01*
X52265000Y-89900000D02*
X52265000Y-87900000D01*
X54415000Y-87900000D02*
X54415000Y-89900000D01*
X85010000Y-54610000D02*
X82510000Y-57110000D01*
X85010000Y-54610000D02*
X82510000Y-52110000D01*
X85010000Y-61110000D02*
X73710000Y-61110000D01*
X73710000Y-48110000D02*
X85010000Y-48110000D01*
X85010000Y-48110000D02*
X85010000Y-61110000D01*
X73710000Y-48110000D02*
X73710000Y-61110000D01*
X85010000Y-68580000D02*
X82510000Y-71080000D01*
X85010000Y-68580000D02*
X82510000Y-66080000D01*
X85010000Y-75080000D02*
X73710000Y-75080000D01*
X73710000Y-62080000D02*
X85010000Y-62080000D01*
X85010000Y-62080000D02*
X85010000Y-75080000D01*
X73710000Y-62080000D02*
X73710000Y-75080000D01*
X85010000Y-82550000D02*
X82510000Y-85050000D01*
X85010000Y-82550000D02*
X82510000Y-80050000D01*
X85010000Y-89050000D02*
X73710000Y-89050000D01*
X73710000Y-76050000D02*
X85010000Y-76050000D01*
X85010000Y-76050000D02*
X85010000Y-89050000D01*
X73710000Y-76050000D02*
X73710000Y-89050000D01*
X85010000Y-96520000D02*
X82510000Y-99020000D01*
X85010000Y-96520000D02*
X82510000Y-94020000D01*
X85010000Y-103020000D02*
X73710000Y-103020000D01*
X73710000Y-90020000D02*
X85010000Y-90020000D01*
X85010000Y-90020000D02*
X85010000Y-103020000D01*
X73710000Y-90020000D02*
X73710000Y-103020000D01*
X59960000Y-121430000D02*
X51800000Y-121430000D01*
X51800000Y-112230000D02*
X51800000Y-121430000D01*
X59960000Y-112230000D02*
X59960000Y-121430000D01*
X59960000Y-112230000D02*
X51800000Y-112230000D01*
X82300000Y-104410000D02*
X82300000Y-119710000D01*
X82300000Y-119710000D02*
X70100000Y-119710000D01*
X70100000Y-104410000D02*
X70100000Y-119710000D01*
X70100000Y-104410000D02*
X82300000Y-104410000D01*
D12*
X60045600Y-76327000D02*
X60045600Y-76733400D01*
X60045600Y-75692000D02*
X60045600Y-76098400D01*
X60045600Y-75031600D02*
X60045600Y-75438000D01*
X60045600Y-74396600D02*
X60045600Y-74803000D01*
X63144400Y-76098400D02*
X63144400Y-75692000D01*
X63144400Y-76733400D02*
X63144400Y-76327000D01*
D10*
X61290200Y-77114400D02*
G75*
G02X61899800Y-77114400I304800J0D01*
G01*
D12*
X75844400Y-112903000D02*
X75844400Y-112496600D01*
X75844400Y-113538000D02*
X75844400Y-113131600D01*
X75844400Y-114198400D02*
X75844400Y-113792000D01*
X75844400Y-114833400D02*
X75844400Y-114427000D01*
X72745600Y-113131600D02*
X72745600Y-113538000D01*
X72745600Y-112496600D02*
X72745600Y-112903000D01*
D10*
X74599800Y-112115600D02*
G75*
G02X73990200Y-112115600I-304800J0D01*
G01*
D11*
X58621667Y-109432381D02*
X58621667Y-110146667D01*
X58574047Y-110289524D01*
X58478809Y-110384762D01*
X58335952Y-110432381D01*
X58240714Y-110432381D01*
X59574048Y-109432381D02*
X59097857Y-109432381D01*
X59050238Y-109908571D01*
X59097857Y-109860952D01*
X59193095Y-109813333D01*
X59431191Y-109813333D01*
X59526429Y-109860952D01*
X59574048Y-109908571D01*
X59621667Y-110003810D01*
X59621667Y-110241905D01*
X59574048Y-110337143D01*
X59526429Y-110384762D01*
X59431191Y-110432381D01*
X59193095Y-110432381D01*
X59097857Y-110384762D01*
X59050238Y-110337143D01*
X58621667Y-85302381D02*
X58621667Y-86016667D01*
X58574047Y-86159524D01*
X58478809Y-86254762D01*
X58335952Y-86302381D01*
X58240714Y-86302381D01*
X59002619Y-85302381D02*
X59621667Y-85302381D01*
X59288333Y-85683333D01*
X59431191Y-85683333D01*
X59526429Y-85730952D01*
X59574048Y-85778571D01*
X59621667Y-85873810D01*
X59621667Y-86111905D01*
X59574048Y-86207143D01*
X59526429Y-86254762D01*
X59431191Y-86302381D01*
X59145476Y-86302381D01*
X59050238Y-86254762D01*
X59002619Y-86207143D01*
X56632143Y-101131666D02*
X56679762Y-101179285D01*
X56727381Y-101322142D01*
X56727381Y-101417380D01*
X56679762Y-101560238D01*
X56584524Y-101655476D01*
X56489286Y-101703095D01*
X56298810Y-101750714D01*
X56155952Y-101750714D01*
X55965476Y-101703095D01*
X55870238Y-101655476D01*
X55775000Y-101560238D01*
X55727381Y-101417380D01*
X55727381Y-101322142D01*
X55775000Y-101179285D01*
X55822619Y-101131666D01*
X56155952Y-100560238D02*
X56108333Y-100655476D01*
X56060714Y-100703095D01*
X55965476Y-100750714D01*
X55917857Y-100750714D01*
X55822619Y-100703095D01*
X55775000Y-100655476D01*
X55727381Y-100560238D01*
X55727381Y-100369761D01*
X55775000Y-100274523D01*
X55822619Y-100226904D01*
X55917857Y-100179285D01*
X55965476Y-100179285D01*
X56060714Y-100226904D01*
X56108333Y-100274523D01*
X56155952Y-100369761D01*
X56155952Y-100560238D01*
X56203571Y-100655476D01*
X56251190Y-100703095D01*
X56346429Y-100750714D01*
X56536905Y-100750714D01*
X56632143Y-100703095D01*
X56679762Y-100655476D01*
X56727381Y-100560238D01*
X56727381Y-100369761D01*
X56679762Y-100274523D01*
X56632143Y-100226904D01*
X56536905Y-100179285D01*
X56346429Y-100179285D01*
X56251190Y-100226904D01*
X56203571Y-100274523D01*
X56155952Y-100369761D01*
X86415715Y-117777143D02*
X86368096Y-117824762D01*
X86225239Y-117872381D01*
X86130001Y-117872381D01*
X85987143Y-117824762D01*
X85891905Y-117729524D01*
X85844286Y-117634286D01*
X85796667Y-117443810D01*
X85796667Y-117300952D01*
X85844286Y-117110476D01*
X85891905Y-117015238D01*
X85987143Y-116920000D01*
X86130001Y-116872381D01*
X86225239Y-116872381D01*
X86368096Y-116920000D01*
X86415715Y-116967619D01*
X87034762Y-116872381D02*
X87225239Y-116872381D01*
X87320477Y-116920000D01*
X87415715Y-117015238D01*
X87463334Y-117205714D01*
X87463334Y-117539048D01*
X87415715Y-117729524D01*
X87320477Y-117824762D01*
X87225239Y-117872381D01*
X87034762Y-117872381D01*
X86939524Y-117824762D01*
X86844286Y-117729524D01*
X86796667Y-117539048D01*
X86796667Y-117205714D01*
X86844286Y-117015238D01*
X86939524Y-116920000D01*
X87034762Y-116872381D01*
X87891905Y-117872381D02*
X87891905Y-116872381D01*
X88463334Y-117872381D01*
X88463334Y-116872381D01*
X89463334Y-117872381D02*
X88891905Y-117872381D01*
X89177619Y-117872381D02*
X89177619Y-116872381D01*
X89082381Y-117015238D01*
X88987143Y-117110476D01*
X88891905Y-117158095D01*
X58621667Y-56092381D02*
X58621667Y-56806667D01*
X58574047Y-56949524D01*
X58478809Y-57044762D01*
X58335952Y-57092381D01*
X58240714Y-57092381D01*
X59621667Y-57092381D02*
X59050238Y-57092381D01*
X59335952Y-57092381D02*
X59335952Y-56092381D01*
X59240714Y-56235238D01*
X59145476Y-56330476D01*
X59050238Y-56378095D01*
X58621667Y-70062381D02*
X58621667Y-70776667D01*
X58574047Y-70919524D01*
X58478809Y-71014762D01*
X58335952Y-71062381D01*
X58240714Y-71062381D01*
X59050238Y-70157619D02*
X59097857Y-70110000D01*
X59193095Y-70062381D01*
X59431191Y-70062381D01*
X59526429Y-70110000D01*
X59574048Y-70157619D01*
X59621667Y-70252857D01*
X59621667Y-70348095D01*
X59574048Y-70490952D01*
X59002619Y-71062381D01*
X59621667Y-71062381D01*
X58621667Y-98002381D02*
X58621667Y-98716667D01*
X58574047Y-98859524D01*
X58478809Y-98954762D01*
X58335952Y-99002381D01*
X58240714Y-99002381D01*
X59526429Y-98335714D02*
X59526429Y-99002381D01*
X59288333Y-97954762D02*
X59050238Y-98669048D01*
X59669286Y-98669048D01*
X69048334Y-68792381D02*
X68715000Y-68316190D01*
X68476905Y-68792381D02*
X68476905Y-67792381D01*
X68857858Y-67792381D01*
X68953096Y-67840000D01*
X69000715Y-67887619D01*
X69048334Y-67982857D01*
X69048334Y-68125714D01*
X69000715Y-68220952D01*
X68953096Y-68268571D01*
X68857858Y-68316190D01*
X68476905Y-68316190D01*
X70000715Y-68792381D02*
X69429286Y-68792381D01*
X69715000Y-68792381D02*
X69715000Y-67792381D01*
X69619762Y-67935238D01*
X69524524Y-68030476D01*
X69429286Y-68078095D01*
X69048334Y-50617381D02*
X68715000Y-50141190D01*
X68476905Y-50617381D02*
X68476905Y-49617381D01*
X68857858Y-49617381D01*
X68953096Y-49665000D01*
X69000715Y-49712619D01*
X69048334Y-49807857D01*
X69048334Y-49950714D01*
X69000715Y-50045952D01*
X68953096Y-50093571D01*
X68857858Y-50141190D01*
X68476905Y-50141190D01*
X69429286Y-49712619D02*
X69476905Y-49665000D01*
X69572143Y-49617381D01*
X69810239Y-49617381D01*
X69905477Y-49665000D01*
X69953096Y-49712619D01*
X70000715Y-49807857D01*
X70000715Y-49903095D01*
X69953096Y-50045952D01*
X69381667Y-50617381D01*
X70000715Y-50617381D01*
X69048334Y-72602381D02*
X68715000Y-72126190D01*
X68476905Y-72602381D02*
X68476905Y-71602381D01*
X68857858Y-71602381D01*
X68953096Y-71650000D01*
X69000715Y-71697619D01*
X69048334Y-71792857D01*
X69048334Y-71935714D01*
X69000715Y-72030952D01*
X68953096Y-72078571D01*
X68857858Y-72126190D01*
X68476905Y-72126190D01*
X69381667Y-71602381D02*
X70000715Y-71602381D01*
X69667381Y-71983333D01*
X69810239Y-71983333D01*
X69905477Y-72030952D01*
X69953096Y-72078571D01*
X70000715Y-72173810D01*
X70000715Y-72411905D01*
X69953096Y-72507143D01*
X69905477Y-72554762D01*
X69810239Y-72602381D01*
X69524524Y-72602381D01*
X69429286Y-72554762D01*
X69381667Y-72507143D01*
X69048334Y-87842381D02*
X68715000Y-87366190D01*
X68476905Y-87842381D02*
X68476905Y-86842381D01*
X68857858Y-86842381D01*
X68953096Y-86890000D01*
X69000715Y-86937619D01*
X69048334Y-87032857D01*
X69048334Y-87175714D01*
X69000715Y-87270952D01*
X68953096Y-87318571D01*
X68857858Y-87366190D01*
X68476905Y-87366190D01*
X69905477Y-87175714D02*
X69905477Y-87842381D01*
X69667381Y-86794762D02*
X69429286Y-87509048D01*
X70048334Y-87509048D01*
X69048334Y-84032381D02*
X68715000Y-83556190D01*
X68476905Y-84032381D02*
X68476905Y-83032381D01*
X68857858Y-83032381D01*
X68953096Y-83080000D01*
X69000715Y-83127619D01*
X69048334Y-83222857D01*
X69048334Y-83365714D01*
X69000715Y-83460952D01*
X68953096Y-83508571D01*
X68857858Y-83556190D01*
X68476905Y-83556190D01*
X69953096Y-83032381D02*
X69476905Y-83032381D01*
X69429286Y-83508571D01*
X69476905Y-83460952D01*
X69572143Y-83413333D01*
X69810239Y-83413333D01*
X69905477Y-83460952D01*
X69953096Y-83508571D01*
X70000715Y-83603810D01*
X70000715Y-83841905D01*
X69953096Y-83937143D01*
X69905477Y-83984762D01*
X69810239Y-84032381D01*
X69572143Y-84032381D01*
X69476905Y-83984762D01*
X69429286Y-83937143D01*
X69048334Y-100542381D02*
X68715000Y-100066190D01*
X68476905Y-100542381D02*
X68476905Y-99542381D01*
X68857858Y-99542381D01*
X68953096Y-99590000D01*
X69000715Y-99637619D01*
X69048334Y-99732857D01*
X69048334Y-99875714D01*
X69000715Y-99970952D01*
X68953096Y-100018571D01*
X68857858Y-100066190D01*
X68476905Y-100066190D01*
X69905477Y-99542381D02*
X69715000Y-99542381D01*
X69619762Y-99590000D01*
X69572143Y-99637619D01*
X69476905Y-99780476D01*
X69429286Y-99970952D01*
X69429286Y-100351905D01*
X69476905Y-100447143D01*
X69524524Y-100494762D01*
X69619762Y-100542381D01*
X69810239Y-100542381D01*
X69905477Y-100494762D01*
X69953096Y-100447143D01*
X70000715Y-100351905D01*
X70000715Y-100113810D01*
X69953096Y-100018571D01*
X69905477Y-99970952D01*
X69810239Y-99923333D01*
X69619762Y-99923333D01*
X69524524Y-99970952D01*
X69476905Y-100018571D01*
X69429286Y-100113810D01*
X69048334Y-96732381D02*
X68715000Y-96256190D01*
X68476905Y-96732381D02*
X68476905Y-95732381D01*
X68857858Y-95732381D01*
X68953096Y-95780000D01*
X69000715Y-95827619D01*
X69048334Y-95922857D01*
X69048334Y-96065714D01*
X69000715Y-96160952D01*
X68953096Y-96208571D01*
X68857858Y-96256190D01*
X68476905Y-96256190D01*
X69381667Y-95732381D02*
X70048334Y-95732381D01*
X69619762Y-96732381D01*
X69048334Y-58632381D02*
X68715000Y-58156190D01*
X68476905Y-58632381D02*
X68476905Y-57632381D01*
X68857858Y-57632381D01*
X68953096Y-57680000D01*
X69000715Y-57727619D01*
X69048334Y-57822857D01*
X69048334Y-57965714D01*
X69000715Y-58060952D01*
X68953096Y-58108571D01*
X68857858Y-58156190D01*
X68476905Y-58156190D01*
X69619762Y-58060952D02*
X69524524Y-58013333D01*
X69476905Y-57965714D01*
X69429286Y-57870476D01*
X69429286Y-57822857D01*
X69476905Y-57727619D01*
X69524524Y-57680000D01*
X69619762Y-57632381D01*
X69810239Y-57632381D01*
X69905477Y-57680000D01*
X69953096Y-57727619D01*
X70000715Y-57822857D01*
X70000715Y-57870476D01*
X69953096Y-57965714D01*
X69905477Y-58013333D01*
X69810239Y-58060952D01*
X69619762Y-58060952D01*
X69524524Y-58108571D01*
X69476905Y-58156190D01*
X69429286Y-58251429D01*
X69429286Y-58441905D01*
X69476905Y-58537143D01*
X69524524Y-58584762D01*
X69619762Y-58632381D01*
X69810239Y-58632381D01*
X69905477Y-58584762D01*
X69953096Y-58537143D01*
X70000715Y-58441905D01*
X70000715Y-58251429D01*
X69953096Y-58156190D01*
X69905477Y-58108571D01*
X69810239Y-58060952D01*
X56092381Y-89542857D02*
X55616190Y-89876191D01*
X56092381Y-90114286D02*
X55092381Y-90114286D01*
X55092381Y-89733333D01*
X55140000Y-89638095D01*
X55187619Y-89590476D01*
X55282857Y-89542857D01*
X55425714Y-89542857D01*
X55520952Y-89590476D01*
X55568571Y-89638095D01*
X55616190Y-89733333D01*
X55616190Y-90114286D01*
X56092381Y-88590476D02*
X56092381Y-89161905D01*
X56092381Y-88876191D02*
X55092381Y-88876191D01*
X55235238Y-88971429D01*
X55330476Y-89066667D01*
X55378095Y-89161905D01*
X55425714Y-87733333D02*
X56092381Y-87733333D01*
X55044762Y-87971429D02*
X55759048Y-88209524D01*
X55759048Y-87590476D01*
X78262381Y-55105238D02*
X77786190Y-55438572D01*
X78262381Y-55676667D02*
X77262381Y-55676667D01*
X77262381Y-55295714D01*
X77310000Y-55200476D01*
X77357619Y-55152857D01*
X77452857Y-55105238D01*
X77595714Y-55105238D01*
X77690952Y-55152857D01*
X77738571Y-55200476D01*
X77786190Y-55295714D01*
X77786190Y-55676667D01*
X77262381Y-54819524D02*
X78262381Y-54486191D01*
X77262381Y-54152857D01*
X78262381Y-53295714D02*
X78262381Y-53867143D01*
X78262381Y-53581429D02*
X77262381Y-53581429D01*
X77405238Y-53676667D01*
X77500476Y-53771905D01*
X77548095Y-53867143D01*
X81862381Y-55876666D02*
X81862381Y-56448095D01*
X81862381Y-56162381D02*
X80862381Y-56162381D01*
X81005238Y-56257619D01*
X81100476Y-56352857D01*
X81148095Y-56448095D01*
X80862381Y-55257619D02*
X80862381Y-55162380D01*
X80910000Y-55067142D01*
X80957619Y-55019523D01*
X81052857Y-54971904D01*
X81243333Y-54924285D01*
X81481429Y-54924285D01*
X81671905Y-54971904D01*
X81767143Y-55019523D01*
X81814762Y-55067142D01*
X81862381Y-55162380D01*
X81862381Y-55257619D01*
X81814762Y-55352857D01*
X81767143Y-55400476D01*
X81671905Y-55448095D01*
X81481429Y-55495714D01*
X81243333Y-55495714D01*
X81052857Y-55448095D01*
X80957619Y-55400476D01*
X80910000Y-55352857D01*
X80862381Y-55257619D01*
X80862381Y-54305238D02*
X80862381Y-54209999D01*
X80910000Y-54114761D01*
X80957619Y-54067142D01*
X81052857Y-54019523D01*
X81243333Y-53971904D01*
X81481429Y-53971904D01*
X81671905Y-54019523D01*
X81767143Y-54067142D01*
X81814762Y-54114761D01*
X81862381Y-54209999D01*
X81862381Y-54305238D01*
X81814762Y-54400476D01*
X81767143Y-54448095D01*
X81671905Y-54495714D01*
X81481429Y-54543333D01*
X81243333Y-54543333D01*
X81052857Y-54495714D01*
X80957619Y-54448095D01*
X80910000Y-54400476D01*
X80862381Y-54305238D01*
X81862381Y-53543333D02*
X80862381Y-53543333D01*
X81862381Y-52971904D02*
X81290952Y-53400476D01*
X80862381Y-52971904D02*
X81433810Y-53543333D01*
X78262381Y-69075238D02*
X77786190Y-69408572D01*
X78262381Y-69646667D02*
X77262381Y-69646667D01*
X77262381Y-69265714D01*
X77310000Y-69170476D01*
X77357619Y-69122857D01*
X77452857Y-69075238D01*
X77595714Y-69075238D01*
X77690952Y-69122857D01*
X77738571Y-69170476D01*
X77786190Y-69265714D01*
X77786190Y-69646667D01*
X77262381Y-68789524D02*
X78262381Y-68456191D01*
X77262381Y-68122857D01*
X77357619Y-67837143D02*
X77310000Y-67789524D01*
X77262381Y-67694286D01*
X77262381Y-67456190D01*
X77310000Y-67360952D01*
X77357619Y-67313333D01*
X77452857Y-67265714D01*
X77548095Y-67265714D01*
X77690952Y-67313333D01*
X78262381Y-67884762D01*
X78262381Y-67265714D01*
X81862381Y-69846666D02*
X81862381Y-70418095D01*
X81862381Y-70132381D02*
X80862381Y-70132381D01*
X81005238Y-70227619D01*
X81100476Y-70322857D01*
X81148095Y-70418095D01*
X80862381Y-69227619D02*
X80862381Y-69132380D01*
X80910000Y-69037142D01*
X80957619Y-68989523D01*
X81052857Y-68941904D01*
X81243333Y-68894285D01*
X81481429Y-68894285D01*
X81671905Y-68941904D01*
X81767143Y-68989523D01*
X81814762Y-69037142D01*
X81862381Y-69132380D01*
X81862381Y-69227619D01*
X81814762Y-69322857D01*
X81767143Y-69370476D01*
X81671905Y-69418095D01*
X81481429Y-69465714D01*
X81243333Y-69465714D01*
X81052857Y-69418095D01*
X80957619Y-69370476D01*
X80910000Y-69322857D01*
X80862381Y-69227619D01*
X80862381Y-68275238D02*
X80862381Y-68179999D01*
X80910000Y-68084761D01*
X80957619Y-68037142D01*
X81052857Y-67989523D01*
X81243333Y-67941904D01*
X81481429Y-67941904D01*
X81671905Y-67989523D01*
X81767143Y-68037142D01*
X81814762Y-68084761D01*
X81862381Y-68179999D01*
X81862381Y-68275238D01*
X81814762Y-68370476D01*
X81767143Y-68418095D01*
X81671905Y-68465714D01*
X81481429Y-68513333D01*
X81243333Y-68513333D01*
X81052857Y-68465714D01*
X80957619Y-68418095D01*
X80910000Y-68370476D01*
X80862381Y-68275238D01*
X81862381Y-67513333D02*
X80862381Y-67513333D01*
X81862381Y-66941904D02*
X81290952Y-67370476D01*
X80862381Y-66941904D02*
X81433810Y-67513333D01*
X78262381Y-83045238D02*
X77786190Y-83378572D01*
X78262381Y-83616667D02*
X77262381Y-83616667D01*
X77262381Y-83235714D01*
X77310000Y-83140476D01*
X77357619Y-83092857D01*
X77452857Y-83045238D01*
X77595714Y-83045238D01*
X77690952Y-83092857D01*
X77738571Y-83140476D01*
X77786190Y-83235714D01*
X77786190Y-83616667D01*
X77262381Y-82759524D02*
X78262381Y-82426191D01*
X77262381Y-82092857D01*
X77262381Y-81854762D02*
X77262381Y-81235714D01*
X77643333Y-81569048D01*
X77643333Y-81426190D01*
X77690952Y-81330952D01*
X77738571Y-81283333D01*
X77833810Y-81235714D01*
X78071905Y-81235714D01*
X78167143Y-81283333D01*
X78214762Y-81330952D01*
X78262381Y-81426190D01*
X78262381Y-81711905D01*
X78214762Y-81807143D01*
X78167143Y-81854762D01*
X81862381Y-83816666D02*
X81862381Y-84388095D01*
X81862381Y-84102381D02*
X80862381Y-84102381D01*
X81005238Y-84197619D01*
X81100476Y-84292857D01*
X81148095Y-84388095D01*
X80862381Y-83197619D02*
X80862381Y-83102380D01*
X80910000Y-83007142D01*
X80957619Y-82959523D01*
X81052857Y-82911904D01*
X81243333Y-82864285D01*
X81481429Y-82864285D01*
X81671905Y-82911904D01*
X81767143Y-82959523D01*
X81814762Y-83007142D01*
X81862381Y-83102380D01*
X81862381Y-83197619D01*
X81814762Y-83292857D01*
X81767143Y-83340476D01*
X81671905Y-83388095D01*
X81481429Y-83435714D01*
X81243333Y-83435714D01*
X81052857Y-83388095D01*
X80957619Y-83340476D01*
X80910000Y-83292857D01*
X80862381Y-83197619D01*
X80862381Y-82245238D02*
X80862381Y-82149999D01*
X80910000Y-82054761D01*
X80957619Y-82007142D01*
X81052857Y-81959523D01*
X81243333Y-81911904D01*
X81481429Y-81911904D01*
X81671905Y-81959523D01*
X81767143Y-82007142D01*
X81814762Y-82054761D01*
X81862381Y-82149999D01*
X81862381Y-82245238D01*
X81814762Y-82340476D01*
X81767143Y-82388095D01*
X81671905Y-82435714D01*
X81481429Y-82483333D01*
X81243333Y-82483333D01*
X81052857Y-82435714D01*
X80957619Y-82388095D01*
X80910000Y-82340476D01*
X80862381Y-82245238D01*
X81862381Y-81483333D02*
X80862381Y-81483333D01*
X81862381Y-80911904D02*
X81290952Y-81340476D01*
X80862381Y-80911904D02*
X81433810Y-81483333D01*
X78262381Y-97015238D02*
X77786190Y-97348572D01*
X78262381Y-97586667D02*
X77262381Y-97586667D01*
X77262381Y-97205714D01*
X77310000Y-97110476D01*
X77357619Y-97062857D01*
X77452857Y-97015238D01*
X77595714Y-97015238D01*
X77690952Y-97062857D01*
X77738571Y-97110476D01*
X77786190Y-97205714D01*
X77786190Y-97586667D01*
X77262381Y-96729524D02*
X78262381Y-96396191D01*
X77262381Y-96062857D01*
X77595714Y-95300952D02*
X78262381Y-95300952D01*
X77214762Y-95539048D02*
X77929048Y-95777143D01*
X77929048Y-95158095D01*
X81862381Y-97786666D02*
X81862381Y-98358095D01*
X81862381Y-98072381D02*
X80862381Y-98072381D01*
X81005238Y-98167619D01*
X81100476Y-98262857D01*
X81148095Y-98358095D01*
X80862381Y-97167619D02*
X80862381Y-97072380D01*
X80910000Y-96977142D01*
X80957619Y-96929523D01*
X81052857Y-96881904D01*
X81243333Y-96834285D01*
X81481429Y-96834285D01*
X81671905Y-96881904D01*
X81767143Y-96929523D01*
X81814762Y-96977142D01*
X81862381Y-97072380D01*
X81862381Y-97167619D01*
X81814762Y-97262857D01*
X81767143Y-97310476D01*
X81671905Y-97358095D01*
X81481429Y-97405714D01*
X81243333Y-97405714D01*
X81052857Y-97358095D01*
X80957619Y-97310476D01*
X80910000Y-97262857D01*
X80862381Y-97167619D01*
X80862381Y-96215238D02*
X80862381Y-96119999D01*
X80910000Y-96024761D01*
X80957619Y-95977142D01*
X81052857Y-95929523D01*
X81243333Y-95881904D01*
X81481429Y-95881904D01*
X81671905Y-95929523D01*
X81767143Y-95977142D01*
X81814762Y-96024761D01*
X81862381Y-96119999D01*
X81862381Y-96215238D01*
X81814762Y-96310476D01*
X81767143Y-96358095D01*
X81671905Y-96405714D01*
X81481429Y-96453333D01*
X81243333Y-96453333D01*
X81052857Y-96405714D01*
X80957619Y-96358095D01*
X80910000Y-96310476D01*
X80862381Y-96215238D01*
X81862381Y-95453333D02*
X80862381Y-95453333D01*
X81862381Y-94881904D02*
X81290952Y-95310476D01*
X80862381Y-94881904D02*
X81433810Y-95453333D01*
X54546667Y-111834762D02*
X54689524Y-111882381D01*
X54927620Y-111882381D01*
X55022858Y-111834762D01*
X55070477Y-111787143D01*
X55118096Y-111691905D01*
X55118096Y-111596667D01*
X55070477Y-111501429D01*
X55022858Y-111453810D01*
X54927620Y-111406190D01*
X54737143Y-111358571D01*
X54641905Y-111310952D01*
X54594286Y-111263333D01*
X54546667Y-111168095D01*
X54546667Y-111072857D01*
X54594286Y-110977619D01*
X54641905Y-110930000D01*
X54737143Y-110882381D01*
X54975239Y-110882381D01*
X55118096Y-110930000D01*
X55451429Y-110882381D02*
X55689524Y-111882381D01*
X55880001Y-111168095D01*
X56070477Y-111882381D01*
X56308572Y-110882381D01*
X57213334Y-111882381D02*
X56641905Y-111882381D01*
X56927619Y-111882381D02*
X56927619Y-110882381D01*
X56832381Y-111025238D01*
X56737143Y-111120476D01*
X56641905Y-111168095D01*
X75504762Y-112643333D02*
X75552381Y-112500476D01*
X75552381Y-112262380D01*
X75504762Y-112167142D01*
X75457143Y-112119523D01*
X75361905Y-112071904D01*
X75266667Y-112071904D01*
X75171429Y-112119523D01*
X75123810Y-112167142D01*
X75076190Y-112262380D01*
X75028571Y-112452857D01*
X74980952Y-112548095D01*
X74933333Y-112595714D01*
X74838095Y-112643333D01*
X74742857Y-112643333D01*
X74647619Y-112595714D01*
X74600000Y-112548095D01*
X74552381Y-112452857D01*
X74552381Y-112214761D01*
X74600000Y-112071904D01*
X74552381Y-111738571D02*
X75552381Y-111500476D01*
X74838095Y-111309999D01*
X75552381Y-111119523D01*
X74552381Y-110881428D01*
X74647619Y-110548095D02*
X74600000Y-110500476D01*
X74552381Y-110405238D01*
X74552381Y-110167142D01*
X74600000Y-110071904D01*
X74647619Y-110024285D01*
X74742857Y-109976666D01*
X74838095Y-109976666D01*
X74980952Y-110024285D01*
X75552381Y-110595714D01*
X75552381Y-109976666D01*
X78052381Y-116638573D02*
X77052381Y-116638573D01*
X77052381Y-116257620D01*
X77100000Y-116162382D01*
X77147619Y-116114763D01*
X77242857Y-116067144D01*
X77385714Y-116067144D01*
X77480952Y-116114763D01*
X77528571Y-116162382D01*
X77576190Y-116257620D01*
X77576190Y-116638573D01*
X78052381Y-115495716D02*
X78004762Y-115590954D01*
X77957143Y-115638573D01*
X77861905Y-115686192D01*
X77576190Y-115686192D01*
X77480952Y-115638573D01*
X77433333Y-115590954D01*
X77385714Y-115495716D01*
X77385714Y-115352858D01*
X77433333Y-115257620D01*
X77480952Y-115210001D01*
X77576190Y-115162382D01*
X77861905Y-115162382D01*
X77957143Y-115210001D01*
X78004762Y-115257620D01*
X78052381Y-115352858D01*
X78052381Y-115495716D01*
X77385714Y-114829049D02*
X78052381Y-114638573D01*
X77576190Y-114448096D01*
X78052381Y-114257620D01*
X77385714Y-114067144D01*
X78004762Y-113305239D02*
X78052381Y-113400477D01*
X78052381Y-113590954D01*
X78004762Y-113686192D01*
X77909524Y-113733811D01*
X77528571Y-113733811D01*
X77433333Y-113686192D01*
X77385714Y-113590954D01*
X77385714Y-113400477D01*
X77433333Y-113305239D01*
X77528571Y-113257620D01*
X77623810Y-113257620D01*
X77719048Y-113733811D01*
X78052381Y-112829049D02*
X77385714Y-112829049D01*
X77576190Y-112829049D02*
X77480952Y-112781430D01*
X77433333Y-112733811D01*
X77385714Y-112638573D01*
X77385714Y-112543334D01*
X78004762Y-111495715D02*
X78052381Y-111352858D01*
X78052381Y-111114762D01*
X78004762Y-111019524D01*
X77957143Y-110971905D01*
X77861905Y-110924286D01*
X77766667Y-110924286D01*
X77671429Y-110971905D01*
X77623810Y-111019524D01*
X77576190Y-111114762D01*
X77528571Y-111305239D01*
X77480952Y-111400477D01*
X77433333Y-111448096D01*
X77338095Y-111495715D01*
X77242857Y-111495715D01*
X77147619Y-111448096D01*
X77100000Y-111400477D01*
X77052381Y-111305239D01*
X77052381Y-111067143D01*
X77100000Y-110924286D01*
X78004762Y-110114762D02*
X78052381Y-110210000D01*
X78052381Y-110400477D01*
X78004762Y-110495715D01*
X77909524Y-110543334D01*
X77528571Y-110543334D01*
X77433333Y-110495715D01*
X77385714Y-110400477D01*
X77385714Y-110210000D01*
X77433333Y-110114762D01*
X77528571Y-110067143D01*
X77623810Y-110067143D01*
X77719048Y-110543334D01*
X78052381Y-109495715D02*
X78004762Y-109590953D01*
X77909524Y-109638572D01*
X77052381Y-109638572D01*
X78004762Y-108733809D02*
X78052381Y-108829047D01*
X78052381Y-109019524D01*
X78004762Y-109114762D01*
X77909524Y-109162381D01*
X77528571Y-109162381D01*
X77433333Y-109114762D01*
X77385714Y-109019524D01*
X77385714Y-108829047D01*
X77433333Y-108733809D01*
X77528571Y-108686190D01*
X77623810Y-108686190D01*
X77719048Y-109162381D01*
X78004762Y-107829047D02*
X78052381Y-107924285D01*
X78052381Y-108114762D01*
X78004762Y-108210000D01*
X77957143Y-108257619D01*
X77861905Y-108305238D01*
X77576190Y-108305238D01*
X77480952Y-108257619D01*
X77433333Y-108210000D01*
X77385714Y-108114762D01*
X77385714Y-107924285D01*
X77433333Y-107829047D01*
X77385714Y-107543333D02*
X77385714Y-107162381D01*
X77052381Y-107400476D02*
X77909524Y-107400476D01*
X78004762Y-107352857D01*
X78052381Y-107257619D01*
X78052381Y-107162381D01*
X78052381Y-106686190D02*
X78004762Y-106781428D01*
X77957143Y-106829047D01*
X77861905Y-106876666D01*
X77576190Y-106876666D01*
X77480952Y-106829047D01*
X77433333Y-106781428D01*
X77385714Y-106686190D01*
X77385714Y-106543332D01*
X77433333Y-106448094D01*
X77480952Y-106400475D01*
X77576190Y-106352856D01*
X77861905Y-106352856D01*
X77957143Y-106400475D01*
X78004762Y-106448094D01*
X78052381Y-106543332D01*
X78052381Y-106686190D01*
X78052381Y-105924285D02*
X77385714Y-105924285D01*
X77576190Y-105924285D02*
X77480952Y-105876666D01*
X77433333Y-105829047D01*
X77385714Y-105733809D01*
X77385714Y-105638570D01*
X87566667Y-48521881D02*
X87233333Y-48045690D01*
X86995238Y-48521881D02*
X86995238Y-47521881D01*
X87376191Y-47521881D01*
X87471429Y-47569500D01*
X87519048Y-47617119D01*
X87566667Y-47712357D01*
X87566667Y-47855214D01*
X87519048Y-47950452D01*
X87471429Y-47998071D01*
X87376191Y-48045690D01*
X86995238Y-48045690D01*
X87995238Y-47998071D02*
X88328572Y-47998071D01*
X88471429Y-48521881D02*
X87995238Y-48521881D01*
X87995238Y-47521881D01*
X88471429Y-47521881D01*
X89233334Y-47998071D02*
X88900000Y-47998071D01*
X88900000Y-48521881D02*
X88900000Y-47521881D01*
X89376191Y-47521881D01*
X89900000Y-47521881D02*
X89900000Y-47759976D01*
X89661905Y-47664738D02*
X89900000Y-47759976D01*
X90138096Y-47664738D01*
X89757143Y-47950452D02*
X89900000Y-47759976D01*
X90042858Y-47950452D01*
X90661905Y-47521881D02*
X90661905Y-47759976D01*
X90423810Y-47664738D02*
X90661905Y-47759976D01*
X90900001Y-47664738D01*
X90519048Y-47950452D02*
X90661905Y-47759976D01*
X90804763Y-47950452D01*
X87566667Y-91066881D02*
X87233333Y-90590690D01*
X86995238Y-91066881D02*
X86995238Y-90066881D01*
X87376191Y-90066881D01*
X87471429Y-90114500D01*
X87519048Y-90162119D01*
X87566667Y-90257357D01*
X87566667Y-90400214D01*
X87519048Y-90495452D01*
X87471429Y-90543071D01*
X87376191Y-90590690D01*
X86995238Y-90590690D01*
X87995238Y-90543071D02*
X88328572Y-90543071D01*
X88471429Y-91066881D02*
X87995238Y-91066881D01*
X87995238Y-90066881D01*
X88471429Y-90066881D01*
X89233334Y-90543071D02*
X88900000Y-90543071D01*
X88900000Y-91066881D02*
X88900000Y-90066881D01*
X89376191Y-90066881D01*
X89900000Y-90066881D02*
X89900000Y-90304976D01*
X89661905Y-90209738D02*
X89900000Y-90304976D01*
X90138096Y-90209738D01*
X89757143Y-90495452D02*
X89900000Y-90304976D01*
X90042858Y-90495452D01*
X90661905Y-90066881D02*
X90661905Y-90304976D01*
X90423810Y-90209738D02*
X90661905Y-90304976D01*
X90900001Y-90209738D01*
X90519048Y-90495452D02*
X90661905Y-90304976D01*
X90804763Y-90495452D01*
X67881667Y-58046881D02*
X67548333Y-57570690D01*
X67310238Y-58046881D02*
X67310238Y-57046881D01*
X67691191Y-57046881D01*
X67786429Y-57094500D01*
X67834048Y-57142119D01*
X67881667Y-57237357D01*
X67881667Y-57380214D01*
X67834048Y-57475452D01*
X67786429Y-57523071D01*
X67691191Y-57570690D01*
X67310238Y-57570690D01*
X68310238Y-57523071D02*
X68643572Y-57523071D01*
X68786429Y-58046881D02*
X68310238Y-58046881D01*
X68310238Y-57046881D01*
X68786429Y-57046881D01*
X69548334Y-57523071D02*
X69215000Y-57523071D01*
X69215000Y-58046881D02*
X69215000Y-57046881D01*
X69691191Y-57046881D01*
X70215000Y-57046881D02*
X70215000Y-57284976D01*
X69976905Y-57189738D02*
X70215000Y-57284976D01*
X70453096Y-57189738D01*
X70072143Y-57475452D02*
X70215000Y-57284976D01*
X70357858Y-57475452D01*
X70976905Y-57046881D02*
X70976905Y-57284976D01*
X70738810Y-57189738D02*
X70976905Y-57284976D01*
X71215001Y-57189738D01*
X70834048Y-57475452D02*
X70976905Y-57284976D01*
X71119763Y-57475452D01*
%LPC*%
D13*
X52955000Y-107580000D03*
X55355000Y-104680000D03*
X60855000Y-104680000D03*
X64555000Y-107580000D03*
X59055000Y-107580000D03*
X52955000Y-83450000D03*
X55355000Y-80550000D03*
X60855000Y-80550000D03*
X64555000Y-83450000D03*
X59055000Y-83450000D03*
D14*
X53975000Y-99465000D03*
X53975000Y-102465000D03*
X87630000Y-112220000D03*
D15*
X92330000Y-109220000D03*
D14*
X87630000Y-106220000D03*
D13*
X52955000Y-54240000D03*
X55355000Y-51340000D03*
X60855000Y-51340000D03*
X64555000Y-54240000D03*
X59055000Y-54240000D03*
X52955000Y-68210000D03*
X55355000Y-65310000D03*
X60855000Y-65310000D03*
X64555000Y-68210000D03*
X59055000Y-68210000D03*
X52955000Y-96150000D03*
X55355000Y-93250000D03*
X60855000Y-93250000D03*
X64555000Y-96150000D03*
X59055000Y-96150000D03*
D16*
X67905900Y-114007460D03*
X62905900Y-114007460D03*
D17*
X68905900Y-116707460D03*
X61905900Y-116707460D03*
D18*
X70665000Y-66040000D03*
X67765000Y-66040000D03*
X70665000Y-52070000D03*
X67765000Y-52070000D03*
X70665000Y-69850000D03*
X67765000Y-69850000D03*
X70665000Y-85090000D03*
X67765000Y-85090000D03*
X70665000Y-81280000D03*
X67765000Y-81280000D03*
X70665000Y-97790000D03*
X67765000Y-97790000D03*
X70665000Y-93980000D03*
X67765000Y-93980000D03*
X70665000Y-55880000D03*
X67765000Y-55880000D03*
D19*
X53340000Y-87450000D03*
X53340000Y-90350000D03*
D20*
X80010000Y-54610000D03*
X80010000Y-50860000D03*
X80010000Y-58360000D03*
X75010000Y-50860000D03*
X75010000Y-54610000D03*
X75010000Y-58360000D03*
X80010000Y-68580000D03*
X80010000Y-64830000D03*
X80010000Y-72330000D03*
X75010000Y-64830000D03*
X75010000Y-68580000D03*
X75010000Y-72330000D03*
X80010000Y-82550000D03*
X80010000Y-78800000D03*
X80010000Y-86300000D03*
X75010000Y-78800000D03*
X75010000Y-82550000D03*
X75010000Y-86300000D03*
X80010000Y-96520000D03*
X80010000Y-92770000D03*
X80010000Y-100270000D03*
X75010000Y-92770000D03*
X75010000Y-96520000D03*
X75010000Y-100270000D03*
D21*
X58420000Y-113030000D03*
X55880000Y-113030000D03*
X53340000Y-113030000D03*
X53340000Y-115570000D03*
X58420000Y-115570000D03*
D22*
X80890000Y-105410000D03*
X76200000Y-105410000D03*
X71510000Y-105410000D03*
D23*
X78740000Y-118110000D03*
X73660000Y-118110000D03*
M02*
