G04 #@! TF.FileFunction,Copper,L2,Bot,Signal*
%FSLAX46Y46*%
G04 Gerber Fmt 4.6, Leading zero omitted, Abs format (unit mm)*
G04 Created by KiCad (PCBNEW 4.0.1-stable) date Tuesday, February 09, 2016 'PMt' 03:50:34 PM*
%MOMM*%
G01*
G04 APERTURE LIST*
%ADD10C,0.100000*%
%ADD11C,0.300000*%
%ADD12R,1.200000X2.200000*%
%ADD13R,1.000000X1.600000*%
%ADD14R,1.600000X1.000000*%
%ADD15R,0.590000X0.450000*%
%ADD16R,0.450000X0.590000*%
%ADD17R,0.797560X0.797560*%
%ADD18R,1.220000X0.910000*%
%ADD19R,0.700000X1.300000*%
%ADD20R,0.400000X1.350000*%
%ADD21O,1.250000X0.950000*%
%ADD22O,1.000000X1.550000*%
%ADD23R,0.900000X1.700000*%
%ADD24R,1.700000X0.900000*%
%ADD25C,1.500000*%
%ADD26C,1.300000*%
%ADD27R,1.000000X1.500000*%
%ADD28R,1.500000X1.000000*%
%ADD29R,1.371600X0.457200*%
%ADD30C,0.600000*%
%ADD31C,0.250000*%
%ADD32C,0.254000*%
G04 APERTURE END LIST*
D10*
D11*
X89507143Y-89203571D02*
X89578571Y-88989285D01*
X89578571Y-88632142D01*
X89507143Y-88489285D01*
X89435714Y-88417856D01*
X89292857Y-88346428D01*
X89150000Y-88346428D01*
X89007143Y-88417856D01*
X88935714Y-88489285D01*
X88864286Y-88632142D01*
X88792857Y-88917856D01*
X88721429Y-89060714D01*
X88650000Y-89132142D01*
X88507143Y-89203571D01*
X88364286Y-89203571D01*
X88221429Y-89132142D01*
X88150000Y-89060714D01*
X88078571Y-88917856D01*
X88078571Y-88560714D01*
X88150000Y-88346428D01*
X88578571Y-87917857D02*
X88578571Y-87346428D01*
X88078571Y-87703571D02*
X89364286Y-87703571D01*
X89507143Y-87632143D01*
X89578571Y-87489285D01*
X89578571Y-87346428D01*
X89507143Y-86275000D02*
X89578571Y-86417857D01*
X89578571Y-86703571D01*
X89507143Y-86846428D01*
X89364286Y-86917857D01*
X88792857Y-86917857D01*
X88650000Y-86846428D01*
X88578571Y-86703571D01*
X88578571Y-86417857D01*
X88650000Y-86275000D01*
X88792857Y-86203571D01*
X88935714Y-86203571D01*
X89078571Y-86917857D01*
X88578571Y-85560714D02*
X90078571Y-85560714D01*
X88650000Y-85560714D02*
X88578571Y-85417857D01*
X88578571Y-85132143D01*
X88650000Y-84989286D01*
X88721429Y-84917857D01*
X88864286Y-84846428D01*
X89292857Y-84846428D01*
X89435714Y-84917857D01*
X89507143Y-84989286D01*
X89578571Y-85132143D01*
X89578571Y-85417857D01*
X89507143Y-85560714D01*
X89578571Y-84203571D02*
X88078571Y-84203571D01*
X89578571Y-83560714D02*
X88792857Y-83560714D01*
X88650000Y-83632143D01*
X88578571Y-83775000D01*
X88578571Y-83989285D01*
X88650000Y-84132143D01*
X88721429Y-84203571D01*
X89507143Y-82275000D02*
X89578571Y-82417857D01*
X89578571Y-82703571D01*
X89507143Y-82846428D01*
X89364286Y-82917857D01*
X88792857Y-82917857D01*
X88650000Y-82846428D01*
X88578571Y-82703571D01*
X88578571Y-82417857D01*
X88650000Y-82275000D01*
X88792857Y-82203571D01*
X88935714Y-82203571D01*
X89078571Y-82917857D01*
X88578571Y-81560714D02*
X89578571Y-81560714D01*
X88721429Y-81560714D02*
X88650000Y-81489286D01*
X88578571Y-81346428D01*
X88578571Y-81132143D01*
X88650000Y-80989286D01*
X88792857Y-80917857D01*
X89578571Y-80917857D01*
X88078571Y-79203571D02*
X89578571Y-78846428D01*
X88507143Y-78560714D01*
X89578571Y-78275000D01*
X88078571Y-77917857D01*
X89578571Y-76703571D02*
X88792857Y-76703571D01*
X88650000Y-76775000D01*
X88578571Y-76917857D01*
X88578571Y-77203571D01*
X88650000Y-77346428D01*
X89507143Y-76703571D02*
X89578571Y-76846428D01*
X89578571Y-77203571D01*
X89507143Y-77346428D01*
X89364286Y-77417857D01*
X89221429Y-77417857D01*
X89078571Y-77346428D01*
X89007143Y-77203571D01*
X89007143Y-76846428D01*
X88935714Y-76703571D01*
X89578571Y-75774999D02*
X89507143Y-75917857D01*
X89364286Y-75989285D01*
X88078571Y-75989285D01*
X89578571Y-75203571D02*
X88078571Y-75203571D01*
X89007143Y-75060714D02*
X89578571Y-74632143D01*
X88578571Y-74632143D02*
X89150000Y-75203571D01*
X89507143Y-73417857D02*
X89578571Y-73560714D01*
X89578571Y-73846428D01*
X89507143Y-73989285D01*
X89364286Y-74060714D01*
X88792857Y-74060714D01*
X88650000Y-73989285D01*
X88578571Y-73846428D01*
X88578571Y-73560714D01*
X88650000Y-73417857D01*
X88792857Y-73346428D01*
X88935714Y-73346428D01*
X89078571Y-74060714D01*
X89578571Y-72703571D02*
X88578571Y-72703571D01*
X88864286Y-72703571D02*
X88721429Y-72632143D01*
X88650000Y-72560714D01*
X88578571Y-72417857D01*
X88578571Y-72275000D01*
X89007143Y-71775000D02*
X89007143Y-70632143D01*
X88078571Y-70060714D02*
X89578571Y-69703571D01*
X88507143Y-69417857D01*
X89578571Y-69132143D01*
X88078571Y-68775000D01*
X89507143Y-67632143D02*
X89578571Y-67775000D01*
X89578571Y-68060714D01*
X89507143Y-68203571D01*
X89364286Y-68275000D01*
X88792857Y-68275000D01*
X88650000Y-68203571D01*
X88578571Y-68060714D01*
X88578571Y-67775000D01*
X88650000Y-67632143D01*
X88792857Y-67560714D01*
X88935714Y-67560714D01*
X89078571Y-68275000D01*
X89578571Y-66917857D02*
X88578571Y-66917857D01*
X88078571Y-66917857D02*
X88150000Y-66989286D01*
X88221429Y-66917857D01*
X88150000Y-66846429D01*
X88078571Y-66917857D01*
X88221429Y-66917857D01*
X88578571Y-66203571D02*
X89578571Y-66203571D01*
X88721429Y-66203571D02*
X88650000Y-66132143D01*
X88578571Y-65989285D01*
X88578571Y-65775000D01*
X88650000Y-65632143D01*
X88792857Y-65560714D01*
X89578571Y-65560714D01*
X89507143Y-64917857D02*
X89578571Y-64775000D01*
X89578571Y-64489285D01*
X89507143Y-64346428D01*
X89364286Y-64275000D01*
X89292857Y-64275000D01*
X89150000Y-64346428D01*
X89078571Y-64489285D01*
X89078571Y-64703571D01*
X89007143Y-64846428D01*
X88864286Y-64917857D01*
X88792857Y-64917857D01*
X88650000Y-64846428D01*
X88578571Y-64703571D01*
X88578571Y-64489285D01*
X88650000Y-64346428D01*
X89578571Y-63632142D02*
X88078571Y-63632142D01*
X89578571Y-62989285D02*
X88792857Y-62989285D01*
X88650000Y-63060714D01*
X88578571Y-63203571D01*
X88578571Y-63417856D01*
X88650000Y-63560714D01*
X88721429Y-63632142D01*
X89507143Y-61703571D02*
X89578571Y-61846428D01*
X89578571Y-62132142D01*
X89507143Y-62274999D01*
X89364286Y-62346428D01*
X88792857Y-62346428D01*
X88650000Y-62274999D01*
X88578571Y-62132142D01*
X88578571Y-61846428D01*
X88650000Y-61703571D01*
X88792857Y-61632142D01*
X88935714Y-61632142D01*
X89078571Y-62346428D01*
X88578571Y-60989285D02*
X89578571Y-60989285D01*
X88721429Y-60989285D02*
X88650000Y-60917857D01*
X88578571Y-60774999D01*
X88578571Y-60560714D01*
X88650000Y-60417857D01*
X88792857Y-60346428D01*
X89578571Y-60346428D01*
X89578571Y-59632142D02*
X88078571Y-59632142D01*
X89007143Y-59489285D02*
X89578571Y-59060714D01*
X88578571Y-59060714D02*
X89150000Y-59632142D01*
X89507143Y-57846428D02*
X89578571Y-57989285D01*
X89578571Y-58274999D01*
X89507143Y-58417856D01*
X89364286Y-58489285D01*
X88792857Y-58489285D01*
X88650000Y-58417856D01*
X88578571Y-58274999D01*
X88578571Y-57989285D01*
X88650000Y-57846428D01*
X88792857Y-57774999D01*
X88935714Y-57774999D01*
X89078571Y-58489285D01*
X89578571Y-57132142D02*
X88578571Y-57132142D01*
X88864286Y-57132142D02*
X88721429Y-57060714D01*
X88650000Y-56989285D01*
X88578571Y-56846428D01*
X88578571Y-56703571D01*
D12*
X52955000Y-107580000D03*
X55355000Y-104680000D03*
X60855000Y-104680000D03*
X64555000Y-107580000D03*
X59055000Y-107580000D03*
X52955000Y-83450000D03*
X55355000Y-80550000D03*
X60855000Y-80550000D03*
X64555000Y-83450000D03*
X59055000Y-83450000D03*
D13*
X68985000Y-73025000D03*
X71985000Y-73025000D03*
X68985000Y-76200000D03*
X71985000Y-76200000D03*
X61190000Y-86360000D03*
X58190000Y-86360000D03*
X63905000Y-71755000D03*
X66905000Y-71755000D03*
D14*
X53340000Y-77700000D03*
X53340000Y-74700000D03*
D13*
X65635000Y-88900000D03*
X62635000Y-88900000D03*
D14*
X60325000Y-98830000D03*
X60325000Y-101830000D03*
X68580000Y-106275000D03*
X68580000Y-103275000D03*
X83820000Y-111990000D03*
X83820000Y-108990000D03*
X78740000Y-105640000D03*
X78740000Y-102640000D03*
X87630000Y-112220000D03*
D13*
X92330000Y-109220000D03*
D14*
X87630000Y-106220000D03*
D15*
X82765000Y-106680000D03*
X84875000Y-106680000D03*
D16*
X73660000Y-104990000D03*
X73660000Y-107100000D03*
D17*
X55994300Y-109220000D03*
X54495700Y-109220000D03*
D18*
X73660000Y-108220000D03*
X73660000Y-111490000D03*
D12*
X52955000Y-54240000D03*
X55355000Y-51340000D03*
X60855000Y-51340000D03*
X64555000Y-54240000D03*
X59055000Y-54240000D03*
X52955000Y-68210000D03*
X55355000Y-65310000D03*
X60855000Y-65310000D03*
X64555000Y-68210000D03*
X59055000Y-68210000D03*
X52955000Y-96150000D03*
X55355000Y-93250000D03*
X60855000Y-93250000D03*
X64555000Y-96150000D03*
X59055000Y-96150000D03*
D19*
X71435000Y-109220000D03*
X69535000Y-109220000D03*
D20*
X66705900Y-114007460D03*
X66055900Y-114007460D03*
X65405900Y-114007460D03*
X64755900Y-114007460D03*
X64105900Y-114007460D03*
D21*
X67905900Y-114007460D03*
X62905900Y-114007460D03*
D22*
X68905900Y-116707460D03*
X61905900Y-116707460D03*
D23*
X60780000Y-110490000D03*
X63680000Y-110490000D03*
D24*
X61595000Y-68400000D03*
X61595000Y-71300000D03*
D23*
X62685000Y-79375000D03*
X65585000Y-79375000D03*
D24*
X56515000Y-74750000D03*
X56515000Y-77650000D03*
D23*
X68400000Y-88900000D03*
X71300000Y-88900000D03*
D24*
X56515000Y-96340000D03*
X56515000Y-99240000D03*
X76835000Y-110670000D03*
X76835000Y-107770000D03*
X78740000Y-112850000D03*
X78740000Y-115750000D03*
X80645000Y-108405000D03*
X80645000Y-111305000D03*
D25*
X80010000Y-54610000D03*
X80010000Y-50860000D03*
X80010000Y-58360000D03*
X75010000Y-50860000D03*
X75010000Y-54610000D03*
X75010000Y-58360000D03*
X80010000Y-68580000D03*
X80010000Y-64830000D03*
X80010000Y-72330000D03*
X75010000Y-64830000D03*
X75010000Y-68580000D03*
X75010000Y-72330000D03*
X80010000Y-82550000D03*
X80010000Y-78800000D03*
X80010000Y-86300000D03*
X75010000Y-78800000D03*
X75010000Y-82550000D03*
X75010000Y-86300000D03*
X80010000Y-96520000D03*
X80010000Y-92770000D03*
X80010000Y-100270000D03*
X75010000Y-92770000D03*
X75010000Y-96520000D03*
X75010000Y-100270000D03*
D26*
X58420000Y-113030000D03*
X55880000Y-113030000D03*
X53340000Y-113030000D03*
X53340000Y-115570000D03*
X58420000Y-115570000D03*
D27*
X80890000Y-105410000D03*
X76200000Y-105410000D03*
X71510000Y-105410000D03*
D28*
X78740000Y-118110000D03*
X73660000Y-118110000D03*
D29*
X59413140Y-76530200D03*
X59413140Y-75895200D03*
X59413140Y-75234800D03*
X59413140Y-74599800D03*
X63776860Y-74599800D03*
X63776860Y-75234800D03*
X63776860Y-75895200D03*
X63776860Y-76530200D03*
X76476860Y-112699800D03*
X76476860Y-113334800D03*
X76476860Y-113995200D03*
X76476860Y-114630200D03*
X72113140Y-114630200D03*
X72113140Y-113995200D03*
X72113140Y-113334800D03*
X72113140Y-112699800D03*
D30*
X57785000Y-73660000D03*
X67945000Y-74930000D03*
X76835000Y-78105000D03*
X66675000Y-109855000D03*
X74295000Y-114935000D03*
X58420000Y-88900000D03*
X71120000Y-111125000D03*
X81280000Y-116205000D03*
X64770000Y-73660000D03*
X66040000Y-75565000D03*
X53340000Y-81280000D03*
X63500000Y-73660000D03*
X66040000Y-77470000D03*
X71120000Y-115570000D03*
X73660000Y-109855000D03*
D31*
X53340000Y-99465000D02*
X53570000Y-99465000D01*
X65100200Y-75234800D02*
X63776860Y-75234800D01*
X66905000Y-73430000D02*
X65100200Y-75234800D01*
X66905000Y-71755000D02*
X66905000Y-73430000D01*
X66905000Y-71755000D02*
X67715000Y-71755000D01*
X67715000Y-71755000D02*
X68985000Y-73025000D01*
X61595000Y-68400000D02*
X61595000Y-68580000D01*
X61595000Y-68580000D02*
X62865000Y-69850000D01*
X62865000Y-69850000D02*
X65000000Y-69850000D01*
X65000000Y-69850000D02*
X66905000Y-71755000D01*
X80010000Y-96520000D02*
X78740000Y-96520000D01*
X78105000Y-84455000D02*
X80010000Y-82550000D01*
X78105000Y-95885000D02*
X78105000Y-84455000D01*
X78740000Y-96520000D02*
X78105000Y-95885000D01*
X78105000Y-70485000D02*
X80010000Y-68580000D01*
X78105000Y-81280000D02*
X78105000Y-70485000D01*
X79375000Y-82550000D02*
X78105000Y-81280000D01*
X80010000Y-82550000D02*
X79375000Y-82550000D01*
X80010000Y-54610000D02*
X79375000Y-54610000D01*
X79375000Y-54610000D02*
X78105000Y-55880000D01*
X78105000Y-55880000D02*
X78105000Y-66675000D01*
X78105000Y-66675000D02*
X80010000Y-68580000D01*
X80010000Y-68580000D02*
X78105000Y-68580000D01*
X74525000Y-70485000D02*
X71985000Y-73025000D01*
X76200000Y-70485000D02*
X74525000Y-70485000D01*
X78105000Y-68580000D02*
X76200000Y-70485000D01*
X68985000Y-76200000D02*
X68985000Y-75970000D01*
X68985000Y-75970000D02*
X67945000Y-74930000D01*
X57785000Y-73660000D02*
X56695000Y-74750000D01*
X56695000Y-74750000D02*
X56515000Y-74750000D01*
X68985000Y-76200000D02*
X68580000Y-76200000D01*
X56515000Y-74750000D02*
X56515000Y-74930000D01*
X56515000Y-74930000D02*
X57480200Y-75895200D01*
X57480200Y-75895200D02*
X59413140Y-75895200D01*
X53340000Y-74700000D02*
X56465000Y-74700000D01*
X56465000Y-74700000D02*
X56515000Y-74750000D01*
X75010000Y-96520000D02*
X74295000Y-96520000D01*
X74295000Y-96520000D02*
X73025000Y-95250000D01*
X73025000Y-95250000D02*
X73025000Y-84535000D01*
X73025000Y-84535000D02*
X75010000Y-82550000D01*
X76835000Y-78105000D02*
X75565000Y-76835000D01*
X72620000Y-76835000D02*
X71985000Y-76200000D01*
X75565000Y-76835000D02*
X72620000Y-76835000D01*
X76835000Y-81280000D02*
X75565000Y-82550000D01*
X76835000Y-78105000D02*
X76835000Y-81280000D01*
X75565000Y-82550000D02*
X75010000Y-82550000D01*
X75010000Y-54610000D02*
X74295000Y-54610000D01*
X74295000Y-54610000D02*
X72390000Y-56515000D01*
X72390000Y-56515000D02*
X72390000Y-67310000D01*
X72390000Y-67310000D02*
X73660000Y-68580000D01*
X73660000Y-68580000D02*
X75010000Y-68580000D01*
X62685000Y-79375000D02*
X62685000Y-77622060D01*
X62685000Y-77622060D02*
X63776860Y-76530200D01*
X62685000Y-79375000D02*
X62685000Y-84865000D01*
X62685000Y-84865000D02*
X61190000Y-86360000D01*
X63680000Y-110490000D02*
X63680000Y-110035000D01*
X63680000Y-110035000D02*
X62865000Y-109220000D01*
X61190000Y-90400000D02*
X61190000Y-86360000D01*
X62865000Y-92075000D02*
X61190000Y-90400000D01*
X62865000Y-109220000D02*
X62865000Y-92075000D01*
X63680000Y-110490000D02*
X66040000Y-110490000D01*
X66040000Y-110490000D02*
X66675000Y-109855000D01*
X76476860Y-114630200D02*
X74599800Y-114630200D01*
X74599800Y-114630200D02*
X74295000Y-114935000D01*
X76476860Y-114630200D02*
X76476860Y-115293140D01*
X76476860Y-115293140D02*
X76200000Y-115570000D01*
X58190000Y-86360000D02*
X58190000Y-88670000D01*
X58190000Y-88670000D02*
X58420000Y-88900000D01*
X71120000Y-111125000D02*
X71755000Y-111125000D01*
X72113140Y-111483140D02*
X71755000Y-111125000D01*
X72113140Y-111483140D02*
X72113140Y-113334800D01*
X78740000Y-115750000D02*
X80825000Y-115750000D01*
X80825000Y-115750000D02*
X81280000Y-116205000D01*
X64755900Y-114007460D02*
X64755900Y-115555900D01*
X64755900Y-115555900D02*
X64770000Y-115570000D01*
X64105900Y-114007460D02*
X64755900Y-114007460D01*
X72113140Y-113334800D02*
X72113140Y-112699800D01*
X52955000Y-83450000D02*
X52955000Y-96150000D01*
X87400000Y-111990000D02*
X87630000Y-112220000D01*
X52955000Y-107580000D02*
X52955000Y-107679300D01*
X52955000Y-107679300D02*
X54495700Y-109220000D01*
X75010000Y-100270000D02*
X71585000Y-100270000D01*
X71585000Y-100270000D02*
X68580000Y-103275000D01*
X75010000Y-100270000D02*
X80010000Y-100270000D01*
X80010000Y-100270000D02*
X78740000Y-101540000D01*
X78740000Y-101540000D02*
X78740000Y-102640000D01*
X62635000Y-88900000D02*
X62635000Y-89940000D01*
X69395000Y-90805000D02*
X71300000Y-88900000D01*
X63500000Y-90805000D02*
X69395000Y-90805000D01*
X62635000Y-89940000D02*
X63500000Y-90805000D01*
X52955000Y-68210000D02*
X54240000Y-68210000D01*
X59413140Y-73383140D02*
X59413140Y-74599800D01*
X54240000Y-68210000D02*
X59413140Y-73383140D01*
X52955000Y-54240000D02*
X52955000Y-68210000D01*
X63776860Y-75895200D02*
X65709800Y-75895200D01*
X63905000Y-72795000D02*
X63905000Y-71755000D01*
X64770000Y-73660000D02*
X63905000Y-72795000D01*
X65709800Y-75895200D02*
X66040000Y-75565000D01*
X61595000Y-71300000D02*
X63450000Y-71300000D01*
X63450000Y-71300000D02*
X63905000Y-71755000D01*
X63776860Y-75895200D02*
X61899800Y-75895200D01*
X56515000Y-91440000D02*
X56515000Y-96340000D01*
X56515000Y-81915000D02*
X56515000Y-91440000D01*
X60325000Y-78105000D02*
X56515000Y-81915000D01*
X60325000Y-77470000D02*
X60325000Y-78105000D01*
X61899800Y-75895200D02*
X60325000Y-77470000D01*
X53340000Y-81280000D02*
X53340000Y-77700000D01*
X56515000Y-77650000D02*
X58293340Y-77650000D01*
X58293340Y-77650000D02*
X59413140Y-76530200D01*
X53340000Y-77700000D02*
X56465000Y-77700000D01*
X56465000Y-77700000D02*
X56515000Y-77650000D01*
X65585000Y-79375000D02*
X65585000Y-77925000D01*
X63776860Y-73936860D02*
X63776860Y-74599800D01*
X63500000Y-73660000D02*
X63776860Y-73936860D01*
X65585000Y-77925000D02*
X66040000Y-77470000D01*
X59413140Y-75234800D02*
X61925200Y-75234800D01*
X61925200Y-75234800D02*
X62560200Y-74599800D01*
X62560200Y-74599800D02*
X63776860Y-74599800D01*
X65635000Y-88900000D02*
X65635000Y-79425000D01*
X65635000Y-79425000D02*
X65585000Y-79375000D01*
X68400000Y-88900000D02*
X65635000Y-88900000D01*
X60325000Y-98830000D02*
X56925000Y-98830000D01*
X56925000Y-98830000D02*
X56515000Y-99240000D01*
X60325000Y-101830000D02*
X60325000Y-104150000D01*
X60325000Y-104150000D02*
X60855000Y-104680000D01*
X68580000Y-106275000D02*
X68580000Y-108265000D01*
X68580000Y-108265000D02*
X69535000Y-109220000D01*
X68580000Y-106275000D02*
X68580000Y-106045000D01*
X69535000Y-109220000D02*
X69535000Y-112740400D01*
X69535000Y-112740400D02*
X70789800Y-113995200D01*
X66705900Y-114007460D02*
X66705900Y-114330900D01*
X66705900Y-114330900D02*
X67310000Y-114935000D01*
X70789800Y-113995200D02*
X72113140Y-113995200D01*
X69850000Y-114935000D02*
X70789800Y-113995200D01*
X67310000Y-114935000D02*
X69850000Y-114935000D01*
X73660000Y-107100000D02*
X73660000Y-108220000D01*
X80645000Y-108405000D02*
X83235000Y-108405000D01*
X83235000Y-108405000D02*
X83820000Y-108990000D01*
X73660000Y-108220000D02*
X73660000Y-108585000D01*
X73660000Y-108585000D02*
X74295000Y-109220000D01*
X79830000Y-109220000D02*
X80645000Y-108405000D01*
X74295000Y-109220000D02*
X79830000Y-109220000D01*
X76835000Y-107770000D02*
X76835000Y-107545000D01*
X76835000Y-107545000D02*
X78740000Y-105640000D01*
X84875000Y-106680000D02*
X87170000Y-106680000D01*
X87170000Y-106680000D02*
X87630000Y-106220000D01*
X82765000Y-106680000D02*
X82160000Y-106680000D01*
X82160000Y-106680000D02*
X80890000Y-105410000D01*
X71510000Y-105410000D02*
X73240000Y-105410000D01*
X73240000Y-105410000D02*
X73660000Y-104990000D01*
X55994300Y-109220000D02*
X55994300Y-112915700D01*
X55994300Y-112915700D02*
X55880000Y-113030000D01*
X72113140Y-114630200D02*
X72059800Y-114630200D01*
X72059800Y-114630200D02*
X71120000Y-115570000D01*
X73660000Y-109855000D02*
X73025000Y-109220000D01*
X73025000Y-109220000D02*
X71435000Y-109220000D01*
X73660000Y-111490000D02*
X73660000Y-111445000D01*
X73660000Y-111445000D02*
X71435000Y-109220000D01*
X58420000Y-113030000D02*
X58420000Y-112850000D01*
X58420000Y-112850000D02*
X60780000Y-110490000D01*
X76835000Y-110670000D02*
X76835000Y-112341660D01*
X76835000Y-112341660D02*
X76476860Y-112699800D01*
X78740000Y-112850000D02*
X79100000Y-112850000D01*
X79100000Y-112850000D02*
X80645000Y-111305000D01*
X76476860Y-113334800D02*
X78255200Y-113334800D01*
X78255200Y-113334800D02*
X78740000Y-112850000D01*
D32*
G36*
X92583000Y-107817750D02*
X92457000Y-107943750D01*
X92457000Y-109093000D01*
X92477000Y-109093000D01*
X92477000Y-109347000D01*
X92457000Y-109347000D01*
X92457000Y-110496250D01*
X92583000Y-110622250D01*
X92583000Y-118618000D01*
X80135820Y-118618000D01*
X80137440Y-118610000D01*
X80137440Y-117610000D01*
X80093162Y-117374683D01*
X79954090Y-117158559D01*
X79741890Y-117013569D01*
X79490000Y-116962560D01*
X77990000Y-116962560D01*
X77754683Y-117006838D01*
X77538559Y-117145910D01*
X77393569Y-117358110D01*
X77342560Y-117610000D01*
X77342560Y-118610000D01*
X77344065Y-118618000D01*
X75055820Y-118618000D01*
X75057440Y-118610000D01*
X75057440Y-117610000D01*
X75013162Y-117374683D01*
X74874090Y-117158559D01*
X74661890Y-117013569D01*
X74410000Y-116962560D01*
X72910000Y-116962560D01*
X72674683Y-117006838D01*
X72458559Y-117145910D01*
X72313569Y-117358110D01*
X72262560Y-117610000D01*
X72262560Y-118610000D01*
X72264065Y-118618000D01*
X52197000Y-118618000D01*
X52197000Y-116168686D01*
X52249995Y-116296943D01*
X52611155Y-116658735D01*
X53083276Y-116854777D01*
X53594481Y-116855223D01*
X54066943Y-116660005D01*
X54428735Y-116298845D01*
X54624777Y-115826724D01*
X54625223Y-115315519D01*
X54430005Y-114843057D01*
X54068845Y-114481265D01*
X53631818Y-114299795D01*
X54066943Y-114120005D01*
X54428735Y-113758845D01*
X54610205Y-113321818D01*
X54789995Y-113756943D01*
X55151155Y-114118735D01*
X55623276Y-114314777D01*
X56134481Y-114315223D01*
X56606943Y-114120005D01*
X56968735Y-113758845D01*
X57150205Y-113321818D01*
X57329995Y-113756943D01*
X57691155Y-114118735D01*
X58128182Y-114300205D01*
X57693057Y-114479995D01*
X57331265Y-114841155D01*
X57135223Y-115313276D01*
X57134777Y-115824481D01*
X57329995Y-116296943D01*
X57691155Y-116658735D01*
X58163276Y-116854777D01*
X58674481Y-116855223D01*
X59146943Y-116660005D01*
X59402558Y-116404836D01*
X60770900Y-116404836D01*
X60770900Y-117010084D01*
X60857297Y-117444430D01*
X61103334Y-117812650D01*
X61471554Y-118058687D01*
X61905900Y-118145084D01*
X62340246Y-118058687D01*
X62708466Y-117812650D01*
X62954503Y-117444430D01*
X63040900Y-117010084D01*
X63040900Y-116404836D01*
X62954503Y-115970490D01*
X62708466Y-115602270D01*
X62340246Y-115356233D01*
X61905900Y-115269836D01*
X61471554Y-115356233D01*
X61103334Y-115602270D01*
X60857297Y-115970490D01*
X60770900Y-116404836D01*
X59402558Y-116404836D01*
X59508735Y-116298845D01*
X59704777Y-115826724D01*
X59705223Y-115315519D01*
X59510005Y-114843057D01*
X59148845Y-114481265D01*
X58711818Y-114299795D01*
X59146943Y-114120005D01*
X59259684Y-114007460D01*
X61621215Y-114007460D01*
X61705709Y-114432239D01*
X61946326Y-114792349D01*
X62306436Y-115032966D01*
X62731215Y-115117460D01*
X63080585Y-115117460D01*
X63382767Y-115057352D01*
X63546201Y-115220787D01*
X63779590Y-115317460D01*
X63847150Y-115317460D01*
X64005900Y-115158710D01*
X64005900Y-115013977D01*
X64017573Y-115042158D01*
X64196201Y-115220787D01*
X64318730Y-115271540D01*
X64364650Y-115317460D01*
X64497150Y-115317460D01*
X64543070Y-115271540D01*
X64665599Y-115220787D01*
X64748152Y-115138234D01*
X64954010Y-115278891D01*
X64981685Y-115284495D01*
X65014650Y-115317460D01*
X65082210Y-115317460D01*
X65102653Y-115308992D01*
X65205900Y-115329900D01*
X65605900Y-115329900D01*
X65735489Y-115305516D01*
X65855900Y-115329900D01*
X66255900Y-115329900D01*
X66385489Y-115305516D01*
X66505900Y-115329900D01*
X66630098Y-115329900D01*
X66772599Y-115472401D01*
X67019160Y-115637148D01*
X67067414Y-115646746D01*
X67310000Y-115695000D01*
X68041374Y-115695000D01*
X67857297Y-115970490D01*
X67770900Y-116404836D01*
X67770900Y-117010084D01*
X67857297Y-117444430D01*
X68103334Y-117812650D01*
X68471554Y-118058687D01*
X68905900Y-118145084D01*
X69340246Y-118058687D01*
X69708466Y-117812650D01*
X69954503Y-117444430D01*
X70040900Y-117010084D01*
X70040900Y-116404836D01*
X69954503Y-115970490D01*
X69770426Y-115695000D01*
X69850000Y-115695000D01*
X70140839Y-115637148D01*
X70184966Y-115607663D01*
X70184838Y-115755167D01*
X70326883Y-116098943D01*
X70589673Y-116362192D01*
X70933201Y-116504838D01*
X71305167Y-116505162D01*
X71648943Y-116363117D01*
X71912192Y-116100327D01*
X71939006Y-116035750D01*
X77255000Y-116035750D01*
X77255000Y-116326309D01*
X77351673Y-116559698D01*
X77530301Y-116738327D01*
X77763690Y-116835000D01*
X78454250Y-116835000D01*
X78613000Y-116676250D01*
X78613000Y-115877000D01*
X78867000Y-115877000D01*
X78867000Y-116676250D01*
X79025750Y-116835000D01*
X79716310Y-116835000D01*
X79949699Y-116738327D01*
X80128327Y-116559698D01*
X80225000Y-116326309D01*
X80225000Y-116035750D01*
X80066250Y-115877000D01*
X78867000Y-115877000D01*
X78613000Y-115877000D01*
X77413750Y-115877000D01*
X77255000Y-116035750D01*
X71939006Y-116035750D01*
X72054838Y-115756799D01*
X72054879Y-115709923D01*
X72258562Y-115506240D01*
X72798940Y-115506240D01*
X73034257Y-115461962D01*
X73250381Y-115322890D01*
X73395371Y-115110690D01*
X73446380Y-114858800D01*
X73446380Y-114401600D01*
X73429038Y-114309436D01*
X73446380Y-114223800D01*
X73446380Y-113766600D01*
X73432546Y-113693076D01*
X73433940Y-113689710D01*
X73433940Y-113607850D01*
X73412469Y-113586379D01*
X73402102Y-113531283D01*
X73281501Y-113343864D01*
X73337267Y-113288099D01*
X73428962Y-113066728D01*
X73433940Y-113061750D01*
X73433940Y-112972850D01*
X73428962Y-112967872D01*
X73337267Y-112746501D01*
X73183205Y-112592440D01*
X74270000Y-112592440D01*
X74505317Y-112548162D01*
X74721441Y-112409090D01*
X74866431Y-112196890D01*
X74917440Y-111945000D01*
X74917440Y-111035000D01*
X74873162Y-110799683D01*
X74734090Y-110583559D01*
X74521890Y-110438569D01*
X74419606Y-110417856D01*
X74452192Y-110385327D01*
X74594838Y-110041799D01*
X74594892Y-109980000D01*
X75386161Y-109980000D01*
X75337560Y-110220000D01*
X75337560Y-111120000D01*
X75381838Y-111355317D01*
X75520910Y-111571441D01*
X75733110Y-111716431D01*
X75985000Y-111767440D01*
X76075000Y-111767440D01*
X76075000Y-111823760D01*
X75791060Y-111823760D01*
X75555743Y-111868038D01*
X75339619Y-112007110D01*
X75194629Y-112219310D01*
X75143620Y-112471200D01*
X75143620Y-112928400D01*
X75160962Y-113020564D01*
X75143620Y-113106200D01*
X75143620Y-113563400D01*
X75163439Y-113668730D01*
X75143620Y-113766600D01*
X75143620Y-114223800D01*
X75156060Y-114289913D01*
X75156060Y-114357150D01*
X75171644Y-114372734D01*
X75187898Y-114459117D01*
X75326970Y-114675241D01*
X75428334Y-114744500D01*
X75314810Y-114744500D01*
X75156060Y-114903250D01*
X75156060Y-114985110D01*
X75252733Y-115218499D01*
X75431362Y-115397127D01*
X75664751Y-115493800D01*
X76191110Y-115493800D01*
X76349860Y-115335050D01*
X76349860Y-114871240D01*
X76603860Y-114871240D01*
X76603860Y-115335050D01*
X76762610Y-115493800D01*
X77284550Y-115493800D01*
X77413750Y-115623000D01*
X78613000Y-115623000D01*
X78613000Y-114823750D01*
X78867000Y-114823750D01*
X78867000Y-115623000D01*
X80066250Y-115623000D01*
X80225000Y-115464250D01*
X80225000Y-115173691D01*
X80128327Y-114940302D01*
X79949699Y-114761673D01*
X79716310Y-114665000D01*
X79025750Y-114665000D01*
X78867000Y-114823750D01*
X78613000Y-114823750D01*
X78454250Y-114665000D01*
X77763690Y-114665000D01*
X77571760Y-114744500D01*
X77526127Y-114744500D01*
X77614101Y-114687890D01*
X77759091Y-114475690D01*
X77779398Y-114375412D01*
X77797660Y-114357150D01*
X77797660Y-114285231D01*
X77810100Y-114223800D01*
X77810100Y-114094800D01*
X78255200Y-114094800D01*
X78546039Y-114036948D01*
X78679998Y-113947440D01*
X79590000Y-113947440D01*
X79825317Y-113903162D01*
X80041441Y-113764090D01*
X80186431Y-113551890D01*
X80237440Y-113300000D01*
X80237440Y-112787362D01*
X80622362Y-112402440D01*
X81495000Y-112402440D01*
X81730317Y-112358162D01*
X81858388Y-112275750D01*
X82385000Y-112275750D01*
X82385000Y-112616309D01*
X82481673Y-112849698D01*
X82660301Y-113028327D01*
X82893690Y-113125000D01*
X83534250Y-113125000D01*
X83693000Y-112966250D01*
X83693000Y-112117000D01*
X83947000Y-112117000D01*
X83947000Y-112966250D01*
X84105750Y-113125000D01*
X84746310Y-113125000D01*
X84979699Y-113028327D01*
X85158327Y-112849698D01*
X85255000Y-112616309D01*
X85255000Y-112505750D01*
X86195000Y-112505750D01*
X86195000Y-112846310D01*
X86291673Y-113079699D01*
X86470302Y-113258327D01*
X86703691Y-113355000D01*
X87344250Y-113355000D01*
X87503000Y-113196250D01*
X87503000Y-112347000D01*
X87757000Y-112347000D01*
X87757000Y-113196250D01*
X87915750Y-113355000D01*
X88556309Y-113355000D01*
X88789698Y-113258327D01*
X88968327Y-113079699D01*
X89065000Y-112846310D01*
X89065000Y-112505750D01*
X88906250Y-112347000D01*
X87757000Y-112347000D01*
X87503000Y-112347000D01*
X86353750Y-112347000D01*
X86195000Y-112505750D01*
X85255000Y-112505750D01*
X85255000Y-112275750D01*
X85096250Y-112117000D01*
X83947000Y-112117000D01*
X83693000Y-112117000D01*
X82543750Y-112117000D01*
X82385000Y-112275750D01*
X81858388Y-112275750D01*
X81946441Y-112219090D01*
X82091431Y-112006890D01*
X82142440Y-111755000D01*
X82142440Y-111363691D01*
X82385000Y-111363691D01*
X82385000Y-111704250D01*
X82543750Y-111863000D01*
X83693000Y-111863000D01*
X83693000Y-111013750D01*
X83947000Y-111013750D01*
X83947000Y-111863000D01*
X85096250Y-111863000D01*
X85255000Y-111704250D01*
X85255000Y-111593690D01*
X86195000Y-111593690D01*
X86195000Y-111934250D01*
X86353750Y-112093000D01*
X87503000Y-112093000D01*
X87503000Y-111243750D01*
X87757000Y-111243750D01*
X87757000Y-112093000D01*
X88906250Y-112093000D01*
X89065000Y-111934250D01*
X89065000Y-111593690D01*
X88968327Y-111360301D01*
X88789698Y-111181673D01*
X88556309Y-111085000D01*
X87915750Y-111085000D01*
X87757000Y-111243750D01*
X87503000Y-111243750D01*
X87344250Y-111085000D01*
X86703691Y-111085000D01*
X86470302Y-111181673D01*
X86291673Y-111360301D01*
X86195000Y-111593690D01*
X85255000Y-111593690D01*
X85255000Y-111363691D01*
X85158327Y-111130302D01*
X84979699Y-110951673D01*
X84746310Y-110855000D01*
X84105750Y-110855000D01*
X83947000Y-111013750D01*
X83693000Y-111013750D01*
X83534250Y-110855000D01*
X82893690Y-110855000D01*
X82660301Y-110951673D01*
X82481673Y-111130302D01*
X82385000Y-111363691D01*
X82142440Y-111363691D01*
X82142440Y-110855000D01*
X82098162Y-110619683D01*
X81959090Y-110403559D01*
X81746890Y-110258569D01*
X81495000Y-110207560D01*
X79795000Y-110207560D01*
X79559683Y-110251838D01*
X79343559Y-110390910D01*
X79198569Y-110603110D01*
X79147560Y-110855000D01*
X79147560Y-111727638D01*
X79122638Y-111752560D01*
X77890000Y-111752560D01*
X77654683Y-111796838D01*
X77595000Y-111835243D01*
X77595000Y-111767440D01*
X77685000Y-111767440D01*
X77920317Y-111723162D01*
X78136441Y-111584090D01*
X78281431Y-111371890D01*
X78332440Y-111120000D01*
X78332440Y-110220000D01*
X78288162Y-109984683D01*
X78285149Y-109980000D01*
X79830000Y-109980000D01*
X80120839Y-109922148D01*
X80367401Y-109757401D01*
X80622362Y-109502440D01*
X81495000Y-109502440D01*
X81730317Y-109458162D01*
X81946441Y-109319090D01*
X82051726Y-109165000D01*
X82372560Y-109165000D01*
X82372560Y-109490000D01*
X82416838Y-109725317D01*
X82555910Y-109941441D01*
X82768110Y-110086431D01*
X83020000Y-110137440D01*
X84620000Y-110137440D01*
X84855317Y-110093162D01*
X85071441Y-109954090D01*
X85216431Y-109741890D01*
X85264250Y-109505750D01*
X91195000Y-109505750D01*
X91195000Y-110146309D01*
X91291673Y-110379698D01*
X91470301Y-110558327D01*
X91703690Y-110655000D01*
X92044250Y-110655000D01*
X92203000Y-110496250D01*
X92203000Y-109347000D01*
X91353750Y-109347000D01*
X91195000Y-109505750D01*
X85264250Y-109505750D01*
X85267440Y-109490000D01*
X85267440Y-108490000D01*
X85230502Y-108293691D01*
X91195000Y-108293691D01*
X91195000Y-108934250D01*
X91353750Y-109093000D01*
X92203000Y-109093000D01*
X92203000Y-107943750D01*
X92044250Y-107785000D01*
X91703690Y-107785000D01*
X91470301Y-107881673D01*
X91291673Y-108060302D01*
X91195000Y-108293691D01*
X85230502Y-108293691D01*
X85223162Y-108254683D01*
X85084090Y-108038559D01*
X84871890Y-107893569D01*
X84620000Y-107842560D01*
X83734927Y-107842560D01*
X83525839Y-107702852D01*
X83235000Y-107645000D01*
X82050105Y-107645000D01*
X81959090Y-107503559D01*
X81746890Y-107358569D01*
X81495000Y-107307560D01*
X79795000Y-107307560D01*
X79559683Y-107351838D01*
X79343559Y-107490910D01*
X79198569Y-107703110D01*
X79147560Y-107955000D01*
X79147560Y-108460000D01*
X78283839Y-108460000D01*
X78332440Y-108220000D01*
X78332440Y-107320000D01*
X78301141Y-107153661D01*
X78667362Y-106787440D01*
X79540000Y-106787440D01*
X79775317Y-106743162D01*
X79952152Y-106629372D01*
X80138110Y-106756431D01*
X80390000Y-106807440D01*
X81212638Y-106807440D01*
X81622599Y-107217401D01*
X81869160Y-107382148D01*
X82115144Y-107431078D01*
X82218110Y-107501431D01*
X82470000Y-107552440D01*
X83060000Y-107552440D01*
X83295317Y-107508162D01*
X83511441Y-107369090D01*
X83656431Y-107156890D01*
X83707440Y-106905000D01*
X83707440Y-106455000D01*
X83932560Y-106455000D01*
X83932560Y-106905000D01*
X83976838Y-107140317D01*
X84115910Y-107356441D01*
X84328110Y-107501431D01*
X84580000Y-107552440D01*
X85170000Y-107552440D01*
X85405317Y-107508162D01*
X85511244Y-107440000D01*
X87170000Y-107440000D01*
X87460839Y-107382148D01*
X87482851Y-107367440D01*
X88430000Y-107367440D01*
X88665317Y-107323162D01*
X88881441Y-107184090D01*
X89026431Y-106971890D01*
X89077440Y-106720000D01*
X89077440Y-105720000D01*
X89033162Y-105484683D01*
X88894090Y-105268559D01*
X88681890Y-105123569D01*
X88430000Y-105072560D01*
X86830000Y-105072560D01*
X86594683Y-105116838D01*
X86378559Y-105255910D01*
X86233569Y-105468110D01*
X86182560Y-105720000D01*
X86182560Y-105920000D01*
X85511797Y-105920000D01*
X85421890Y-105858569D01*
X85170000Y-105807560D01*
X84580000Y-105807560D01*
X84344683Y-105851838D01*
X84128559Y-105990910D01*
X83983569Y-106203110D01*
X83932560Y-106455000D01*
X83707440Y-106455000D01*
X83663162Y-106219683D01*
X83524090Y-106003559D01*
X83311890Y-105858569D01*
X83060000Y-105807560D01*
X82470000Y-105807560D01*
X82379408Y-105824606D01*
X82037440Y-105482638D01*
X82037440Y-104660000D01*
X81993162Y-104424683D01*
X81854090Y-104208559D01*
X81641890Y-104063569D01*
X81390000Y-104012560D01*
X80390000Y-104012560D01*
X80154683Y-104056838D01*
X79938559Y-104195910D01*
X79793569Y-104408110D01*
X79767152Y-104538559D01*
X79540000Y-104492560D01*
X77940000Y-104492560D01*
X77704683Y-104536838D01*
X77488559Y-104675910D01*
X77347440Y-104882445D01*
X77347440Y-104660000D01*
X77303162Y-104424683D01*
X77164090Y-104208559D01*
X76951890Y-104063569D01*
X76700000Y-104012560D01*
X75700000Y-104012560D01*
X75464683Y-104056838D01*
X75248559Y-104195910D01*
X75103569Y-104408110D01*
X75052560Y-104660000D01*
X75052560Y-106160000D01*
X75096838Y-106395317D01*
X75235910Y-106611441D01*
X75448110Y-106756431D01*
X75630694Y-106793405D01*
X75533559Y-106855910D01*
X75388569Y-107068110D01*
X75337560Y-107320000D01*
X75337560Y-108220000D01*
X75381838Y-108455317D01*
X75384851Y-108460000D01*
X74917440Y-108460000D01*
X74917440Y-107765000D01*
X74873162Y-107529683D01*
X74734090Y-107313559D01*
X74532440Y-107175778D01*
X74532440Y-106805000D01*
X74488162Y-106569683D01*
X74349090Y-106353559D01*
X74136890Y-106208569D01*
X73885000Y-106157560D01*
X73435000Y-106157560D01*
X73199683Y-106201838D01*
X72983559Y-106340910D01*
X72838569Y-106553110D01*
X72787560Y-106805000D01*
X72787560Y-107179291D01*
X72598559Y-107300910D01*
X72453569Y-107513110D01*
X72402560Y-107765000D01*
X72402560Y-108411202D01*
X72388162Y-108334683D01*
X72249090Y-108118559D01*
X72036890Y-107973569D01*
X71785000Y-107922560D01*
X71085000Y-107922560D01*
X70849683Y-107966838D01*
X70633559Y-108105910D01*
X70488569Y-108318110D01*
X70485919Y-108331197D01*
X70349090Y-108118559D01*
X70136890Y-107973569D01*
X69885000Y-107922560D01*
X69340000Y-107922560D01*
X69340000Y-107422440D01*
X69380000Y-107422440D01*
X69615317Y-107378162D01*
X69831441Y-107239090D01*
X69976431Y-107026890D01*
X70027440Y-106775000D01*
X70027440Y-105775000D01*
X69983162Y-105539683D01*
X69844090Y-105323559D01*
X69631890Y-105178569D01*
X69380000Y-105127560D01*
X67780000Y-105127560D01*
X67544683Y-105171838D01*
X67328559Y-105310910D01*
X67183569Y-105523110D01*
X67132560Y-105775000D01*
X67132560Y-106775000D01*
X67176838Y-107010317D01*
X67315910Y-107226441D01*
X67528110Y-107371431D01*
X67780000Y-107422440D01*
X67820000Y-107422440D01*
X67820000Y-108265000D01*
X67877852Y-108555839D01*
X68042599Y-108802401D01*
X68537560Y-109297362D01*
X68537560Y-109870000D01*
X68581838Y-110105317D01*
X68720910Y-110321441D01*
X68775000Y-110358399D01*
X68775000Y-112740400D01*
X68832852Y-113031239D01*
X68997599Y-113277801D01*
X69714998Y-113995200D01*
X69535198Y-114175000D01*
X69157259Y-114175000D01*
X69190585Y-114007460D01*
X69106091Y-113582681D01*
X68865474Y-113222571D01*
X68505364Y-112981954D01*
X68080585Y-112897460D01*
X67731215Y-112897460D01*
X67420358Y-112959293D01*
X67369990Y-112881019D01*
X67157790Y-112736029D01*
X66905900Y-112685020D01*
X66505900Y-112685020D01*
X66376311Y-112709404D01*
X66255900Y-112685020D01*
X65855900Y-112685020D01*
X65726311Y-112709404D01*
X65605900Y-112685020D01*
X65205900Y-112685020D01*
X65100195Y-112704910D01*
X65082210Y-112697460D01*
X65014650Y-112697460D01*
X64985646Y-112726464D01*
X64970583Y-112729298D01*
X64754459Y-112868370D01*
X64748523Y-112877058D01*
X64665599Y-112794133D01*
X64543070Y-112743380D01*
X64497150Y-112697460D01*
X64364650Y-112697460D01*
X64318730Y-112743380D01*
X64196201Y-112794133D01*
X64017573Y-112972762D01*
X64005900Y-113000943D01*
X64005900Y-112856210D01*
X63847150Y-112697460D01*
X63779590Y-112697460D01*
X63546201Y-112794133D01*
X63382767Y-112957568D01*
X63080585Y-112897460D01*
X62731215Y-112897460D01*
X62306436Y-112981954D01*
X61946326Y-113222571D01*
X61705709Y-113582681D01*
X61621215Y-114007460D01*
X59259684Y-114007460D01*
X59508735Y-113758845D01*
X59704777Y-113286724D01*
X59705223Y-112775519D01*
X59665477Y-112679325D01*
X60357362Y-111987440D01*
X61230000Y-111987440D01*
X61465317Y-111943162D01*
X61681441Y-111804090D01*
X61826431Y-111591890D01*
X61877440Y-111340000D01*
X61877440Y-109640000D01*
X61833162Y-109404683D01*
X61694090Y-109188559D01*
X61481890Y-109043569D01*
X61230000Y-108992560D01*
X60330000Y-108992560D01*
X60192269Y-109018476D01*
X60251431Y-108931890D01*
X60302440Y-108680000D01*
X60302440Y-106480000D01*
X60292550Y-106427440D01*
X61455000Y-106427440D01*
X61690317Y-106383162D01*
X61906441Y-106244090D01*
X62051431Y-106031890D01*
X62102440Y-105780000D01*
X62102440Y-103580000D01*
X62058162Y-103344683D01*
X61919090Y-103128559D01*
X61706890Y-102983569D01*
X61455000Y-102932560D01*
X61361253Y-102932560D01*
X61576441Y-102794090D01*
X61721431Y-102581890D01*
X61772440Y-102330000D01*
X61772440Y-101330000D01*
X61728162Y-101094683D01*
X61589090Y-100878559D01*
X61376890Y-100733569D01*
X61125000Y-100682560D01*
X59525000Y-100682560D01*
X59289683Y-100726838D01*
X59073559Y-100865910D01*
X58928569Y-101078110D01*
X58877560Y-101330000D01*
X58877560Y-102330000D01*
X58921838Y-102565317D01*
X59060910Y-102781441D01*
X59273110Y-102926431D01*
X59525000Y-102977440D01*
X59565000Y-102977440D01*
X59565000Y-104150000D01*
X59607560Y-104363962D01*
X59607560Y-105780000D01*
X59617450Y-105832560D01*
X58455000Y-105832560D01*
X58219683Y-105876838D01*
X58003559Y-106015910D01*
X57858569Y-106228110D01*
X57807560Y-106480000D01*
X57807560Y-108680000D01*
X57851838Y-108915317D01*
X57990910Y-109131441D01*
X58203110Y-109276431D01*
X58455000Y-109327440D01*
X59655000Y-109327440D01*
X59792731Y-109301524D01*
X59733569Y-109388110D01*
X59682560Y-109640000D01*
X59682560Y-110512638D01*
X58450173Y-111745025D01*
X58165519Y-111744777D01*
X57693057Y-111939995D01*
X57331265Y-112301155D01*
X57149795Y-112738182D01*
X56970005Y-112303057D01*
X56754300Y-112086975D01*
X56754300Y-110140926D01*
X56844521Y-110082870D01*
X56989511Y-109870670D01*
X57040520Y-109618780D01*
X57040520Y-108821220D01*
X56996242Y-108585903D01*
X56857170Y-108369779D01*
X56644970Y-108224789D01*
X56393080Y-108173780D01*
X55595520Y-108173780D01*
X55360203Y-108218058D01*
X55256241Y-108284956D01*
X55254178Y-108282893D01*
X55020789Y-108186220D01*
X54781450Y-108186220D01*
X54622700Y-108344970D01*
X54622700Y-109093000D01*
X54642700Y-109093000D01*
X54642700Y-109347000D01*
X54622700Y-109347000D01*
X54622700Y-110095030D01*
X54781450Y-110253780D01*
X55020789Y-110253780D01*
X55234300Y-110165341D01*
X55234300Y-111906426D01*
X55153057Y-111939995D01*
X54791265Y-112301155D01*
X54609795Y-112738182D01*
X54430005Y-112303057D01*
X54068845Y-111941265D01*
X53596724Y-111745223D01*
X53085519Y-111744777D01*
X52613057Y-111939995D01*
X52251265Y-112301155D01*
X52197000Y-112431839D01*
X52197000Y-109301873D01*
X52228691Y-109315000D01*
X52669250Y-109315000D01*
X52828000Y-109156250D01*
X52828000Y-107707000D01*
X53082000Y-107707000D01*
X53082000Y-109156250D01*
X53240750Y-109315000D01*
X53461920Y-109315000D01*
X53461920Y-109347002D01*
X53620668Y-109347002D01*
X53461920Y-109505750D01*
X53461920Y-109745090D01*
X53558593Y-109978479D01*
X53737222Y-110157107D01*
X53970611Y-110253780D01*
X54209950Y-110253780D01*
X54368700Y-110095030D01*
X54368700Y-109347000D01*
X54348700Y-109347000D01*
X54348700Y-109093000D01*
X54368700Y-109093000D01*
X54368700Y-108344970D01*
X54209950Y-108186220D01*
X54190000Y-108186220D01*
X54190000Y-107865750D01*
X54031250Y-107707000D01*
X53082000Y-107707000D01*
X52828000Y-107707000D01*
X52808000Y-107707000D01*
X52808000Y-107453000D01*
X52828000Y-107453000D01*
X52828000Y-106003750D01*
X53082000Y-106003750D01*
X53082000Y-107453000D01*
X54031250Y-107453000D01*
X54190000Y-107294250D01*
X54190000Y-106353690D01*
X54093327Y-106120301D01*
X53914698Y-105941673D01*
X53681309Y-105845000D01*
X53240750Y-105845000D01*
X53082000Y-106003750D01*
X52828000Y-106003750D01*
X52669250Y-105845000D01*
X52228691Y-105845000D01*
X52197000Y-105858127D01*
X52197000Y-103580000D01*
X54107560Y-103580000D01*
X54107560Y-105780000D01*
X54151838Y-106015317D01*
X54290910Y-106231441D01*
X54503110Y-106376431D01*
X54755000Y-106427440D01*
X55955000Y-106427440D01*
X56190317Y-106383162D01*
X56406441Y-106244090D01*
X56551431Y-106031890D01*
X56602440Y-105780000D01*
X56602440Y-103580000D01*
X56558162Y-103344683D01*
X56419090Y-103128559D01*
X56206890Y-102983569D01*
X55955000Y-102932560D01*
X54755000Y-102932560D01*
X54519683Y-102976838D01*
X54303559Y-103115910D01*
X54158569Y-103328110D01*
X54107560Y-103580000D01*
X52197000Y-103580000D01*
X52197000Y-99465000D01*
X52580000Y-99465000D01*
X52637852Y-99755839D01*
X52802599Y-100002401D01*
X53049161Y-100167148D01*
X53340000Y-100225000D01*
X53570000Y-100225000D01*
X53860839Y-100167148D01*
X54107401Y-100002401D01*
X54272148Y-99755839D01*
X54330000Y-99465000D01*
X54272148Y-99174161D01*
X54107401Y-98927599D01*
X53860839Y-98762852D01*
X53570000Y-98705000D01*
X53340000Y-98705000D01*
X53049161Y-98762852D01*
X52802599Y-98927599D01*
X52637852Y-99174161D01*
X52580000Y-99465000D01*
X52197000Y-99465000D01*
X52197000Y-97871873D01*
X52228691Y-97885000D01*
X52669250Y-97885000D01*
X52828000Y-97726250D01*
X52828000Y-96277000D01*
X53082000Y-96277000D01*
X53082000Y-97726250D01*
X53240750Y-97885000D01*
X53681309Y-97885000D01*
X53914698Y-97788327D01*
X54093327Y-97609699D01*
X54190000Y-97376310D01*
X54190000Y-96435750D01*
X54031250Y-96277000D01*
X53082000Y-96277000D01*
X52828000Y-96277000D01*
X52808000Y-96277000D01*
X52808000Y-96023000D01*
X52828000Y-96023000D01*
X52828000Y-94573750D01*
X53082000Y-94573750D01*
X53082000Y-96023000D01*
X54031250Y-96023000D01*
X54190000Y-95864250D01*
X54190000Y-94923690D01*
X54093327Y-94690301D01*
X53914698Y-94511673D01*
X53681309Y-94415000D01*
X53240750Y-94415000D01*
X53082000Y-94573750D01*
X52828000Y-94573750D01*
X52669250Y-94415000D01*
X52228691Y-94415000D01*
X52197000Y-94428127D01*
X52197000Y-85171873D01*
X52228691Y-85185000D01*
X52669250Y-85185000D01*
X52828000Y-85026250D01*
X52828000Y-83577000D01*
X53082000Y-83577000D01*
X53082000Y-85026250D01*
X53240750Y-85185000D01*
X53681309Y-85185000D01*
X53914698Y-85088327D01*
X54093327Y-84909699D01*
X54190000Y-84676310D01*
X54190000Y-83735750D01*
X54031250Y-83577000D01*
X53082000Y-83577000D01*
X52828000Y-83577000D01*
X52808000Y-83577000D01*
X52808000Y-83323000D01*
X52828000Y-83323000D01*
X52828000Y-83303000D01*
X53082000Y-83303000D01*
X53082000Y-83323000D01*
X54031250Y-83323000D01*
X54190000Y-83164250D01*
X54190000Y-82223690D01*
X54093327Y-81990301D01*
X54022677Y-81919651D01*
X54132192Y-81810327D01*
X54136001Y-81801153D01*
X54151838Y-81885317D01*
X54290910Y-82101441D01*
X54503110Y-82246431D01*
X54755000Y-82297440D01*
X55755000Y-82297440D01*
X55755000Y-91502560D01*
X54755000Y-91502560D01*
X54519683Y-91546838D01*
X54303559Y-91685910D01*
X54158569Y-91898110D01*
X54107560Y-92150000D01*
X54107560Y-94350000D01*
X54151838Y-94585317D01*
X54290910Y-94801441D01*
X54503110Y-94946431D01*
X54755000Y-94997440D01*
X55755000Y-94997440D01*
X55755000Y-95242560D01*
X55665000Y-95242560D01*
X55429683Y-95286838D01*
X55213559Y-95425910D01*
X55068569Y-95638110D01*
X55017560Y-95890000D01*
X55017560Y-96790000D01*
X55061838Y-97025317D01*
X55200910Y-97241441D01*
X55413110Y-97386431D01*
X55665000Y-97437440D01*
X57365000Y-97437440D01*
X57600317Y-97393162D01*
X57809206Y-97258746D01*
X57851838Y-97485317D01*
X57990910Y-97701441D01*
X58203110Y-97846431D01*
X58455000Y-97897440D01*
X59052015Y-97897440D01*
X58934110Y-98070000D01*
X56925000Y-98070000D01*
X56634161Y-98127852D01*
X56612149Y-98142560D01*
X55665000Y-98142560D01*
X55429683Y-98186838D01*
X55213559Y-98325910D01*
X55068569Y-98538110D01*
X55017560Y-98790000D01*
X55017560Y-99690000D01*
X55061838Y-99925317D01*
X55200910Y-100141441D01*
X55413110Y-100286431D01*
X55665000Y-100337440D01*
X57365000Y-100337440D01*
X57600317Y-100293162D01*
X57816441Y-100154090D01*
X57961431Y-99941890D01*
X58012440Y-99690000D01*
X58012440Y-99590000D01*
X58937721Y-99590000D01*
X59060910Y-99781441D01*
X59273110Y-99926431D01*
X59525000Y-99977440D01*
X61125000Y-99977440D01*
X61360317Y-99933162D01*
X61576441Y-99794090D01*
X61721431Y-99581890D01*
X61772440Y-99330000D01*
X61772440Y-98330000D01*
X61728162Y-98094683D01*
X61589090Y-97878559D01*
X61376890Y-97733569D01*
X61125000Y-97682560D01*
X60127985Y-97682560D01*
X60251431Y-97501890D01*
X60302440Y-97250000D01*
X60302440Y-95050000D01*
X60292550Y-94997440D01*
X61455000Y-94997440D01*
X61690317Y-94953162D01*
X61906441Y-94814090D01*
X62051431Y-94601890D01*
X62102440Y-94350000D01*
X62102440Y-92387242D01*
X62105000Y-92389802D01*
X62105000Y-109220000D01*
X62162852Y-109510839D01*
X62327599Y-109757401D01*
X62582560Y-110012362D01*
X62582560Y-111340000D01*
X62626838Y-111575317D01*
X62765910Y-111791441D01*
X62978110Y-111936431D01*
X63230000Y-111987440D01*
X64130000Y-111987440D01*
X64365317Y-111943162D01*
X64581441Y-111804090D01*
X64726431Y-111591890D01*
X64777440Y-111340000D01*
X64777440Y-111250000D01*
X66040000Y-111250000D01*
X66330839Y-111192148D01*
X66577401Y-111027401D01*
X66814680Y-110790122D01*
X66860167Y-110790162D01*
X67203943Y-110648117D01*
X67467192Y-110385327D01*
X67609838Y-110041799D01*
X67610162Y-109669833D01*
X67468117Y-109326057D01*
X67205327Y-109062808D01*
X66861799Y-108920162D01*
X66489833Y-108919838D01*
X66146057Y-109061883D01*
X65882808Y-109324673D01*
X65740162Y-109668201D01*
X65740121Y-109715077D01*
X65725198Y-109730000D01*
X64777440Y-109730000D01*
X64777440Y-109640000D01*
X64733162Y-109404683D01*
X64683457Y-109327440D01*
X65155000Y-109327440D01*
X65390317Y-109283162D01*
X65606441Y-109144090D01*
X65751431Y-108931890D01*
X65802440Y-108680000D01*
X65802440Y-106480000D01*
X65758162Y-106244683D01*
X65619090Y-106028559D01*
X65406890Y-105883569D01*
X65155000Y-105832560D01*
X63955000Y-105832560D01*
X63719683Y-105876838D01*
X63625000Y-105937765D01*
X63625000Y-104660000D01*
X70362560Y-104660000D01*
X70362560Y-106160000D01*
X70406838Y-106395317D01*
X70545910Y-106611441D01*
X70758110Y-106756431D01*
X71010000Y-106807440D01*
X72010000Y-106807440D01*
X72245317Y-106763162D01*
X72461441Y-106624090D01*
X72606431Y-106411890D01*
X72655415Y-106170000D01*
X73240000Y-106170000D01*
X73530839Y-106112148D01*
X73777401Y-105947401D01*
X73792362Y-105932440D01*
X73885000Y-105932440D01*
X74120317Y-105888162D01*
X74336441Y-105749090D01*
X74481431Y-105536890D01*
X74532440Y-105285000D01*
X74532440Y-104695000D01*
X74488162Y-104459683D01*
X74349090Y-104243559D01*
X74136890Y-104098569D01*
X73885000Y-104047560D01*
X73435000Y-104047560D01*
X73199683Y-104091838D01*
X72983559Y-104230910D01*
X72838569Y-104443110D01*
X72796673Y-104650000D01*
X72655558Y-104650000D01*
X72613162Y-104424683D01*
X72474090Y-104208559D01*
X72261890Y-104063569D01*
X72010000Y-104012560D01*
X71010000Y-104012560D01*
X70774683Y-104056838D01*
X70558559Y-104195910D01*
X70413569Y-104408110D01*
X70362560Y-104660000D01*
X63625000Y-104660000D01*
X63625000Y-103560750D01*
X67145000Y-103560750D01*
X67145000Y-103901309D01*
X67241673Y-104134698D01*
X67420301Y-104313327D01*
X67653690Y-104410000D01*
X68294250Y-104410000D01*
X68453000Y-104251250D01*
X68453000Y-103402000D01*
X68707000Y-103402000D01*
X68707000Y-104251250D01*
X68865750Y-104410000D01*
X69506310Y-104410000D01*
X69739699Y-104313327D01*
X69918327Y-104134698D01*
X70015000Y-103901309D01*
X70015000Y-103560750D01*
X69856250Y-103402000D01*
X68707000Y-103402000D01*
X68453000Y-103402000D01*
X67303750Y-103402000D01*
X67145000Y-103560750D01*
X63625000Y-103560750D01*
X63625000Y-102648691D01*
X67145000Y-102648691D01*
X67145000Y-102989250D01*
X67303750Y-103148000D01*
X68453000Y-103148000D01*
X68453000Y-102298750D01*
X68707000Y-102298750D01*
X68707000Y-103148000D01*
X69856250Y-103148000D01*
X70015000Y-102989250D01*
X70015000Y-102925750D01*
X77305000Y-102925750D01*
X77305000Y-103266309D01*
X77401673Y-103499698D01*
X77580301Y-103678327D01*
X77813690Y-103775000D01*
X78454250Y-103775000D01*
X78613000Y-103616250D01*
X78613000Y-102767000D01*
X78867000Y-102767000D01*
X78867000Y-103616250D01*
X79025750Y-103775000D01*
X79666310Y-103775000D01*
X79899699Y-103678327D01*
X80078327Y-103499698D01*
X80175000Y-103266309D01*
X80175000Y-102925750D01*
X80016250Y-102767000D01*
X78867000Y-102767000D01*
X78613000Y-102767000D01*
X77463750Y-102767000D01*
X77305000Y-102925750D01*
X70015000Y-102925750D01*
X70015000Y-102648691D01*
X69918327Y-102415302D01*
X69739699Y-102236673D01*
X69506310Y-102140000D01*
X68865750Y-102140000D01*
X68707000Y-102298750D01*
X68453000Y-102298750D01*
X68294250Y-102140000D01*
X67653690Y-102140000D01*
X67420301Y-102236673D01*
X67241673Y-102415302D01*
X67145000Y-102648691D01*
X63625000Y-102648691D01*
X63625000Y-102013691D01*
X77305000Y-102013691D01*
X77305000Y-102354250D01*
X77463750Y-102513000D01*
X78613000Y-102513000D01*
X78613000Y-101663750D01*
X78867000Y-101663750D01*
X78867000Y-102513000D01*
X80016250Y-102513000D01*
X80175000Y-102354250D01*
X80175000Y-102013691D01*
X80078327Y-101780302D01*
X79957484Y-101659459D01*
X80355448Y-101639230D01*
X80733923Y-101482460D01*
X80801912Y-101241517D01*
X80010000Y-100449605D01*
X79218088Y-101241517D01*
X79286077Y-101482460D01*
X79349411Y-101505000D01*
X79025750Y-101505000D01*
X78867000Y-101663750D01*
X78613000Y-101663750D01*
X78454250Y-101505000D01*
X77813690Y-101505000D01*
X77580301Y-101601673D01*
X77401673Y-101780302D01*
X77305000Y-102013691D01*
X63625000Y-102013691D01*
X63625000Y-101241517D01*
X74218088Y-101241517D01*
X74286077Y-101482460D01*
X74805171Y-101667201D01*
X75355448Y-101639230D01*
X75733923Y-101482460D01*
X75801912Y-101241517D01*
X75010000Y-100449605D01*
X74218088Y-101241517D01*
X63625000Y-101241517D01*
X63625000Y-100065171D01*
X73612799Y-100065171D01*
X73640770Y-100615448D01*
X73797540Y-100993923D01*
X74038483Y-101061912D01*
X74830395Y-100270000D01*
X75189605Y-100270000D01*
X75981517Y-101061912D01*
X76222460Y-100993923D01*
X76407201Y-100474829D01*
X76386378Y-100065171D01*
X78612799Y-100065171D01*
X78640770Y-100615448D01*
X78797540Y-100993923D01*
X79038483Y-101061912D01*
X79830395Y-100270000D01*
X80189605Y-100270000D01*
X80981517Y-101061912D01*
X81222460Y-100993923D01*
X81407201Y-100474829D01*
X81379230Y-99924552D01*
X81222460Y-99546077D01*
X80981517Y-99478088D01*
X80189605Y-100270000D01*
X79830395Y-100270000D01*
X79038483Y-99478088D01*
X78797540Y-99546077D01*
X78612799Y-100065171D01*
X76386378Y-100065171D01*
X76379230Y-99924552D01*
X76222460Y-99546077D01*
X75981517Y-99478088D01*
X75189605Y-100270000D01*
X74830395Y-100270000D01*
X74038483Y-99478088D01*
X73797540Y-99546077D01*
X73612799Y-100065171D01*
X63625000Y-100065171D01*
X63625000Y-99298483D01*
X74218088Y-99298483D01*
X75010000Y-100090395D01*
X75801912Y-99298483D01*
X79218088Y-99298483D01*
X80010000Y-100090395D01*
X80801912Y-99298483D01*
X80733923Y-99057540D01*
X80214829Y-98872799D01*
X79664552Y-98900770D01*
X79286077Y-99057540D01*
X79218088Y-99298483D01*
X75801912Y-99298483D01*
X75733923Y-99057540D01*
X75214829Y-98872799D01*
X74664552Y-98900770D01*
X74286077Y-99057540D01*
X74218088Y-99298483D01*
X63625000Y-99298483D01*
X63625000Y-97793061D01*
X63703110Y-97846431D01*
X63955000Y-97897440D01*
X65155000Y-97897440D01*
X65390317Y-97853162D01*
X65606441Y-97714090D01*
X65751431Y-97501890D01*
X65802440Y-97250000D01*
X65802440Y-95050000D01*
X65758162Y-94814683D01*
X65619090Y-94598559D01*
X65406890Y-94453569D01*
X65155000Y-94402560D01*
X63955000Y-94402560D01*
X63719683Y-94446838D01*
X63625000Y-94507765D01*
X63625000Y-92075000D01*
X63567148Y-91784161D01*
X63402401Y-91537599D01*
X62199802Y-90335000D01*
X62349250Y-90335000D01*
X62508000Y-90176250D01*
X62508000Y-89027000D01*
X62762000Y-89027000D01*
X62762000Y-90176250D01*
X62920750Y-90335000D01*
X63261309Y-90335000D01*
X63494698Y-90238327D01*
X63673327Y-90059699D01*
X63770000Y-89826310D01*
X63770000Y-89185750D01*
X63611250Y-89027000D01*
X62762000Y-89027000D01*
X62508000Y-89027000D01*
X62488000Y-89027000D01*
X62488000Y-88773000D01*
X62508000Y-88773000D01*
X62508000Y-87623750D01*
X62762000Y-87623750D01*
X62762000Y-88773000D01*
X63611250Y-88773000D01*
X63770000Y-88614250D01*
X63770000Y-87973690D01*
X63673327Y-87740301D01*
X63494698Y-87561673D01*
X63261309Y-87465000D01*
X62920750Y-87465000D01*
X62762000Y-87623750D01*
X62508000Y-87623750D01*
X62349250Y-87465000D01*
X62250143Y-87465000D01*
X62286431Y-87411890D01*
X62337440Y-87160000D01*
X62337440Y-86287362D01*
X63222401Y-85402401D01*
X63387148Y-85155840D01*
X63435109Y-84914724D01*
X63490910Y-85001441D01*
X63703110Y-85146431D01*
X63955000Y-85197440D01*
X64875000Y-85197440D01*
X64875000Y-87512721D01*
X64683559Y-87635910D01*
X64538569Y-87848110D01*
X64487560Y-88100000D01*
X64487560Y-89700000D01*
X64531838Y-89935317D01*
X64670910Y-90151441D01*
X64883110Y-90296431D01*
X65135000Y-90347440D01*
X66135000Y-90347440D01*
X66370317Y-90303162D01*
X66586441Y-90164090D01*
X66731431Y-89951890D01*
X66782440Y-89700000D01*
X66782440Y-89660000D01*
X67302560Y-89660000D01*
X67302560Y-89750000D01*
X67346838Y-89985317D01*
X67485910Y-90201441D01*
X67698110Y-90346431D01*
X67950000Y-90397440D01*
X68850000Y-90397440D01*
X69085317Y-90353162D01*
X69301441Y-90214090D01*
X69446431Y-90001890D01*
X69497440Y-89750000D01*
X69497440Y-89185750D01*
X70215000Y-89185750D01*
X70215000Y-89876310D01*
X70311673Y-90109699D01*
X70490302Y-90288327D01*
X70723691Y-90385000D01*
X71014250Y-90385000D01*
X71173000Y-90226250D01*
X71173000Y-89027000D01*
X70373750Y-89027000D01*
X70215000Y-89185750D01*
X69497440Y-89185750D01*
X69497440Y-88050000D01*
X69473674Y-87923690D01*
X70215000Y-87923690D01*
X70215000Y-88614250D01*
X70373750Y-88773000D01*
X71173000Y-88773000D01*
X71173000Y-87573750D01*
X71014250Y-87415000D01*
X70723691Y-87415000D01*
X70490302Y-87511673D01*
X70311673Y-87690301D01*
X70215000Y-87923690D01*
X69473674Y-87923690D01*
X69453162Y-87814683D01*
X69314090Y-87598559D01*
X69101890Y-87453569D01*
X68850000Y-87402560D01*
X67950000Y-87402560D01*
X67714683Y-87446838D01*
X67498559Y-87585910D01*
X67353569Y-87798110D01*
X67302560Y-88050000D01*
X67302560Y-88140000D01*
X66782440Y-88140000D01*
X66782440Y-88100000D01*
X66738162Y-87864683D01*
X66599090Y-87648559D01*
X66395000Y-87509110D01*
X66395000Y-80747931D01*
X66486441Y-80689090D01*
X66631431Y-80476890D01*
X66682440Y-80225000D01*
X66682440Y-78525000D01*
X66638162Y-78289683D01*
X66600680Y-78231435D01*
X66832192Y-78000327D01*
X66974838Y-77656799D01*
X66975162Y-77284833D01*
X66833117Y-76941057D01*
X66570327Y-76677808D01*
X66226799Y-76535162D01*
X66093880Y-76535046D01*
X66146191Y-76500093D01*
X66225167Y-76500162D01*
X66568943Y-76358117D01*
X66832192Y-76095327D01*
X66974838Y-75751799D01*
X66975162Y-75379833D01*
X66833117Y-75036057D01*
X66603631Y-74806171D01*
X67442401Y-73967401D01*
X67607148Y-73720839D01*
X67665000Y-73430000D01*
X67665000Y-73142279D01*
X67837560Y-73031240D01*
X67837560Y-73825000D01*
X67869535Y-73994934D01*
X67759833Y-73994838D01*
X67416057Y-74136883D01*
X67152808Y-74399673D01*
X67010162Y-74743201D01*
X67009838Y-75115167D01*
X67151883Y-75458943D01*
X67414673Y-75722192D01*
X67758201Y-75864838D01*
X67805077Y-75864879D01*
X67837560Y-75897362D01*
X67837560Y-76111721D01*
X67820000Y-76200000D01*
X67837560Y-76288279D01*
X67837560Y-77000000D01*
X67881838Y-77235317D01*
X68020910Y-77451441D01*
X68233110Y-77596431D01*
X68485000Y-77647440D01*
X69485000Y-77647440D01*
X69720317Y-77603162D01*
X69936441Y-77464090D01*
X70081431Y-77251890D01*
X70132440Y-77000000D01*
X70132440Y-75400000D01*
X70088162Y-75164683D01*
X69949090Y-74948559D01*
X69736890Y-74803569D01*
X69485000Y-74752560D01*
X68880155Y-74752560D01*
X68880162Y-74744833D01*
X68767612Y-74472440D01*
X69485000Y-74472440D01*
X69720317Y-74428162D01*
X69936441Y-74289090D01*
X70081431Y-74076890D01*
X70132440Y-73825000D01*
X70132440Y-72225000D01*
X70837560Y-72225000D01*
X70837560Y-73825000D01*
X70881838Y-74060317D01*
X71020910Y-74276441D01*
X71233110Y-74421431D01*
X71485000Y-74472440D01*
X72485000Y-74472440D01*
X72720317Y-74428162D01*
X72936441Y-74289090D01*
X73081431Y-74076890D01*
X73132440Y-73825000D01*
X73132440Y-73301517D01*
X74218088Y-73301517D01*
X74286077Y-73542460D01*
X74805171Y-73727201D01*
X75355448Y-73699230D01*
X75733923Y-73542460D01*
X75801912Y-73301517D01*
X75010000Y-72509605D01*
X74218088Y-73301517D01*
X73132440Y-73301517D01*
X73132440Y-72952362D01*
X73629576Y-72455226D01*
X73640770Y-72675448D01*
X73797540Y-73053923D01*
X74038483Y-73121912D01*
X74830395Y-72330000D01*
X75189605Y-72330000D01*
X75981517Y-73121912D01*
X76222460Y-73053923D01*
X76407201Y-72534829D01*
X76379230Y-71984552D01*
X76222460Y-71606077D01*
X75981517Y-71538088D01*
X75189605Y-72330000D01*
X74830395Y-72330000D01*
X74816253Y-72315858D01*
X74995858Y-72136253D01*
X75010000Y-72150395D01*
X75801912Y-71358483D01*
X75769890Y-71245000D01*
X76200000Y-71245000D01*
X76490839Y-71187148D01*
X76737401Y-71022401D01*
X77362431Y-70397371D01*
X77345000Y-70485000D01*
X77345000Y-77304367D01*
X77021799Y-77170162D01*
X76974923Y-77170121D01*
X76102401Y-76297599D01*
X75855839Y-76132852D01*
X75565000Y-76075000D01*
X73132440Y-76075000D01*
X73132440Y-75400000D01*
X73088162Y-75164683D01*
X72949090Y-74948559D01*
X72736890Y-74803569D01*
X72485000Y-74752560D01*
X71485000Y-74752560D01*
X71249683Y-74796838D01*
X71033559Y-74935910D01*
X70888569Y-75148110D01*
X70837560Y-75400000D01*
X70837560Y-77000000D01*
X70881838Y-77235317D01*
X71020910Y-77451441D01*
X71233110Y-77596431D01*
X71485000Y-77647440D01*
X72485000Y-77647440D01*
X72720317Y-77603162D01*
X72733001Y-77595000D01*
X74299500Y-77595000D01*
X74226485Y-77625169D01*
X73836539Y-78014436D01*
X73625241Y-78523298D01*
X73624760Y-79074285D01*
X73835169Y-79583515D01*
X74224436Y-79973461D01*
X74733298Y-80184759D01*
X75284285Y-80185240D01*
X75793515Y-79974831D01*
X76075000Y-79693836D01*
X76075000Y-80965198D01*
X75702360Y-81337838D01*
X75286702Y-81165241D01*
X74735715Y-81164760D01*
X74226485Y-81375169D01*
X73836539Y-81764436D01*
X73625241Y-82273298D01*
X73624760Y-82824285D01*
X73635330Y-82849868D01*
X72487599Y-83997599D01*
X72322852Y-84244161D01*
X72265000Y-84535000D01*
X72265000Y-87666974D01*
X72109698Y-87511673D01*
X71876309Y-87415000D01*
X71585750Y-87415000D01*
X71427000Y-87573750D01*
X71427000Y-88773000D01*
X71447000Y-88773000D01*
X71447000Y-89027000D01*
X71427000Y-89027000D01*
X71427000Y-90226250D01*
X71585750Y-90385000D01*
X71876309Y-90385000D01*
X72109698Y-90288327D01*
X72265000Y-90133026D01*
X72265000Y-95250000D01*
X72322852Y-95540839D01*
X72487599Y-95787401D01*
X73716492Y-97016294D01*
X73835169Y-97303515D01*
X74224436Y-97693461D01*
X74733298Y-97904759D01*
X75284285Y-97905240D01*
X75793515Y-97694831D01*
X76183461Y-97305564D01*
X76394759Y-96796702D01*
X76395240Y-96245715D01*
X76184831Y-95736485D01*
X75795564Y-95346539D01*
X75286702Y-95135241D01*
X74735715Y-95134760D01*
X74226485Y-95345169D01*
X74210714Y-95360912D01*
X73785000Y-94935198D01*
X73785000Y-93432096D01*
X73835169Y-93553515D01*
X74224436Y-93943461D01*
X74733298Y-94154759D01*
X75284285Y-94155240D01*
X75793515Y-93944831D01*
X76183461Y-93555564D01*
X76394759Y-93046702D01*
X76395240Y-92495715D01*
X76184831Y-91986485D01*
X75795564Y-91596539D01*
X75286702Y-91385241D01*
X74735715Y-91384760D01*
X74226485Y-91595169D01*
X73836539Y-91984436D01*
X73785000Y-92108556D01*
X73785000Y-87271517D01*
X74218088Y-87271517D01*
X74286077Y-87512460D01*
X74805171Y-87697201D01*
X75355448Y-87669230D01*
X75733923Y-87512460D01*
X75801912Y-87271517D01*
X75010000Y-86479605D01*
X74218088Y-87271517D01*
X73785000Y-87271517D01*
X73785000Y-86993649D01*
X73797540Y-87023923D01*
X74038483Y-87091912D01*
X74830395Y-86300000D01*
X75189605Y-86300000D01*
X75981517Y-87091912D01*
X76222460Y-87023923D01*
X76407201Y-86504829D01*
X76379230Y-85954552D01*
X76222460Y-85576077D01*
X75981517Y-85508088D01*
X75189605Y-86300000D01*
X74830395Y-86300000D01*
X74038483Y-85508088D01*
X73797540Y-85576077D01*
X73785000Y-85611312D01*
X73785000Y-85328483D01*
X74218088Y-85328483D01*
X75010000Y-86120395D01*
X75801912Y-85328483D01*
X75733923Y-85087540D01*
X75214829Y-84902799D01*
X74664552Y-84930770D01*
X74286077Y-85087540D01*
X74218088Y-85328483D01*
X73785000Y-85328483D01*
X73785000Y-84849802D01*
X74709800Y-83925002D01*
X74733298Y-83934759D01*
X75284285Y-83935240D01*
X75793515Y-83724831D01*
X76183461Y-83335564D01*
X76394759Y-82826702D01*
X76394787Y-82795015D01*
X77372401Y-81817401D01*
X77470000Y-81671334D01*
X77567599Y-81817401D01*
X78617698Y-82867500D01*
X77567599Y-83917599D01*
X77402852Y-84164161D01*
X77345000Y-84455000D01*
X77345000Y-95885000D01*
X77402852Y-96175839D01*
X77567599Y-96422401D01*
X78202599Y-97057401D01*
X78449161Y-97222148D01*
X78740000Y-97280000D01*
X78825453Y-97280000D01*
X78835169Y-97303515D01*
X79224436Y-97693461D01*
X79733298Y-97904759D01*
X80284285Y-97905240D01*
X80793515Y-97694831D01*
X81183461Y-97305564D01*
X81394759Y-96796702D01*
X81395240Y-96245715D01*
X81184831Y-95736485D01*
X80795564Y-95346539D01*
X80286702Y-95135241D01*
X79735715Y-95134760D01*
X79226485Y-95345169D01*
X78932972Y-95638170D01*
X78865000Y-95570198D01*
X78865000Y-95037815D01*
X86764630Y-95037815D01*
X87088980Y-95822800D01*
X87689041Y-96423909D01*
X88473459Y-96749628D01*
X89322815Y-96750370D01*
X90107800Y-96426020D01*
X90708909Y-95825959D01*
X91034628Y-95041541D01*
X91035370Y-94192185D01*
X90711020Y-93407200D01*
X90110959Y-92806091D01*
X89326541Y-92480372D01*
X88477185Y-92479630D01*
X87692200Y-92803980D01*
X87091091Y-93404041D01*
X86765372Y-94188459D01*
X86764630Y-95037815D01*
X78865000Y-95037815D01*
X78865000Y-93583398D01*
X79224436Y-93943461D01*
X79733298Y-94154759D01*
X80284285Y-94155240D01*
X80793515Y-93944831D01*
X81183461Y-93555564D01*
X81394759Y-93046702D01*
X81395240Y-92495715D01*
X81184831Y-91986485D01*
X80795564Y-91596539D01*
X80286702Y-91385241D01*
X79735715Y-91384760D01*
X79226485Y-91595169D01*
X78865000Y-91956025D01*
X78865000Y-87271517D01*
X79218088Y-87271517D01*
X79286077Y-87512460D01*
X79805171Y-87697201D01*
X80355448Y-87669230D01*
X80733923Y-87512460D01*
X80801912Y-87271517D01*
X80010000Y-86479605D01*
X79218088Y-87271517D01*
X78865000Y-87271517D01*
X78865000Y-87042959D01*
X79038483Y-87091912D01*
X79830395Y-86300000D01*
X80189605Y-86300000D01*
X80981517Y-87091912D01*
X81222460Y-87023923D01*
X81407201Y-86504829D01*
X81379230Y-85954552D01*
X81222460Y-85576077D01*
X80981517Y-85508088D01*
X80189605Y-86300000D01*
X79830395Y-86300000D01*
X79038483Y-85508088D01*
X78865000Y-85557041D01*
X78865000Y-85328483D01*
X79218088Y-85328483D01*
X80010000Y-86120395D01*
X80801912Y-85328483D01*
X80733923Y-85087540D01*
X80214829Y-84902799D01*
X79664552Y-84930770D01*
X79286077Y-85087540D01*
X79218088Y-85328483D01*
X78865000Y-85328483D01*
X78865000Y-84769802D01*
X79709800Y-83925002D01*
X79733298Y-83934759D01*
X80284285Y-83935240D01*
X80793515Y-83724831D01*
X81183461Y-83335564D01*
X81394759Y-82826702D01*
X81395240Y-82275715D01*
X81184831Y-81766485D01*
X80795564Y-81376539D01*
X80286702Y-81165241D01*
X79735715Y-81164760D01*
X79260795Y-81360993D01*
X78865000Y-80965198D01*
X78865000Y-79613398D01*
X79224436Y-79973461D01*
X79733298Y-80184759D01*
X80284285Y-80185240D01*
X80793515Y-79974831D01*
X81183461Y-79585564D01*
X81394759Y-79076702D01*
X81395240Y-78525715D01*
X81184831Y-78016485D01*
X80795564Y-77626539D01*
X80286702Y-77415241D01*
X79735715Y-77414760D01*
X79226485Y-77625169D01*
X78865000Y-77986025D01*
X78865000Y-73301517D01*
X79218088Y-73301517D01*
X79286077Y-73542460D01*
X79805171Y-73727201D01*
X80355448Y-73699230D01*
X80733923Y-73542460D01*
X80801912Y-73301517D01*
X80010000Y-72509605D01*
X79218088Y-73301517D01*
X78865000Y-73301517D01*
X78865000Y-73072959D01*
X79038483Y-73121912D01*
X79830395Y-72330000D01*
X80189605Y-72330000D01*
X80981517Y-73121912D01*
X81222460Y-73053923D01*
X81407201Y-72534829D01*
X81379230Y-71984552D01*
X81222460Y-71606077D01*
X80981517Y-71538088D01*
X80189605Y-72330000D01*
X79830395Y-72330000D01*
X79038483Y-71538088D01*
X78865000Y-71587041D01*
X78865000Y-71358483D01*
X79218088Y-71358483D01*
X80010000Y-72150395D01*
X80801912Y-71358483D01*
X80733923Y-71117540D01*
X80214829Y-70932799D01*
X79664552Y-70960770D01*
X79286077Y-71117540D01*
X79218088Y-71358483D01*
X78865000Y-71358483D01*
X78865000Y-70799802D01*
X79709800Y-69955002D01*
X79733298Y-69964759D01*
X80284285Y-69965240D01*
X80793515Y-69754831D01*
X81183461Y-69365564D01*
X81394759Y-68856702D01*
X81395240Y-68305715D01*
X81184831Y-67796485D01*
X80795564Y-67406539D01*
X80286702Y-67195241D01*
X79735715Y-67194760D01*
X79710132Y-67205330D01*
X78865000Y-66360198D01*
X78865000Y-65643398D01*
X79224436Y-66003461D01*
X79733298Y-66214759D01*
X80284285Y-66215240D01*
X80793515Y-66004831D01*
X81183461Y-65615564D01*
X81394759Y-65106702D01*
X81395240Y-64555715D01*
X81184831Y-64046485D01*
X80795564Y-63656539D01*
X80286702Y-63445241D01*
X79735715Y-63444760D01*
X79226485Y-63655169D01*
X78865000Y-64016025D01*
X78865000Y-59331517D01*
X79218088Y-59331517D01*
X79286077Y-59572460D01*
X79805171Y-59757201D01*
X80355448Y-59729230D01*
X80733923Y-59572460D01*
X80801912Y-59331517D01*
X80010000Y-58539605D01*
X79218088Y-59331517D01*
X78865000Y-59331517D01*
X78865000Y-59102959D01*
X79038483Y-59151912D01*
X79830395Y-58360000D01*
X80189605Y-58360000D01*
X80981517Y-59151912D01*
X81222460Y-59083923D01*
X81407201Y-58564829D01*
X81379230Y-58014552D01*
X81222460Y-57636077D01*
X80981517Y-57568088D01*
X80189605Y-58360000D01*
X79830395Y-58360000D01*
X79038483Y-57568088D01*
X78865000Y-57617041D01*
X78865000Y-57388483D01*
X79218088Y-57388483D01*
X80010000Y-58180395D01*
X80801912Y-57388483D01*
X80733923Y-57147540D01*
X80214829Y-56962799D01*
X79664552Y-56990770D01*
X79286077Y-57147540D01*
X79218088Y-57388483D01*
X78865000Y-57388483D01*
X78865000Y-56194802D01*
X79261112Y-55798690D01*
X79733298Y-55994759D01*
X80284285Y-55995240D01*
X80793515Y-55784831D01*
X80802647Y-55775714D01*
X86765000Y-55775714D01*
X86765000Y-90274285D01*
X90735000Y-90274285D01*
X90735000Y-55775714D01*
X86765000Y-55775714D01*
X80802647Y-55775714D01*
X81183461Y-55395564D01*
X81394759Y-54886702D01*
X81395240Y-54335715D01*
X81184831Y-53826485D01*
X80795564Y-53436539D01*
X80286702Y-53225241D01*
X79735715Y-53224760D01*
X79226485Y-53435169D01*
X78836539Y-53824436D01*
X78659568Y-54250630D01*
X77567599Y-55342599D01*
X77402852Y-55589161D01*
X77345000Y-55880000D01*
X77345000Y-66675000D01*
X77402852Y-66965839D01*
X77567599Y-67212401D01*
X78175198Y-67820000D01*
X78105000Y-67820000D01*
X77814161Y-67877852D01*
X77567599Y-68042599D01*
X75885198Y-69725000D01*
X75823398Y-69725000D01*
X76183461Y-69365564D01*
X76394759Y-68856702D01*
X76395240Y-68305715D01*
X76184831Y-67796485D01*
X75795564Y-67406539D01*
X75286702Y-67195241D01*
X74735715Y-67194760D01*
X74226485Y-67405169D01*
X73892938Y-67738136D01*
X73150000Y-66995198D01*
X73150000Y-65104285D01*
X73624760Y-65104285D01*
X73835169Y-65613515D01*
X74224436Y-66003461D01*
X74733298Y-66214759D01*
X75284285Y-66215240D01*
X75793515Y-66004831D01*
X76183461Y-65615564D01*
X76394759Y-65106702D01*
X76395240Y-64555715D01*
X76184831Y-64046485D01*
X75795564Y-63656539D01*
X75286702Y-63445241D01*
X74735715Y-63444760D01*
X74226485Y-63655169D01*
X73836539Y-64044436D01*
X73625241Y-64553298D01*
X73624760Y-65104285D01*
X73150000Y-65104285D01*
X73150000Y-59331517D01*
X74218088Y-59331517D01*
X74286077Y-59572460D01*
X74805171Y-59757201D01*
X75355448Y-59729230D01*
X75733923Y-59572460D01*
X75801912Y-59331517D01*
X75010000Y-58539605D01*
X74218088Y-59331517D01*
X73150000Y-59331517D01*
X73150000Y-58155171D01*
X73612799Y-58155171D01*
X73640770Y-58705448D01*
X73797540Y-59083923D01*
X74038483Y-59151912D01*
X74830395Y-58360000D01*
X75189605Y-58360000D01*
X75981517Y-59151912D01*
X76222460Y-59083923D01*
X76407201Y-58564829D01*
X76379230Y-58014552D01*
X76222460Y-57636077D01*
X75981517Y-57568088D01*
X75189605Y-58360000D01*
X74830395Y-58360000D01*
X74038483Y-57568088D01*
X73797540Y-57636077D01*
X73612799Y-58155171D01*
X73150000Y-58155171D01*
X73150000Y-57388483D01*
X74218088Y-57388483D01*
X75010000Y-58180395D01*
X75801912Y-57388483D01*
X75733923Y-57147540D01*
X75214829Y-56962799D01*
X74664552Y-56990770D01*
X74286077Y-57147540D01*
X74218088Y-57388483D01*
X73150000Y-57388483D01*
X73150000Y-56829802D01*
X74210401Y-55769401D01*
X74224436Y-55783461D01*
X74733298Y-55994759D01*
X75284285Y-55995240D01*
X75793515Y-55784831D01*
X76183461Y-55395564D01*
X76394759Y-54886702D01*
X76395240Y-54335715D01*
X76184831Y-53826485D01*
X75795564Y-53436539D01*
X75286702Y-53225241D01*
X74735715Y-53224760D01*
X74226485Y-53435169D01*
X73836539Y-53824436D01*
X73716375Y-54113823D01*
X71852599Y-55977599D01*
X71687852Y-56224161D01*
X71630000Y-56515000D01*
X71630000Y-67310000D01*
X71687852Y-67600839D01*
X71852599Y-67847401D01*
X73122599Y-69117401D01*
X73369160Y-69282148D01*
X73660000Y-69340000D01*
X73825453Y-69340000D01*
X73835169Y-69363515D01*
X74224436Y-69753461D01*
X74275442Y-69774641D01*
X74234160Y-69782852D01*
X73987599Y-69947599D01*
X72357638Y-71577560D01*
X71485000Y-71577560D01*
X71249683Y-71621838D01*
X71033559Y-71760910D01*
X70888569Y-71973110D01*
X70837560Y-72225000D01*
X70132440Y-72225000D01*
X70088162Y-71989683D01*
X69949090Y-71773559D01*
X69736890Y-71628569D01*
X69485000Y-71577560D01*
X68612362Y-71577560D01*
X68252401Y-71217599D01*
X68052440Y-71083990D01*
X68052440Y-70955000D01*
X68008162Y-70719683D01*
X67869090Y-70503559D01*
X67656890Y-70358569D01*
X67405000Y-70307560D01*
X66532362Y-70307560D01*
X65757369Y-69532567D01*
X65802440Y-69310000D01*
X65802440Y-67110000D01*
X65758162Y-66874683D01*
X65619090Y-66658559D01*
X65406890Y-66513569D01*
X65155000Y-66462560D01*
X63955000Y-66462560D01*
X63719683Y-66506838D01*
X63503559Y-66645910D01*
X63358569Y-66858110D01*
X63307560Y-67110000D01*
X63307560Y-69090000D01*
X63179802Y-69090000D01*
X63066735Y-68976933D01*
X63092440Y-68850000D01*
X63092440Y-67950000D01*
X63048162Y-67714683D01*
X62909090Y-67498559D01*
X62696890Y-67353569D01*
X62445000Y-67302560D01*
X60745000Y-67302560D01*
X60509683Y-67346838D01*
X60302440Y-67480195D01*
X60302440Y-67110000D01*
X60292550Y-67057440D01*
X61455000Y-67057440D01*
X61690317Y-67013162D01*
X61906441Y-66874090D01*
X62051431Y-66661890D01*
X62102440Y-66410000D01*
X62102440Y-64210000D01*
X62058162Y-63974683D01*
X61919090Y-63758559D01*
X61706890Y-63613569D01*
X61455000Y-63562560D01*
X60255000Y-63562560D01*
X60019683Y-63606838D01*
X59803559Y-63745910D01*
X59658569Y-63958110D01*
X59607560Y-64210000D01*
X59607560Y-66410000D01*
X59617450Y-66462560D01*
X58455000Y-66462560D01*
X58219683Y-66506838D01*
X58003559Y-66645910D01*
X57858569Y-66858110D01*
X57807560Y-67110000D01*
X57807560Y-69310000D01*
X57851838Y-69545317D01*
X57990910Y-69761441D01*
X58203110Y-69906431D01*
X58455000Y-69957440D01*
X59655000Y-69957440D01*
X59890317Y-69913162D01*
X60106441Y-69774090D01*
X60251431Y-69561890D01*
X60301346Y-69315404D01*
X60493110Y-69446431D01*
X60745000Y-69497440D01*
X61437638Y-69497440D01*
X62142758Y-70202560D01*
X60745000Y-70202560D01*
X60509683Y-70246838D01*
X60293559Y-70385910D01*
X60148569Y-70598110D01*
X60097560Y-70850000D01*
X60097560Y-71750000D01*
X60141838Y-71985317D01*
X60280910Y-72201441D01*
X60493110Y-72346431D01*
X60745000Y-72397440D01*
X62445000Y-72397440D01*
X62680317Y-72353162D01*
X62757560Y-72303457D01*
X62757560Y-72555000D01*
X62801838Y-72790317D01*
X62898022Y-72939791D01*
X62707808Y-73129673D01*
X62565162Y-73473201D01*
X62564843Y-73839800D01*
X62560200Y-73839800D01*
X62269361Y-73897652D01*
X62022799Y-74062399D01*
X61610398Y-74474800D01*
X60733940Y-74474800D01*
X60733940Y-74472798D01*
X60587892Y-74472798D01*
X60733940Y-74326750D01*
X60733940Y-74244890D01*
X60637267Y-74011501D01*
X60458638Y-73832873D01*
X60225249Y-73736200D01*
X59698890Y-73736200D01*
X59540140Y-73894950D01*
X59540140Y-74358760D01*
X59286140Y-74358760D01*
X59286140Y-73894950D01*
X59127390Y-73736200D01*
X58719934Y-73736200D01*
X58720162Y-73474833D01*
X58578117Y-73131057D01*
X58315327Y-72867808D01*
X57971799Y-72725162D01*
X57599833Y-72724838D01*
X57256057Y-72866883D01*
X56992808Y-73129673D01*
X56850162Y-73473201D01*
X56850121Y-73520077D01*
X56717638Y-73652560D01*
X55665000Y-73652560D01*
X55429683Y-73696838D01*
X55213559Y-73835910D01*
X55142437Y-73940000D01*
X54727279Y-73940000D01*
X54604090Y-73748559D01*
X54391890Y-73603569D01*
X54140000Y-73552560D01*
X52540000Y-73552560D01*
X52304683Y-73596838D01*
X52197000Y-73666130D01*
X52197000Y-69931873D01*
X52228691Y-69945000D01*
X52669250Y-69945000D01*
X52828000Y-69786250D01*
X52828000Y-68337000D01*
X53082000Y-68337000D01*
X53082000Y-69786250D01*
X53240750Y-69945000D01*
X53681309Y-69945000D01*
X53914698Y-69848327D01*
X54093327Y-69669699D01*
X54190000Y-69436310D01*
X54190000Y-68495750D01*
X54031250Y-68337000D01*
X53082000Y-68337000D01*
X52828000Y-68337000D01*
X52808000Y-68337000D01*
X52808000Y-68083000D01*
X52828000Y-68083000D01*
X52828000Y-66633750D01*
X53082000Y-66633750D01*
X53082000Y-68083000D01*
X54031250Y-68083000D01*
X54190000Y-67924250D01*
X54190000Y-66983690D01*
X54093327Y-66750301D01*
X53914698Y-66571673D01*
X53681309Y-66475000D01*
X53240750Y-66475000D01*
X53082000Y-66633750D01*
X52828000Y-66633750D01*
X52669250Y-66475000D01*
X52228691Y-66475000D01*
X52197000Y-66488127D01*
X52197000Y-64210000D01*
X54107560Y-64210000D01*
X54107560Y-66410000D01*
X54151838Y-66645317D01*
X54290910Y-66861441D01*
X54503110Y-67006431D01*
X54755000Y-67057440D01*
X55955000Y-67057440D01*
X56190317Y-67013162D01*
X56406441Y-66874090D01*
X56551431Y-66661890D01*
X56602440Y-66410000D01*
X56602440Y-64210000D01*
X56558162Y-63974683D01*
X56419090Y-63758559D01*
X56206890Y-63613569D01*
X55955000Y-63562560D01*
X54755000Y-63562560D01*
X54519683Y-63606838D01*
X54303559Y-63745910D01*
X54158569Y-63958110D01*
X54107560Y-64210000D01*
X52197000Y-64210000D01*
X52197000Y-62017815D01*
X67079630Y-62017815D01*
X67403980Y-62802800D01*
X68004041Y-63403909D01*
X68788459Y-63729628D01*
X69637815Y-63730370D01*
X70422800Y-63406020D01*
X71023909Y-62805959D01*
X71349628Y-62021541D01*
X71350370Y-61172185D01*
X71026020Y-60387200D01*
X70425959Y-59786091D01*
X69641541Y-59460372D01*
X68792185Y-59459630D01*
X68007200Y-59783980D01*
X67406091Y-60384041D01*
X67080372Y-61168459D01*
X67079630Y-62017815D01*
X52197000Y-62017815D01*
X52197000Y-55961873D01*
X52228691Y-55975000D01*
X52669250Y-55975000D01*
X52828000Y-55816250D01*
X52828000Y-54367000D01*
X53082000Y-54367000D01*
X53082000Y-55816250D01*
X53240750Y-55975000D01*
X53681309Y-55975000D01*
X53914698Y-55878327D01*
X54093327Y-55699699D01*
X54190000Y-55466310D01*
X54190000Y-54525750D01*
X54031250Y-54367000D01*
X53082000Y-54367000D01*
X52828000Y-54367000D01*
X52808000Y-54367000D01*
X52808000Y-54113000D01*
X52828000Y-54113000D01*
X52828000Y-52663750D01*
X53082000Y-52663750D01*
X53082000Y-54113000D01*
X54031250Y-54113000D01*
X54190000Y-53954250D01*
X54190000Y-53140000D01*
X57807560Y-53140000D01*
X57807560Y-55340000D01*
X57851838Y-55575317D01*
X57990910Y-55791441D01*
X58203110Y-55936431D01*
X58455000Y-55987440D01*
X59655000Y-55987440D01*
X59890317Y-55943162D01*
X60106441Y-55804090D01*
X60251431Y-55591890D01*
X60302440Y-55340000D01*
X60302440Y-53140000D01*
X63307560Y-53140000D01*
X63307560Y-55340000D01*
X63351838Y-55575317D01*
X63490910Y-55791441D01*
X63703110Y-55936431D01*
X63955000Y-55987440D01*
X65155000Y-55987440D01*
X65390317Y-55943162D01*
X65606441Y-55804090D01*
X65751431Y-55591890D01*
X65802440Y-55340000D01*
X65802440Y-53140000D01*
X65758162Y-52904683D01*
X65619090Y-52688559D01*
X65406890Y-52543569D01*
X65156260Y-52492815D01*
X86764630Y-52492815D01*
X87088980Y-53277800D01*
X87689041Y-53878909D01*
X88473459Y-54204628D01*
X89322815Y-54205370D01*
X90107800Y-53881020D01*
X90708909Y-53280959D01*
X91034628Y-52496541D01*
X91035370Y-51647185D01*
X90711020Y-50862200D01*
X90110959Y-50261091D01*
X89326541Y-49935372D01*
X88477185Y-49934630D01*
X87692200Y-50258980D01*
X87091091Y-50859041D01*
X86765372Y-51643459D01*
X86764630Y-52492815D01*
X65156260Y-52492815D01*
X65155000Y-52492560D01*
X63955000Y-52492560D01*
X63719683Y-52536838D01*
X63503559Y-52675910D01*
X63358569Y-52888110D01*
X63307560Y-53140000D01*
X60302440Y-53140000D01*
X60292550Y-53087440D01*
X61455000Y-53087440D01*
X61690317Y-53043162D01*
X61906441Y-52904090D01*
X62051431Y-52691890D01*
X62102440Y-52440000D01*
X62102440Y-51134285D01*
X73624760Y-51134285D01*
X73835169Y-51643515D01*
X74224436Y-52033461D01*
X74733298Y-52244759D01*
X75284285Y-52245240D01*
X75793515Y-52034831D01*
X76183461Y-51645564D01*
X76394759Y-51136702D01*
X76394761Y-51134285D01*
X78624760Y-51134285D01*
X78835169Y-51643515D01*
X79224436Y-52033461D01*
X79733298Y-52244759D01*
X80284285Y-52245240D01*
X80793515Y-52034831D01*
X81183461Y-51645564D01*
X81394759Y-51136702D01*
X81395240Y-50585715D01*
X81184831Y-50076485D01*
X80795564Y-49686539D01*
X80286702Y-49475241D01*
X79735715Y-49474760D01*
X79226485Y-49685169D01*
X78836539Y-50074436D01*
X78625241Y-50583298D01*
X78624760Y-51134285D01*
X76394761Y-51134285D01*
X76395240Y-50585715D01*
X76184831Y-50076485D01*
X75795564Y-49686539D01*
X75286702Y-49475241D01*
X74735715Y-49474760D01*
X74226485Y-49685169D01*
X73836539Y-50074436D01*
X73625241Y-50583298D01*
X73624760Y-51134285D01*
X62102440Y-51134285D01*
X62102440Y-50240000D01*
X62058162Y-50004683D01*
X61919090Y-49788559D01*
X61706890Y-49643569D01*
X61455000Y-49592560D01*
X60255000Y-49592560D01*
X60019683Y-49636838D01*
X59803559Y-49775910D01*
X59658569Y-49988110D01*
X59607560Y-50240000D01*
X59607560Y-52440000D01*
X59617450Y-52492560D01*
X58455000Y-52492560D01*
X58219683Y-52536838D01*
X58003559Y-52675910D01*
X57858569Y-52888110D01*
X57807560Y-53140000D01*
X54190000Y-53140000D01*
X54190000Y-53013690D01*
X54093327Y-52780301D01*
X53914698Y-52601673D01*
X53681309Y-52505000D01*
X53240750Y-52505000D01*
X53082000Y-52663750D01*
X52828000Y-52663750D01*
X52669250Y-52505000D01*
X52228691Y-52505000D01*
X52197000Y-52518127D01*
X52197000Y-50240000D01*
X54107560Y-50240000D01*
X54107560Y-52440000D01*
X54151838Y-52675317D01*
X54290910Y-52891441D01*
X54503110Y-53036431D01*
X54755000Y-53087440D01*
X55955000Y-53087440D01*
X56190317Y-53043162D01*
X56406441Y-52904090D01*
X56551431Y-52691890D01*
X56602440Y-52440000D01*
X56602440Y-50240000D01*
X56558162Y-50004683D01*
X56419090Y-49788559D01*
X56206890Y-49643569D01*
X55955000Y-49592560D01*
X54755000Y-49592560D01*
X54519683Y-49636838D01*
X54303559Y-49775910D01*
X54158569Y-49988110D01*
X54107560Y-50240000D01*
X52197000Y-50240000D01*
X52197000Y-47752000D01*
X92583000Y-47752000D01*
X92583000Y-107817750D01*
X92583000Y-107817750D01*
G37*
X92583000Y-107817750D02*
X92457000Y-107943750D01*
X92457000Y-109093000D01*
X92477000Y-109093000D01*
X92477000Y-109347000D01*
X92457000Y-109347000D01*
X92457000Y-110496250D01*
X92583000Y-110622250D01*
X92583000Y-118618000D01*
X80135820Y-118618000D01*
X80137440Y-118610000D01*
X80137440Y-117610000D01*
X80093162Y-117374683D01*
X79954090Y-117158559D01*
X79741890Y-117013569D01*
X79490000Y-116962560D01*
X77990000Y-116962560D01*
X77754683Y-117006838D01*
X77538559Y-117145910D01*
X77393569Y-117358110D01*
X77342560Y-117610000D01*
X77342560Y-118610000D01*
X77344065Y-118618000D01*
X75055820Y-118618000D01*
X75057440Y-118610000D01*
X75057440Y-117610000D01*
X75013162Y-117374683D01*
X74874090Y-117158559D01*
X74661890Y-117013569D01*
X74410000Y-116962560D01*
X72910000Y-116962560D01*
X72674683Y-117006838D01*
X72458559Y-117145910D01*
X72313569Y-117358110D01*
X72262560Y-117610000D01*
X72262560Y-118610000D01*
X72264065Y-118618000D01*
X52197000Y-118618000D01*
X52197000Y-116168686D01*
X52249995Y-116296943D01*
X52611155Y-116658735D01*
X53083276Y-116854777D01*
X53594481Y-116855223D01*
X54066943Y-116660005D01*
X54428735Y-116298845D01*
X54624777Y-115826724D01*
X54625223Y-115315519D01*
X54430005Y-114843057D01*
X54068845Y-114481265D01*
X53631818Y-114299795D01*
X54066943Y-114120005D01*
X54428735Y-113758845D01*
X54610205Y-113321818D01*
X54789995Y-113756943D01*
X55151155Y-114118735D01*
X55623276Y-114314777D01*
X56134481Y-114315223D01*
X56606943Y-114120005D01*
X56968735Y-113758845D01*
X57150205Y-113321818D01*
X57329995Y-113756943D01*
X57691155Y-114118735D01*
X58128182Y-114300205D01*
X57693057Y-114479995D01*
X57331265Y-114841155D01*
X57135223Y-115313276D01*
X57134777Y-115824481D01*
X57329995Y-116296943D01*
X57691155Y-116658735D01*
X58163276Y-116854777D01*
X58674481Y-116855223D01*
X59146943Y-116660005D01*
X59402558Y-116404836D01*
X60770900Y-116404836D01*
X60770900Y-117010084D01*
X60857297Y-117444430D01*
X61103334Y-117812650D01*
X61471554Y-118058687D01*
X61905900Y-118145084D01*
X62340246Y-118058687D01*
X62708466Y-117812650D01*
X62954503Y-117444430D01*
X63040900Y-117010084D01*
X63040900Y-116404836D01*
X62954503Y-115970490D01*
X62708466Y-115602270D01*
X62340246Y-115356233D01*
X61905900Y-115269836D01*
X61471554Y-115356233D01*
X61103334Y-115602270D01*
X60857297Y-115970490D01*
X60770900Y-116404836D01*
X59402558Y-116404836D01*
X59508735Y-116298845D01*
X59704777Y-115826724D01*
X59705223Y-115315519D01*
X59510005Y-114843057D01*
X59148845Y-114481265D01*
X58711818Y-114299795D01*
X59146943Y-114120005D01*
X59259684Y-114007460D01*
X61621215Y-114007460D01*
X61705709Y-114432239D01*
X61946326Y-114792349D01*
X62306436Y-115032966D01*
X62731215Y-115117460D01*
X63080585Y-115117460D01*
X63382767Y-115057352D01*
X63546201Y-115220787D01*
X63779590Y-115317460D01*
X63847150Y-115317460D01*
X64005900Y-115158710D01*
X64005900Y-115013977D01*
X64017573Y-115042158D01*
X64196201Y-115220787D01*
X64318730Y-115271540D01*
X64364650Y-115317460D01*
X64497150Y-115317460D01*
X64543070Y-115271540D01*
X64665599Y-115220787D01*
X64748152Y-115138234D01*
X64954010Y-115278891D01*
X64981685Y-115284495D01*
X65014650Y-115317460D01*
X65082210Y-115317460D01*
X65102653Y-115308992D01*
X65205900Y-115329900D01*
X65605900Y-115329900D01*
X65735489Y-115305516D01*
X65855900Y-115329900D01*
X66255900Y-115329900D01*
X66385489Y-115305516D01*
X66505900Y-115329900D01*
X66630098Y-115329900D01*
X66772599Y-115472401D01*
X67019160Y-115637148D01*
X67067414Y-115646746D01*
X67310000Y-115695000D01*
X68041374Y-115695000D01*
X67857297Y-115970490D01*
X67770900Y-116404836D01*
X67770900Y-117010084D01*
X67857297Y-117444430D01*
X68103334Y-117812650D01*
X68471554Y-118058687D01*
X68905900Y-118145084D01*
X69340246Y-118058687D01*
X69708466Y-117812650D01*
X69954503Y-117444430D01*
X70040900Y-117010084D01*
X70040900Y-116404836D01*
X69954503Y-115970490D01*
X69770426Y-115695000D01*
X69850000Y-115695000D01*
X70140839Y-115637148D01*
X70184966Y-115607663D01*
X70184838Y-115755167D01*
X70326883Y-116098943D01*
X70589673Y-116362192D01*
X70933201Y-116504838D01*
X71305167Y-116505162D01*
X71648943Y-116363117D01*
X71912192Y-116100327D01*
X71939006Y-116035750D01*
X77255000Y-116035750D01*
X77255000Y-116326309D01*
X77351673Y-116559698D01*
X77530301Y-116738327D01*
X77763690Y-116835000D01*
X78454250Y-116835000D01*
X78613000Y-116676250D01*
X78613000Y-115877000D01*
X78867000Y-115877000D01*
X78867000Y-116676250D01*
X79025750Y-116835000D01*
X79716310Y-116835000D01*
X79949699Y-116738327D01*
X80128327Y-116559698D01*
X80225000Y-116326309D01*
X80225000Y-116035750D01*
X80066250Y-115877000D01*
X78867000Y-115877000D01*
X78613000Y-115877000D01*
X77413750Y-115877000D01*
X77255000Y-116035750D01*
X71939006Y-116035750D01*
X72054838Y-115756799D01*
X72054879Y-115709923D01*
X72258562Y-115506240D01*
X72798940Y-115506240D01*
X73034257Y-115461962D01*
X73250381Y-115322890D01*
X73395371Y-115110690D01*
X73446380Y-114858800D01*
X73446380Y-114401600D01*
X73429038Y-114309436D01*
X73446380Y-114223800D01*
X73446380Y-113766600D01*
X73432546Y-113693076D01*
X73433940Y-113689710D01*
X73433940Y-113607850D01*
X73412469Y-113586379D01*
X73402102Y-113531283D01*
X73281501Y-113343864D01*
X73337267Y-113288099D01*
X73428962Y-113066728D01*
X73433940Y-113061750D01*
X73433940Y-112972850D01*
X73428962Y-112967872D01*
X73337267Y-112746501D01*
X73183205Y-112592440D01*
X74270000Y-112592440D01*
X74505317Y-112548162D01*
X74721441Y-112409090D01*
X74866431Y-112196890D01*
X74917440Y-111945000D01*
X74917440Y-111035000D01*
X74873162Y-110799683D01*
X74734090Y-110583559D01*
X74521890Y-110438569D01*
X74419606Y-110417856D01*
X74452192Y-110385327D01*
X74594838Y-110041799D01*
X74594892Y-109980000D01*
X75386161Y-109980000D01*
X75337560Y-110220000D01*
X75337560Y-111120000D01*
X75381838Y-111355317D01*
X75520910Y-111571441D01*
X75733110Y-111716431D01*
X75985000Y-111767440D01*
X76075000Y-111767440D01*
X76075000Y-111823760D01*
X75791060Y-111823760D01*
X75555743Y-111868038D01*
X75339619Y-112007110D01*
X75194629Y-112219310D01*
X75143620Y-112471200D01*
X75143620Y-112928400D01*
X75160962Y-113020564D01*
X75143620Y-113106200D01*
X75143620Y-113563400D01*
X75163439Y-113668730D01*
X75143620Y-113766600D01*
X75143620Y-114223800D01*
X75156060Y-114289913D01*
X75156060Y-114357150D01*
X75171644Y-114372734D01*
X75187898Y-114459117D01*
X75326970Y-114675241D01*
X75428334Y-114744500D01*
X75314810Y-114744500D01*
X75156060Y-114903250D01*
X75156060Y-114985110D01*
X75252733Y-115218499D01*
X75431362Y-115397127D01*
X75664751Y-115493800D01*
X76191110Y-115493800D01*
X76349860Y-115335050D01*
X76349860Y-114871240D01*
X76603860Y-114871240D01*
X76603860Y-115335050D01*
X76762610Y-115493800D01*
X77284550Y-115493800D01*
X77413750Y-115623000D01*
X78613000Y-115623000D01*
X78613000Y-114823750D01*
X78867000Y-114823750D01*
X78867000Y-115623000D01*
X80066250Y-115623000D01*
X80225000Y-115464250D01*
X80225000Y-115173691D01*
X80128327Y-114940302D01*
X79949699Y-114761673D01*
X79716310Y-114665000D01*
X79025750Y-114665000D01*
X78867000Y-114823750D01*
X78613000Y-114823750D01*
X78454250Y-114665000D01*
X77763690Y-114665000D01*
X77571760Y-114744500D01*
X77526127Y-114744500D01*
X77614101Y-114687890D01*
X77759091Y-114475690D01*
X77779398Y-114375412D01*
X77797660Y-114357150D01*
X77797660Y-114285231D01*
X77810100Y-114223800D01*
X77810100Y-114094800D01*
X78255200Y-114094800D01*
X78546039Y-114036948D01*
X78679998Y-113947440D01*
X79590000Y-113947440D01*
X79825317Y-113903162D01*
X80041441Y-113764090D01*
X80186431Y-113551890D01*
X80237440Y-113300000D01*
X80237440Y-112787362D01*
X80622362Y-112402440D01*
X81495000Y-112402440D01*
X81730317Y-112358162D01*
X81858388Y-112275750D01*
X82385000Y-112275750D01*
X82385000Y-112616309D01*
X82481673Y-112849698D01*
X82660301Y-113028327D01*
X82893690Y-113125000D01*
X83534250Y-113125000D01*
X83693000Y-112966250D01*
X83693000Y-112117000D01*
X83947000Y-112117000D01*
X83947000Y-112966250D01*
X84105750Y-113125000D01*
X84746310Y-113125000D01*
X84979699Y-113028327D01*
X85158327Y-112849698D01*
X85255000Y-112616309D01*
X85255000Y-112505750D01*
X86195000Y-112505750D01*
X86195000Y-112846310D01*
X86291673Y-113079699D01*
X86470302Y-113258327D01*
X86703691Y-113355000D01*
X87344250Y-113355000D01*
X87503000Y-113196250D01*
X87503000Y-112347000D01*
X87757000Y-112347000D01*
X87757000Y-113196250D01*
X87915750Y-113355000D01*
X88556309Y-113355000D01*
X88789698Y-113258327D01*
X88968327Y-113079699D01*
X89065000Y-112846310D01*
X89065000Y-112505750D01*
X88906250Y-112347000D01*
X87757000Y-112347000D01*
X87503000Y-112347000D01*
X86353750Y-112347000D01*
X86195000Y-112505750D01*
X85255000Y-112505750D01*
X85255000Y-112275750D01*
X85096250Y-112117000D01*
X83947000Y-112117000D01*
X83693000Y-112117000D01*
X82543750Y-112117000D01*
X82385000Y-112275750D01*
X81858388Y-112275750D01*
X81946441Y-112219090D01*
X82091431Y-112006890D01*
X82142440Y-111755000D01*
X82142440Y-111363691D01*
X82385000Y-111363691D01*
X82385000Y-111704250D01*
X82543750Y-111863000D01*
X83693000Y-111863000D01*
X83693000Y-111013750D01*
X83947000Y-111013750D01*
X83947000Y-111863000D01*
X85096250Y-111863000D01*
X85255000Y-111704250D01*
X85255000Y-111593690D01*
X86195000Y-111593690D01*
X86195000Y-111934250D01*
X86353750Y-112093000D01*
X87503000Y-112093000D01*
X87503000Y-111243750D01*
X87757000Y-111243750D01*
X87757000Y-112093000D01*
X88906250Y-112093000D01*
X89065000Y-111934250D01*
X89065000Y-111593690D01*
X88968327Y-111360301D01*
X88789698Y-111181673D01*
X88556309Y-111085000D01*
X87915750Y-111085000D01*
X87757000Y-111243750D01*
X87503000Y-111243750D01*
X87344250Y-111085000D01*
X86703691Y-111085000D01*
X86470302Y-111181673D01*
X86291673Y-111360301D01*
X86195000Y-111593690D01*
X85255000Y-111593690D01*
X85255000Y-111363691D01*
X85158327Y-111130302D01*
X84979699Y-110951673D01*
X84746310Y-110855000D01*
X84105750Y-110855000D01*
X83947000Y-111013750D01*
X83693000Y-111013750D01*
X83534250Y-110855000D01*
X82893690Y-110855000D01*
X82660301Y-110951673D01*
X82481673Y-111130302D01*
X82385000Y-111363691D01*
X82142440Y-111363691D01*
X82142440Y-110855000D01*
X82098162Y-110619683D01*
X81959090Y-110403559D01*
X81746890Y-110258569D01*
X81495000Y-110207560D01*
X79795000Y-110207560D01*
X79559683Y-110251838D01*
X79343559Y-110390910D01*
X79198569Y-110603110D01*
X79147560Y-110855000D01*
X79147560Y-111727638D01*
X79122638Y-111752560D01*
X77890000Y-111752560D01*
X77654683Y-111796838D01*
X77595000Y-111835243D01*
X77595000Y-111767440D01*
X77685000Y-111767440D01*
X77920317Y-111723162D01*
X78136441Y-111584090D01*
X78281431Y-111371890D01*
X78332440Y-111120000D01*
X78332440Y-110220000D01*
X78288162Y-109984683D01*
X78285149Y-109980000D01*
X79830000Y-109980000D01*
X80120839Y-109922148D01*
X80367401Y-109757401D01*
X80622362Y-109502440D01*
X81495000Y-109502440D01*
X81730317Y-109458162D01*
X81946441Y-109319090D01*
X82051726Y-109165000D01*
X82372560Y-109165000D01*
X82372560Y-109490000D01*
X82416838Y-109725317D01*
X82555910Y-109941441D01*
X82768110Y-110086431D01*
X83020000Y-110137440D01*
X84620000Y-110137440D01*
X84855317Y-110093162D01*
X85071441Y-109954090D01*
X85216431Y-109741890D01*
X85264250Y-109505750D01*
X91195000Y-109505750D01*
X91195000Y-110146309D01*
X91291673Y-110379698D01*
X91470301Y-110558327D01*
X91703690Y-110655000D01*
X92044250Y-110655000D01*
X92203000Y-110496250D01*
X92203000Y-109347000D01*
X91353750Y-109347000D01*
X91195000Y-109505750D01*
X85264250Y-109505750D01*
X85267440Y-109490000D01*
X85267440Y-108490000D01*
X85230502Y-108293691D01*
X91195000Y-108293691D01*
X91195000Y-108934250D01*
X91353750Y-109093000D01*
X92203000Y-109093000D01*
X92203000Y-107943750D01*
X92044250Y-107785000D01*
X91703690Y-107785000D01*
X91470301Y-107881673D01*
X91291673Y-108060302D01*
X91195000Y-108293691D01*
X85230502Y-108293691D01*
X85223162Y-108254683D01*
X85084090Y-108038559D01*
X84871890Y-107893569D01*
X84620000Y-107842560D01*
X83734927Y-107842560D01*
X83525839Y-107702852D01*
X83235000Y-107645000D01*
X82050105Y-107645000D01*
X81959090Y-107503559D01*
X81746890Y-107358569D01*
X81495000Y-107307560D01*
X79795000Y-107307560D01*
X79559683Y-107351838D01*
X79343559Y-107490910D01*
X79198569Y-107703110D01*
X79147560Y-107955000D01*
X79147560Y-108460000D01*
X78283839Y-108460000D01*
X78332440Y-108220000D01*
X78332440Y-107320000D01*
X78301141Y-107153661D01*
X78667362Y-106787440D01*
X79540000Y-106787440D01*
X79775317Y-106743162D01*
X79952152Y-106629372D01*
X80138110Y-106756431D01*
X80390000Y-106807440D01*
X81212638Y-106807440D01*
X81622599Y-107217401D01*
X81869160Y-107382148D01*
X82115144Y-107431078D01*
X82218110Y-107501431D01*
X82470000Y-107552440D01*
X83060000Y-107552440D01*
X83295317Y-107508162D01*
X83511441Y-107369090D01*
X83656431Y-107156890D01*
X83707440Y-106905000D01*
X83707440Y-106455000D01*
X83932560Y-106455000D01*
X83932560Y-106905000D01*
X83976838Y-107140317D01*
X84115910Y-107356441D01*
X84328110Y-107501431D01*
X84580000Y-107552440D01*
X85170000Y-107552440D01*
X85405317Y-107508162D01*
X85511244Y-107440000D01*
X87170000Y-107440000D01*
X87460839Y-107382148D01*
X87482851Y-107367440D01*
X88430000Y-107367440D01*
X88665317Y-107323162D01*
X88881441Y-107184090D01*
X89026431Y-106971890D01*
X89077440Y-106720000D01*
X89077440Y-105720000D01*
X89033162Y-105484683D01*
X88894090Y-105268559D01*
X88681890Y-105123569D01*
X88430000Y-105072560D01*
X86830000Y-105072560D01*
X86594683Y-105116838D01*
X86378559Y-105255910D01*
X86233569Y-105468110D01*
X86182560Y-105720000D01*
X86182560Y-105920000D01*
X85511797Y-105920000D01*
X85421890Y-105858569D01*
X85170000Y-105807560D01*
X84580000Y-105807560D01*
X84344683Y-105851838D01*
X84128559Y-105990910D01*
X83983569Y-106203110D01*
X83932560Y-106455000D01*
X83707440Y-106455000D01*
X83663162Y-106219683D01*
X83524090Y-106003559D01*
X83311890Y-105858569D01*
X83060000Y-105807560D01*
X82470000Y-105807560D01*
X82379408Y-105824606D01*
X82037440Y-105482638D01*
X82037440Y-104660000D01*
X81993162Y-104424683D01*
X81854090Y-104208559D01*
X81641890Y-104063569D01*
X81390000Y-104012560D01*
X80390000Y-104012560D01*
X80154683Y-104056838D01*
X79938559Y-104195910D01*
X79793569Y-104408110D01*
X79767152Y-104538559D01*
X79540000Y-104492560D01*
X77940000Y-104492560D01*
X77704683Y-104536838D01*
X77488559Y-104675910D01*
X77347440Y-104882445D01*
X77347440Y-104660000D01*
X77303162Y-104424683D01*
X77164090Y-104208559D01*
X76951890Y-104063569D01*
X76700000Y-104012560D01*
X75700000Y-104012560D01*
X75464683Y-104056838D01*
X75248559Y-104195910D01*
X75103569Y-104408110D01*
X75052560Y-104660000D01*
X75052560Y-106160000D01*
X75096838Y-106395317D01*
X75235910Y-106611441D01*
X75448110Y-106756431D01*
X75630694Y-106793405D01*
X75533559Y-106855910D01*
X75388569Y-107068110D01*
X75337560Y-107320000D01*
X75337560Y-108220000D01*
X75381838Y-108455317D01*
X75384851Y-108460000D01*
X74917440Y-108460000D01*
X74917440Y-107765000D01*
X74873162Y-107529683D01*
X74734090Y-107313559D01*
X74532440Y-107175778D01*
X74532440Y-106805000D01*
X74488162Y-106569683D01*
X74349090Y-106353559D01*
X74136890Y-106208569D01*
X73885000Y-106157560D01*
X73435000Y-106157560D01*
X73199683Y-106201838D01*
X72983559Y-106340910D01*
X72838569Y-106553110D01*
X72787560Y-106805000D01*
X72787560Y-107179291D01*
X72598559Y-107300910D01*
X72453569Y-107513110D01*
X72402560Y-107765000D01*
X72402560Y-108411202D01*
X72388162Y-108334683D01*
X72249090Y-108118559D01*
X72036890Y-107973569D01*
X71785000Y-107922560D01*
X71085000Y-107922560D01*
X70849683Y-107966838D01*
X70633559Y-108105910D01*
X70488569Y-108318110D01*
X70485919Y-108331197D01*
X70349090Y-108118559D01*
X70136890Y-107973569D01*
X69885000Y-107922560D01*
X69340000Y-107922560D01*
X69340000Y-107422440D01*
X69380000Y-107422440D01*
X69615317Y-107378162D01*
X69831441Y-107239090D01*
X69976431Y-107026890D01*
X70027440Y-106775000D01*
X70027440Y-105775000D01*
X69983162Y-105539683D01*
X69844090Y-105323559D01*
X69631890Y-105178569D01*
X69380000Y-105127560D01*
X67780000Y-105127560D01*
X67544683Y-105171838D01*
X67328559Y-105310910D01*
X67183569Y-105523110D01*
X67132560Y-105775000D01*
X67132560Y-106775000D01*
X67176838Y-107010317D01*
X67315910Y-107226441D01*
X67528110Y-107371431D01*
X67780000Y-107422440D01*
X67820000Y-107422440D01*
X67820000Y-108265000D01*
X67877852Y-108555839D01*
X68042599Y-108802401D01*
X68537560Y-109297362D01*
X68537560Y-109870000D01*
X68581838Y-110105317D01*
X68720910Y-110321441D01*
X68775000Y-110358399D01*
X68775000Y-112740400D01*
X68832852Y-113031239D01*
X68997599Y-113277801D01*
X69714998Y-113995200D01*
X69535198Y-114175000D01*
X69157259Y-114175000D01*
X69190585Y-114007460D01*
X69106091Y-113582681D01*
X68865474Y-113222571D01*
X68505364Y-112981954D01*
X68080585Y-112897460D01*
X67731215Y-112897460D01*
X67420358Y-112959293D01*
X67369990Y-112881019D01*
X67157790Y-112736029D01*
X66905900Y-112685020D01*
X66505900Y-112685020D01*
X66376311Y-112709404D01*
X66255900Y-112685020D01*
X65855900Y-112685020D01*
X65726311Y-112709404D01*
X65605900Y-112685020D01*
X65205900Y-112685020D01*
X65100195Y-112704910D01*
X65082210Y-112697460D01*
X65014650Y-112697460D01*
X64985646Y-112726464D01*
X64970583Y-112729298D01*
X64754459Y-112868370D01*
X64748523Y-112877058D01*
X64665599Y-112794133D01*
X64543070Y-112743380D01*
X64497150Y-112697460D01*
X64364650Y-112697460D01*
X64318730Y-112743380D01*
X64196201Y-112794133D01*
X64017573Y-112972762D01*
X64005900Y-113000943D01*
X64005900Y-112856210D01*
X63847150Y-112697460D01*
X63779590Y-112697460D01*
X63546201Y-112794133D01*
X63382767Y-112957568D01*
X63080585Y-112897460D01*
X62731215Y-112897460D01*
X62306436Y-112981954D01*
X61946326Y-113222571D01*
X61705709Y-113582681D01*
X61621215Y-114007460D01*
X59259684Y-114007460D01*
X59508735Y-113758845D01*
X59704777Y-113286724D01*
X59705223Y-112775519D01*
X59665477Y-112679325D01*
X60357362Y-111987440D01*
X61230000Y-111987440D01*
X61465317Y-111943162D01*
X61681441Y-111804090D01*
X61826431Y-111591890D01*
X61877440Y-111340000D01*
X61877440Y-109640000D01*
X61833162Y-109404683D01*
X61694090Y-109188559D01*
X61481890Y-109043569D01*
X61230000Y-108992560D01*
X60330000Y-108992560D01*
X60192269Y-109018476D01*
X60251431Y-108931890D01*
X60302440Y-108680000D01*
X60302440Y-106480000D01*
X60292550Y-106427440D01*
X61455000Y-106427440D01*
X61690317Y-106383162D01*
X61906441Y-106244090D01*
X62051431Y-106031890D01*
X62102440Y-105780000D01*
X62102440Y-103580000D01*
X62058162Y-103344683D01*
X61919090Y-103128559D01*
X61706890Y-102983569D01*
X61455000Y-102932560D01*
X61361253Y-102932560D01*
X61576441Y-102794090D01*
X61721431Y-102581890D01*
X61772440Y-102330000D01*
X61772440Y-101330000D01*
X61728162Y-101094683D01*
X61589090Y-100878559D01*
X61376890Y-100733569D01*
X61125000Y-100682560D01*
X59525000Y-100682560D01*
X59289683Y-100726838D01*
X59073559Y-100865910D01*
X58928569Y-101078110D01*
X58877560Y-101330000D01*
X58877560Y-102330000D01*
X58921838Y-102565317D01*
X59060910Y-102781441D01*
X59273110Y-102926431D01*
X59525000Y-102977440D01*
X59565000Y-102977440D01*
X59565000Y-104150000D01*
X59607560Y-104363962D01*
X59607560Y-105780000D01*
X59617450Y-105832560D01*
X58455000Y-105832560D01*
X58219683Y-105876838D01*
X58003559Y-106015910D01*
X57858569Y-106228110D01*
X57807560Y-106480000D01*
X57807560Y-108680000D01*
X57851838Y-108915317D01*
X57990910Y-109131441D01*
X58203110Y-109276431D01*
X58455000Y-109327440D01*
X59655000Y-109327440D01*
X59792731Y-109301524D01*
X59733569Y-109388110D01*
X59682560Y-109640000D01*
X59682560Y-110512638D01*
X58450173Y-111745025D01*
X58165519Y-111744777D01*
X57693057Y-111939995D01*
X57331265Y-112301155D01*
X57149795Y-112738182D01*
X56970005Y-112303057D01*
X56754300Y-112086975D01*
X56754300Y-110140926D01*
X56844521Y-110082870D01*
X56989511Y-109870670D01*
X57040520Y-109618780D01*
X57040520Y-108821220D01*
X56996242Y-108585903D01*
X56857170Y-108369779D01*
X56644970Y-108224789D01*
X56393080Y-108173780D01*
X55595520Y-108173780D01*
X55360203Y-108218058D01*
X55256241Y-108284956D01*
X55254178Y-108282893D01*
X55020789Y-108186220D01*
X54781450Y-108186220D01*
X54622700Y-108344970D01*
X54622700Y-109093000D01*
X54642700Y-109093000D01*
X54642700Y-109347000D01*
X54622700Y-109347000D01*
X54622700Y-110095030D01*
X54781450Y-110253780D01*
X55020789Y-110253780D01*
X55234300Y-110165341D01*
X55234300Y-111906426D01*
X55153057Y-111939995D01*
X54791265Y-112301155D01*
X54609795Y-112738182D01*
X54430005Y-112303057D01*
X54068845Y-111941265D01*
X53596724Y-111745223D01*
X53085519Y-111744777D01*
X52613057Y-111939995D01*
X52251265Y-112301155D01*
X52197000Y-112431839D01*
X52197000Y-109301873D01*
X52228691Y-109315000D01*
X52669250Y-109315000D01*
X52828000Y-109156250D01*
X52828000Y-107707000D01*
X53082000Y-107707000D01*
X53082000Y-109156250D01*
X53240750Y-109315000D01*
X53461920Y-109315000D01*
X53461920Y-109347002D01*
X53620668Y-109347002D01*
X53461920Y-109505750D01*
X53461920Y-109745090D01*
X53558593Y-109978479D01*
X53737222Y-110157107D01*
X53970611Y-110253780D01*
X54209950Y-110253780D01*
X54368700Y-110095030D01*
X54368700Y-109347000D01*
X54348700Y-109347000D01*
X54348700Y-109093000D01*
X54368700Y-109093000D01*
X54368700Y-108344970D01*
X54209950Y-108186220D01*
X54190000Y-108186220D01*
X54190000Y-107865750D01*
X54031250Y-107707000D01*
X53082000Y-107707000D01*
X52828000Y-107707000D01*
X52808000Y-107707000D01*
X52808000Y-107453000D01*
X52828000Y-107453000D01*
X52828000Y-106003750D01*
X53082000Y-106003750D01*
X53082000Y-107453000D01*
X54031250Y-107453000D01*
X54190000Y-107294250D01*
X54190000Y-106353690D01*
X54093327Y-106120301D01*
X53914698Y-105941673D01*
X53681309Y-105845000D01*
X53240750Y-105845000D01*
X53082000Y-106003750D01*
X52828000Y-106003750D01*
X52669250Y-105845000D01*
X52228691Y-105845000D01*
X52197000Y-105858127D01*
X52197000Y-103580000D01*
X54107560Y-103580000D01*
X54107560Y-105780000D01*
X54151838Y-106015317D01*
X54290910Y-106231441D01*
X54503110Y-106376431D01*
X54755000Y-106427440D01*
X55955000Y-106427440D01*
X56190317Y-106383162D01*
X56406441Y-106244090D01*
X56551431Y-106031890D01*
X56602440Y-105780000D01*
X56602440Y-103580000D01*
X56558162Y-103344683D01*
X56419090Y-103128559D01*
X56206890Y-102983569D01*
X55955000Y-102932560D01*
X54755000Y-102932560D01*
X54519683Y-102976838D01*
X54303559Y-103115910D01*
X54158569Y-103328110D01*
X54107560Y-103580000D01*
X52197000Y-103580000D01*
X52197000Y-99465000D01*
X52580000Y-99465000D01*
X52637852Y-99755839D01*
X52802599Y-100002401D01*
X53049161Y-100167148D01*
X53340000Y-100225000D01*
X53570000Y-100225000D01*
X53860839Y-100167148D01*
X54107401Y-100002401D01*
X54272148Y-99755839D01*
X54330000Y-99465000D01*
X54272148Y-99174161D01*
X54107401Y-98927599D01*
X53860839Y-98762852D01*
X53570000Y-98705000D01*
X53340000Y-98705000D01*
X53049161Y-98762852D01*
X52802599Y-98927599D01*
X52637852Y-99174161D01*
X52580000Y-99465000D01*
X52197000Y-99465000D01*
X52197000Y-97871873D01*
X52228691Y-97885000D01*
X52669250Y-97885000D01*
X52828000Y-97726250D01*
X52828000Y-96277000D01*
X53082000Y-96277000D01*
X53082000Y-97726250D01*
X53240750Y-97885000D01*
X53681309Y-97885000D01*
X53914698Y-97788327D01*
X54093327Y-97609699D01*
X54190000Y-97376310D01*
X54190000Y-96435750D01*
X54031250Y-96277000D01*
X53082000Y-96277000D01*
X52828000Y-96277000D01*
X52808000Y-96277000D01*
X52808000Y-96023000D01*
X52828000Y-96023000D01*
X52828000Y-94573750D01*
X53082000Y-94573750D01*
X53082000Y-96023000D01*
X54031250Y-96023000D01*
X54190000Y-95864250D01*
X54190000Y-94923690D01*
X54093327Y-94690301D01*
X53914698Y-94511673D01*
X53681309Y-94415000D01*
X53240750Y-94415000D01*
X53082000Y-94573750D01*
X52828000Y-94573750D01*
X52669250Y-94415000D01*
X52228691Y-94415000D01*
X52197000Y-94428127D01*
X52197000Y-85171873D01*
X52228691Y-85185000D01*
X52669250Y-85185000D01*
X52828000Y-85026250D01*
X52828000Y-83577000D01*
X53082000Y-83577000D01*
X53082000Y-85026250D01*
X53240750Y-85185000D01*
X53681309Y-85185000D01*
X53914698Y-85088327D01*
X54093327Y-84909699D01*
X54190000Y-84676310D01*
X54190000Y-83735750D01*
X54031250Y-83577000D01*
X53082000Y-83577000D01*
X52828000Y-83577000D01*
X52808000Y-83577000D01*
X52808000Y-83323000D01*
X52828000Y-83323000D01*
X52828000Y-83303000D01*
X53082000Y-83303000D01*
X53082000Y-83323000D01*
X54031250Y-83323000D01*
X54190000Y-83164250D01*
X54190000Y-82223690D01*
X54093327Y-81990301D01*
X54022677Y-81919651D01*
X54132192Y-81810327D01*
X54136001Y-81801153D01*
X54151838Y-81885317D01*
X54290910Y-82101441D01*
X54503110Y-82246431D01*
X54755000Y-82297440D01*
X55755000Y-82297440D01*
X55755000Y-91502560D01*
X54755000Y-91502560D01*
X54519683Y-91546838D01*
X54303559Y-91685910D01*
X54158569Y-91898110D01*
X54107560Y-92150000D01*
X54107560Y-94350000D01*
X54151838Y-94585317D01*
X54290910Y-94801441D01*
X54503110Y-94946431D01*
X54755000Y-94997440D01*
X55755000Y-94997440D01*
X55755000Y-95242560D01*
X55665000Y-95242560D01*
X55429683Y-95286838D01*
X55213559Y-95425910D01*
X55068569Y-95638110D01*
X55017560Y-95890000D01*
X55017560Y-96790000D01*
X55061838Y-97025317D01*
X55200910Y-97241441D01*
X55413110Y-97386431D01*
X55665000Y-97437440D01*
X57365000Y-97437440D01*
X57600317Y-97393162D01*
X57809206Y-97258746D01*
X57851838Y-97485317D01*
X57990910Y-97701441D01*
X58203110Y-97846431D01*
X58455000Y-97897440D01*
X59052015Y-97897440D01*
X58934110Y-98070000D01*
X56925000Y-98070000D01*
X56634161Y-98127852D01*
X56612149Y-98142560D01*
X55665000Y-98142560D01*
X55429683Y-98186838D01*
X55213559Y-98325910D01*
X55068569Y-98538110D01*
X55017560Y-98790000D01*
X55017560Y-99690000D01*
X55061838Y-99925317D01*
X55200910Y-100141441D01*
X55413110Y-100286431D01*
X55665000Y-100337440D01*
X57365000Y-100337440D01*
X57600317Y-100293162D01*
X57816441Y-100154090D01*
X57961431Y-99941890D01*
X58012440Y-99690000D01*
X58012440Y-99590000D01*
X58937721Y-99590000D01*
X59060910Y-99781441D01*
X59273110Y-99926431D01*
X59525000Y-99977440D01*
X61125000Y-99977440D01*
X61360317Y-99933162D01*
X61576441Y-99794090D01*
X61721431Y-99581890D01*
X61772440Y-99330000D01*
X61772440Y-98330000D01*
X61728162Y-98094683D01*
X61589090Y-97878559D01*
X61376890Y-97733569D01*
X61125000Y-97682560D01*
X60127985Y-97682560D01*
X60251431Y-97501890D01*
X60302440Y-97250000D01*
X60302440Y-95050000D01*
X60292550Y-94997440D01*
X61455000Y-94997440D01*
X61690317Y-94953162D01*
X61906441Y-94814090D01*
X62051431Y-94601890D01*
X62102440Y-94350000D01*
X62102440Y-92387242D01*
X62105000Y-92389802D01*
X62105000Y-109220000D01*
X62162852Y-109510839D01*
X62327599Y-109757401D01*
X62582560Y-110012362D01*
X62582560Y-111340000D01*
X62626838Y-111575317D01*
X62765910Y-111791441D01*
X62978110Y-111936431D01*
X63230000Y-111987440D01*
X64130000Y-111987440D01*
X64365317Y-111943162D01*
X64581441Y-111804090D01*
X64726431Y-111591890D01*
X64777440Y-111340000D01*
X64777440Y-111250000D01*
X66040000Y-111250000D01*
X66330839Y-111192148D01*
X66577401Y-111027401D01*
X66814680Y-110790122D01*
X66860167Y-110790162D01*
X67203943Y-110648117D01*
X67467192Y-110385327D01*
X67609838Y-110041799D01*
X67610162Y-109669833D01*
X67468117Y-109326057D01*
X67205327Y-109062808D01*
X66861799Y-108920162D01*
X66489833Y-108919838D01*
X66146057Y-109061883D01*
X65882808Y-109324673D01*
X65740162Y-109668201D01*
X65740121Y-109715077D01*
X65725198Y-109730000D01*
X64777440Y-109730000D01*
X64777440Y-109640000D01*
X64733162Y-109404683D01*
X64683457Y-109327440D01*
X65155000Y-109327440D01*
X65390317Y-109283162D01*
X65606441Y-109144090D01*
X65751431Y-108931890D01*
X65802440Y-108680000D01*
X65802440Y-106480000D01*
X65758162Y-106244683D01*
X65619090Y-106028559D01*
X65406890Y-105883569D01*
X65155000Y-105832560D01*
X63955000Y-105832560D01*
X63719683Y-105876838D01*
X63625000Y-105937765D01*
X63625000Y-104660000D01*
X70362560Y-104660000D01*
X70362560Y-106160000D01*
X70406838Y-106395317D01*
X70545910Y-106611441D01*
X70758110Y-106756431D01*
X71010000Y-106807440D01*
X72010000Y-106807440D01*
X72245317Y-106763162D01*
X72461441Y-106624090D01*
X72606431Y-106411890D01*
X72655415Y-106170000D01*
X73240000Y-106170000D01*
X73530839Y-106112148D01*
X73777401Y-105947401D01*
X73792362Y-105932440D01*
X73885000Y-105932440D01*
X74120317Y-105888162D01*
X74336441Y-105749090D01*
X74481431Y-105536890D01*
X74532440Y-105285000D01*
X74532440Y-104695000D01*
X74488162Y-104459683D01*
X74349090Y-104243559D01*
X74136890Y-104098569D01*
X73885000Y-104047560D01*
X73435000Y-104047560D01*
X73199683Y-104091838D01*
X72983559Y-104230910D01*
X72838569Y-104443110D01*
X72796673Y-104650000D01*
X72655558Y-104650000D01*
X72613162Y-104424683D01*
X72474090Y-104208559D01*
X72261890Y-104063569D01*
X72010000Y-104012560D01*
X71010000Y-104012560D01*
X70774683Y-104056838D01*
X70558559Y-104195910D01*
X70413569Y-104408110D01*
X70362560Y-104660000D01*
X63625000Y-104660000D01*
X63625000Y-103560750D01*
X67145000Y-103560750D01*
X67145000Y-103901309D01*
X67241673Y-104134698D01*
X67420301Y-104313327D01*
X67653690Y-104410000D01*
X68294250Y-104410000D01*
X68453000Y-104251250D01*
X68453000Y-103402000D01*
X68707000Y-103402000D01*
X68707000Y-104251250D01*
X68865750Y-104410000D01*
X69506310Y-104410000D01*
X69739699Y-104313327D01*
X69918327Y-104134698D01*
X70015000Y-103901309D01*
X70015000Y-103560750D01*
X69856250Y-103402000D01*
X68707000Y-103402000D01*
X68453000Y-103402000D01*
X67303750Y-103402000D01*
X67145000Y-103560750D01*
X63625000Y-103560750D01*
X63625000Y-102648691D01*
X67145000Y-102648691D01*
X67145000Y-102989250D01*
X67303750Y-103148000D01*
X68453000Y-103148000D01*
X68453000Y-102298750D01*
X68707000Y-102298750D01*
X68707000Y-103148000D01*
X69856250Y-103148000D01*
X70015000Y-102989250D01*
X70015000Y-102925750D01*
X77305000Y-102925750D01*
X77305000Y-103266309D01*
X77401673Y-103499698D01*
X77580301Y-103678327D01*
X77813690Y-103775000D01*
X78454250Y-103775000D01*
X78613000Y-103616250D01*
X78613000Y-102767000D01*
X78867000Y-102767000D01*
X78867000Y-103616250D01*
X79025750Y-103775000D01*
X79666310Y-103775000D01*
X79899699Y-103678327D01*
X80078327Y-103499698D01*
X80175000Y-103266309D01*
X80175000Y-102925750D01*
X80016250Y-102767000D01*
X78867000Y-102767000D01*
X78613000Y-102767000D01*
X77463750Y-102767000D01*
X77305000Y-102925750D01*
X70015000Y-102925750D01*
X70015000Y-102648691D01*
X69918327Y-102415302D01*
X69739699Y-102236673D01*
X69506310Y-102140000D01*
X68865750Y-102140000D01*
X68707000Y-102298750D01*
X68453000Y-102298750D01*
X68294250Y-102140000D01*
X67653690Y-102140000D01*
X67420301Y-102236673D01*
X67241673Y-102415302D01*
X67145000Y-102648691D01*
X63625000Y-102648691D01*
X63625000Y-102013691D01*
X77305000Y-102013691D01*
X77305000Y-102354250D01*
X77463750Y-102513000D01*
X78613000Y-102513000D01*
X78613000Y-101663750D01*
X78867000Y-101663750D01*
X78867000Y-102513000D01*
X80016250Y-102513000D01*
X80175000Y-102354250D01*
X80175000Y-102013691D01*
X80078327Y-101780302D01*
X79957484Y-101659459D01*
X80355448Y-101639230D01*
X80733923Y-101482460D01*
X80801912Y-101241517D01*
X80010000Y-100449605D01*
X79218088Y-101241517D01*
X79286077Y-101482460D01*
X79349411Y-101505000D01*
X79025750Y-101505000D01*
X78867000Y-101663750D01*
X78613000Y-101663750D01*
X78454250Y-101505000D01*
X77813690Y-101505000D01*
X77580301Y-101601673D01*
X77401673Y-101780302D01*
X77305000Y-102013691D01*
X63625000Y-102013691D01*
X63625000Y-101241517D01*
X74218088Y-101241517D01*
X74286077Y-101482460D01*
X74805171Y-101667201D01*
X75355448Y-101639230D01*
X75733923Y-101482460D01*
X75801912Y-101241517D01*
X75010000Y-100449605D01*
X74218088Y-101241517D01*
X63625000Y-101241517D01*
X63625000Y-100065171D01*
X73612799Y-100065171D01*
X73640770Y-100615448D01*
X73797540Y-100993923D01*
X74038483Y-101061912D01*
X74830395Y-100270000D01*
X75189605Y-100270000D01*
X75981517Y-101061912D01*
X76222460Y-100993923D01*
X76407201Y-100474829D01*
X76386378Y-100065171D01*
X78612799Y-100065171D01*
X78640770Y-100615448D01*
X78797540Y-100993923D01*
X79038483Y-101061912D01*
X79830395Y-100270000D01*
X80189605Y-100270000D01*
X80981517Y-101061912D01*
X81222460Y-100993923D01*
X81407201Y-100474829D01*
X81379230Y-99924552D01*
X81222460Y-99546077D01*
X80981517Y-99478088D01*
X80189605Y-100270000D01*
X79830395Y-100270000D01*
X79038483Y-99478088D01*
X78797540Y-99546077D01*
X78612799Y-100065171D01*
X76386378Y-100065171D01*
X76379230Y-99924552D01*
X76222460Y-99546077D01*
X75981517Y-99478088D01*
X75189605Y-100270000D01*
X74830395Y-100270000D01*
X74038483Y-99478088D01*
X73797540Y-99546077D01*
X73612799Y-100065171D01*
X63625000Y-100065171D01*
X63625000Y-99298483D01*
X74218088Y-99298483D01*
X75010000Y-100090395D01*
X75801912Y-99298483D01*
X79218088Y-99298483D01*
X80010000Y-100090395D01*
X80801912Y-99298483D01*
X80733923Y-99057540D01*
X80214829Y-98872799D01*
X79664552Y-98900770D01*
X79286077Y-99057540D01*
X79218088Y-99298483D01*
X75801912Y-99298483D01*
X75733923Y-99057540D01*
X75214829Y-98872799D01*
X74664552Y-98900770D01*
X74286077Y-99057540D01*
X74218088Y-99298483D01*
X63625000Y-99298483D01*
X63625000Y-97793061D01*
X63703110Y-97846431D01*
X63955000Y-97897440D01*
X65155000Y-97897440D01*
X65390317Y-97853162D01*
X65606441Y-97714090D01*
X65751431Y-97501890D01*
X65802440Y-97250000D01*
X65802440Y-95050000D01*
X65758162Y-94814683D01*
X65619090Y-94598559D01*
X65406890Y-94453569D01*
X65155000Y-94402560D01*
X63955000Y-94402560D01*
X63719683Y-94446838D01*
X63625000Y-94507765D01*
X63625000Y-92075000D01*
X63567148Y-91784161D01*
X63402401Y-91537599D01*
X62199802Y-90335000D01*
X62349250Y-90335000D01*
X62508000Y-90176250D01*
X62508000Y-89027000D01*
X62762000Y-89027000D01*
X62762000Y-90176250D01*
X62920750Y-90335000D01*
X63261309Y-90335000D01*
X63494698Y-90238327D01*
X63673327Y-90059699D01*
X63770000Y-89826310D01*
X63770000Y-89185750D01*
X63611250Y-89027000D01*
X62762000Y-89027000D01*
X62508000Y-89027000D01*
X62488000Y-89027000D01*
X62488000Y-88773000D01*
X62508000Y-88773000D01*
X62508000Y-87623750D01*
X62762000Y-87623750D01*
X62762000Y-88773000D01*
X63611250Y-88773000D01*
X63770000Y-88614250D01*
X63770000Y-87973690D01*
X63673327Y-87740301D01*
X63494698Y-87561673D01*
X63261309Y-87465000D01*
X62920750Y-87465000D01*
X62762000Y-87623750D01*
X62508000Y-87623750D01*
X62349250Y-87465000D01*
X62250143Y-87465000D01*
X62286431Y-87411890D01*
X62337440Y-87160000D01*
X62337440Y-86287362D01*
X63222401Y-85402401D01*
X63387148Y-85155840D01*
X63435109Y-84914724D01*
X63490910Y-85001441D01*
X63703110Y-85146431D01*
X63955000Y-85197440D01*
X64875000Y-85197440D01*
X64875000Y-87512721D01*
X64683559Y-87635910D01*
X64538569Y-87848110D01*
X64487560Y-88100000D01*
X64487560Y-89700000D01*
X64531838Y-89935317D01*
X64670910Y-90151441D01*
X64883110Y-90296431D01*
X65135000Y-90347440D01*
X66135000Y-90347440D01*
X66370317Y-90303162D01*
X66586441Y-90164090D01*
X66731431Y-89951890D01*
X66782440Y-89700000D01*
X66782440Y-89660000D01*
X67302560Y-89660000D01*
X67302560Y-89750000D01*
X67346838Y-89985317D01*
X67485910Y-90201441D01*
X67698110Y-90346431D01*
X67950000Y-90397440D01*
X68850000Y-90397440D01*
X69085317Y-90353162D01*
X69301441Y-90214090D01*
X69446431Y-90001890D01*
X69497440Y-89750000D01*
X69497440Y-89185750D01*
X70215000Y-89185750D01*
X70215000Y-89876310D01*
X70311673Y-90109699D01*
X70490302Y-90288327D01*
X70723691Y-90385000D01*
X71014250Y-90385000D01*
X71173000Y-90226250D01*
X71173000Y-89027000D01*
X70373750Y-89027000D01*
X70215000Y-89185750D01*
X69497440Y-89185750D01*
X69497440Y-88050000D01*
X69473674Y-87923690D01*
X70215000Y-87923690D01*
X70215000Y-88614250D01*
X70373750Y-88773000D01*
X71173000Y-88773000D01*
X71173000Y-87573750D01*
X71014250Y-87415000D01*
X70723691Y-87415000D01*
X70490302Y-87511673D01*
X70311673Y-87690301D01*
X70215000Y-87923690D01*
X69473674Y-87923690D01*
X69453162Y-87814683D01*
X69314090Y-87598559D01*
X69101890Y-87453569D01*
X68850000Y-87402560D01*
X67950000Y-87402560D01*
X67714683Y-87446838D01*
X67498559Y-87585910D01*
X67353569Y-87798110D01*
X67302560Y-88050000D01*
X67302560Y-88140000D01*
X66782440Y-88140000D01*
X66782440Y-88100000D01*
X66738162Y-87864683D01*
X66599090Y-87648559D01*
X66395000Y-87509110D01*
X66395000Y-80747931D01*
X66486441Y-80689090D01*
X66631431Y-80476890D01*
X66682440Y-80225000D01*
X66682440Y-78525000D01*
X66638162Y-78289683D01*
X66600680Y-78231435D01*
X66832192Y-78000327D01*
X66974838Y-77656799D01*
X66975162Y-77284833D01*
X66833117Y-76941057D01*
X66570327Y-76677808D01*
X66226799Y-76535162D01*
X66093880Y-76535046D01*
X66146191Y-76500093D01*
X66225167Y-76500162D01*
X66568943Y-76358117D01*
X66832192Y-76095327D01*
X66974838Y-75751799D01*
X66975162Y-75379833D01*
X66833117Y-75036057D01*
X66603631Y-74806171D01*
X67442401Y-73967401D01*
X67607148Y-73720839D01*
X67665000Y-73430000D01*
X67665000Y-73142279D01*
X67837560Y-73031240D01*
X67837560Y-73825000D01*
X67869535Y-73994934D01*
X67759833Y-73994838D01*
X67416057Y-74136883D01*
X67152808Y-74399673D01*
X67010162Y-74743201D01*
X67009838Y-75115167D01*
X67151883Y-75458943D01*
X67414673Y-75722192D01*
X67758201Y-75864838D01*
X67805077Y-75864879D01*
X67837560Y-75897362D01*
X67837560Y-76111721D01*
X67820000Y-76200000D01*
X67837560Y-76288279D01*
X67837560Y-77000000D01*
X67881838Y-77235317D01*
X68020910Y-77451441D01*
X68233110Y-77596431D01*
X68485000Y-77647440D01*
X69485000Y-77647440D01*
X69720317Y-77603162D01*
X69936441Y-77464090D01*
X70081431Y-77251890D01*
X70132440Y-77000000D01*
X70132440Y-75400000D01*
X70088162Y-75164683D01*
X69949090Y-74948559D01*
X69736890Y-74803569D01*
X69485000Y-74752560D01*
X68880155Y-74752560D01*
X68880162Y-74744833D01*
X68767612Y-74472440D01*
X69485000Y-74472440D01*
X69720317Y-74428162D01*
X69936441Y-74289090D01*
X70081431Y-74076890D01*
X70132440Y-73825000D01*
X70132440Y-72225000D01*
X70837560Y-72225000D01*
X70837560Y-73825000D01*
X70881838Y-74060317D01*
X71020910Y-74276441D01*
X71233110Y-74421431D01*
X71485000Y-74472440D01*
X72485000Y-74472440D01*
X72720317Y-74428162D01*
X72936441Y-74289090D01*
X73081431Y-74076890D01*
X73132440Y-73825000D01*
X73132440Y-73301517D01*
X74218088Y-73301517D01*
X74286077Y-73542460D01*
X74805171Y-73727201D01*
X75355448Y-73699230D01*
X75733923Y-73542460D01*
X75801912Y-73301517D01*
X75010000Y-72509605D01*
X74218088Y-73301517D01*
X73132440Y-73301517D01*
X73132440Y-72952362D01*
X73629576Y-72455226D01*
X73640770Y-72675448D01*
X73797540Y-73053923D01*
X74038483Y-73121912D01*
X74830395Y-72330000D01*
X75189605Y-72330000D01*
X75981517Y-73121912D01*
X76222460Y-73053923D01*
X76407201Y-72534829D01*
X76379230Y-71984552D01*
X76222460Y-71606077D01*
X75981517Y-71538088D01*
X75189605Y-72330000D01*
X74830395Y-72330000D01*
X74816253Y-72315858D01*
X74995858Y-72136253D01*
X75010000Y-72150395D01*
X75801912Y-71358483D01*
X75769890Y-71245000D01*
X76200000Y-71245000D01*
X76490839Y-71187148D01*
X76737401Y-71022401D01*
X77362431Y-70397371D01*
X77345000Y-70485000D01*
X77345000Y-77304367D01*
X77021799Y-77170162D01*
X76974923Y-77170121D01*
X76102401Y-76297599D01*
X75855839Y-76132852D01*
X75565000Y-76075000D01*
X73132440Y-76075000D01*
X73132440Y-75400000D01*
X73088162Y-75164683D01*
X72949090Y-74948559D01*
X72736890Y-74803569D01*
X72485000Y-74752560D01*
X71485000Y-74752560D01*
X71249683Y-74796838D01*
X71033559Y-74935910D01*
X70888569Y-75148110D01*
X70837560Y-75400000D01*
X70837560Y-77000000D01*
X70881838Y-77235317D01*
X71020910Y-77451441D01*
X71233110Y-77596431D01*
X71485000Y-77647440D01*
X72485000Y-77647440D01*
X72720317Y-77603162D01*
X72733001Y-77595000D01*
X74299500Y-77595000D01*
X74226485Y-77625169D01*
X73836539Y-78014436D01*
X73625241Y-78523298D01*
X73624760Y-79074285D01*
X73835169Y-79583515D01*
X74224436Y-79973461D01*
X74733298Y-80184759D01*
X75284285Y-80185240D01*
X75793515Y-79974831D01*
X76075000Y-79693836D01*
X76075000Y-80965198D01*
X75702360Y-81337838D01*
X75286702Y-81165241D01*
X74735715Y-81164760D01*
X74226485Y-81375169D01*
X73836539Y-81764436D01*
X73625241Y-82273298D01*
X73624760Y-82824285D01*
X73635330Y-82849868D01*
X72487599Y-83997599D01*
X72322852Y-84244161D01*
X72265000Y-84535000D01*
X72265000Y-87666974D01*
X72109698Y-87511673D01*
X71876309Y-87415000D01*
X71585750Y-87415000D01*
X71427000Y-87573750D01*
X71427000Y-88773000D01*
X71447000Y-88773000D01*
X71447000Y-89027000D01*
X71427000Y-89027000D01*
X71427000Y-90226250D01*
X71585750Y-90385000D01*
X71876309Y-90385000D01*
X72109698Y-90288327D01*
X72265000Y-90133026D01*
X72265000Y-95250000D01*
X72322852Y-95540839D01*
X72487599Y-95787401D01*
X73716492Y-97016294D01*
X73835169Y-97303515D01*
X74224436Y-97693461D01*
X74733298Y-97904759D01*
X75284285Y-97905240D01*
X75793515Y-97694831D01*
X76183461Y-97305564D01*
X76394759Y-96796702D01*
X76395240Y-96245715D01*
X76184831Y-95736485D01*
X75795564Y-95346539D01*
X75286702Y-95135241D01*
X74735715Y-95134760D01*
X74226485Y-95345169D01*
X74210714Y-95360912D01*
X73785000Y-94935198D01*
X73785000Y-93432096D01*
X73835169Y-93553515D01*
X74224436Y-93943461D01*
X74733298Y-94154759D01*
X75284285Y-94155240D01*
X75793515Y-93944831D01*
X76183461Y-93555564D01*
X76394759Y-93046702D01*
X76395240Y-92495715D01*
X76184831Y-91986485D01*
X75795564Y-91596539D01*
X75286702Y-91385241D01*
X74735715Y-91384760D01*
X74226485Y-91595169D01*
X73836539Y-91984436D01*
X73785000Y-92108556D01*
X73785000Y-87271517D01*
X74218088Y-87271517D01*
X74286077Y-87512460D01*
X74805171Y-87697201D01*
X75355448Y-87669230D01*
X75733923Y-87512460D01*
X75801912Y-87271517D01*
X75010000Y-86479605D01*
X74218088Y-87271517D01*
X73785000Y-87271517D01*
X73785000Y-86993649D01*
X73797540Y-87023923D01*
X74038483Y-87091912D01*
X74830395Y-86300000D01*
X75189605Y-86300000D01*
X75981517Y-87091912D01*
X76222460Y-87023923D01*
X76407201Y-86504829D01*
X76379230Y-85954552D01*
X76222460Y-85576077D01*
X75981517Y-85508088D01*
X75189605Y-86300000D01*
X74830395Y-86300000D01*
X74038483Y-85508088D01*
X73797540Y-85576077D01*
X73785000Y-85611312D01*
X73785000Y-85328483D01*
X74218088Y-85328483D01*
X75010000Y-86120395D01*
X75801912Y-85328483D01*
X75733923Y-85087540D01*
X75214829Y-84902799D01*
X74664552Y-84930770D01*
X74286077Y-85087540D01*
X74218088Y-85328483D01*
X73785000Y-85328483D01*
X73785000Y-84849802D01*
X74709800Y-83925002D01*
X74733298Y-83934759D01*
X75284285Y-83935240D01*
X75793515Y-83724831D01*
X76183461Y-83335564D01*
X76394759Y-82826702D01*
X76394787Y-82795015D01*
X77372401Y-81817401D01*
X77470000Y-81671334D01*
X77567599Y-81817401D01*
X78617698Y-82867500D01*
X77567599Y-83917599D01*
X77402852Y-84164161D01*
X77345000Y-84455000D01*
X77345000Y-95885000D01*
X77402852Y-96175839D01*
X77567599Y-96422401D01*
X78202599Y-97057401D01*
X78449161Y-97222148D01*
X78740000Y-97280000D01*
X78825453Y-97280000D01*
X78835169Y-97303515D01*
X79224436Y-97693461D01*
X79733298Y-97904759D01*
X80284285Y-97905240D01*
X80793515Y-97694831D01*
X81183461Y-97305564D01*
X81394759Y-96796702D01*
X81395240Y-96245715D01*
X81184831Y-95736485D01*
X80795564Y-95346539D01*
X80286702Y-95135241D01*
X79735715Y-95134760D01*
X79226485Y-95345169D01*
X78932972Y-95638170D01*
X78865000Y-95570198D01*
X78865000Y-95037815D01*
X86764630Y-95037815D01*
X87088980Y-95822800D01*
X87689041Y-96423909D01*
X88473459Y-96749628D01*
X89322815Y-96750370D01*
X90107800Y-96426020D01*
X90708909Y-95825959D01*
X91034628Y-95041541D01*
X91035370Y-94192185D01*
X90711020Y-93407200D01*
X90110959Y-92806091D01*
X89326541Y-92480372D01*
X88477185Y-92479630D01*
X87692200Y-92803980D01*
X87091091Y-93404041D01*
X86765372Y-94188459D01*
X86764630Y-95037815D01*
X78865000Y-95037815D01*
X78865000Y-93583398D01*
X79224436Y-93943461D01*
X79733298Y-94154759D01*
X80284285Y-94155240D01*
X80793515Y-93944831D01*
X81183461Y-93555564D01*
X81394759Y-93046702D01*
X81395240Y-92495715D01*
X81184831Y-91986485D01*
X80795564Y-91596539D01*
X80286702Y-91385241D01*
X79735715Y-91384760D01*
X79226485Y-91595169D01*
X78865000Y-91956025D01*
X78865000Y-87271517D01*
X79218088Y-87271517D01*
X79286077Y-87512460D01*
X79805171Y-87697201D01*
X80355448Y-87669230D01*
X80733923Y-87512460D01*
X80801912Y-87271517D01*
X80010000Y-86479605D01*
X79218088Y-87271517D01*
X78865000Y-87271517D01*
X78865000Y-87042959D01*
X79038483Y-87091912D01*
X79830395Y-86300000D01*
X80189605Y-86300000D01*
X80981517Y-87091912D01*
X81222460Y-87023923D01*
X81407201Y-86504829D01*
X81379230Y-85954552D01*
X81222460Y-85576077D01*
X80981517Y-85508088D01*
X80189605Y-86300000D01*
X79830395Y-86300000D01*
X79038483Y-85508088D01*
X78865000Y-85557041D01*
X78865000Y-85328483D01*
X79218088Y-85328483D01*
X80010000Y-86120395D01*
X80801912Y-85328483D01*
X80733923Y-85087540D01*
X80214829Y-84902799D01*
X79664552Y-84930770D01*
X79286077Y-85087540D01*
X79218088Y-85328483D01*
X78865000Y-85328483D01*
X78865000Y-84769802D01*
X79709800Y-83925002D01*
X79733298Y-83934759D01*
X80284285Y-83935240D01*
X80793515Y-83724831D01*
X81183461Y-83335564D01*
X81394759Y-82826702D01*
X81395240Y-82275715D01*
X81184831Y-81766485D01*
X80795564Y-81376539D01*
X80286702Y-81165241D01*
X79735715Y-81164760D01*
X79260795Y-81360993D01*
X78865000Y-80965198D01*
X78865000Y-79613398D01*
X79224436Y-79973461D01*
X79733298Y-80184759D01*
X80284285Y-80185240D01*
X80793515Y-79974831D01*
X81183461Y-79585564D01*
X81394759Y-79076702D01*
X81395240Y-78525715D01*
X81184831Y-78016485D01*
X80795564Y-77626539D01*
X80286702Y-77415241D01*
X79735715Y-77414760D01*
X79226485Y-77625169D01*
X78865000Y-77986025D01*
X78865000Y-73301517D01*
X79218088Y-73301517D01*
X79286077Y-73542460D01*
X79805171Y-73727201D01*
X80355448Y-73699230D01*
X80733923Y-73542460D01*
X80801912Y-73301517D01*
X80010000Y-72509605D01*
X79218088Y-73301517D01*
X78865000Y-73301517D01*
X78865000Y-73072959D01*
X79038483Y-73121912D01*
X79830395Y-72330000D01*
X80189605Y-72330000D01*
X80981517Y-73121912D01*
X81222460Y-73053923D01*
X81407201Y-72534829D01*
X81379230Y-71984552D01*
X81222460Y-71606077D01*
X80981517Y-71538088D01*
X80189605Y-72330000D01*
X79830395Y-72330000D01*
X79038483Y-71538088D01*
X78865000Y-71587041D01*
X78865000Y-71358483D01*
X79218088Y-71358483D01*
X80010000Y-72150395D01*
X80801912Y-71358483D01*
X80733923Y-71117540D01*
X80214829Y-70932799D01*
X79664552Y-70960770D01*
X79286077Y-71117540D01*
X79218088Y-71358483D01*
X78865000Y-71358483D01*
X78865000Y-70799802D01*
X79709800Y-69955002D01*
X79733298Y-69964759D01*
X80284285Y-69965240D01*
X80793515Y-69754831D01*
X81183461Y-69365564D01*
X81394759Y-68856702D01*
X81395240Y-68305715D01*
X81184831Y-67796485D01*
X80795564Y-67406539D01*
X80286702Y-67195241D01*
X79735715Y-67194760D01*
X79710132Y-67205330D01*
X78865000Y-66360198D01*
X78865000Y-65643398D01*
X79224436Y-66003461D01*
X79733298Y-66214759D01*
X80284285Y-66215240D01*
X80793515Y-66004831D01*
X81183461Y-65615564D01*
X81394759Y-65106702D01*
X81395240Y-64555715D01*
X81184831Y-64046485D01*
X80795564Y-63656539D01*
X80286702Y-63445241D01*
X79735715Y-63444760D01*
X79226485Y-63655169D01*
X78865000Y-64016025D01*
X78865000Y-59331517D01*
X79218088Y-59331517D01*
X79286077Y-59572460D01*
X79805171Y-59757201D01*
X80355448Y-59729230D01*
X80733923Y-59572460D01*
X80801912Y-59331517D01*
X80010000Y-58539605D01*
X79218088Y-59331517D01*
X78865000Y-59331517D01*
X78865000Y-59102959D01*
X79038483Y-59151912D01*
X79830395Y-58360000D01*
X80189605Y-58360000D01*
X80981517Y-59151912D01*
X81222460Y-59083923D01*
X81407201Y-58564829D01*
X81379230Y-58014552D01*
X81222460Y-57636077D01*
X80981517Y-57568088D01*
X80189605Y-58360000D01*
X79830395Y-58360000D01*
X79038483Y-57568088D01*
X78865000Y-57617041D01*
X78865000Y-57388483D01*
X79218088Y-57388483D01*
X80010000Y-58180395D01*
X80801912Y-57388483D01*
X80733923Y-57147540D01*
X80214829Y-56962799D01*
X79664552Y-56990770D01*
X79286077Y-57147540D01*
X79218088Y-57388483D01*
X78865000Y-57388483D01*
X78865000Y-56194802D01*
X79261112Y-55798690D01*
X79733298Y-55994759D01*
X80284285Y-55995240D01*
X80793515Y-55784831D01*
X80802647Y-55775714D01*
X86765000Y-55775714D01*
X86765000Y-90274285D01*
X90735000Y-90274285D01*
X90735000Y-55775714D01*
X86765000Y-55775714D01*
X80802647Y-55775714D01*
X81183461Y-55395564D01*
X81394759Y-54886702D01*
X81395240Y-54335715D01*
X81184831Y-53826485D01*
X80795564Y-53436539D01*
X80286702Y-53225241D01*
X79735715Y-53224760D01*
X79226485Y-53435169D01*
X78836539Y-53824436D01*
X78659568Y-54250630D01*
X77567599Y-55342599D01*
X77402852Y-55589161D01*
X77345000Y-55880000D01*
X77345000Y-66675000D01*
X77402852Y-66965839D01*
X77567599Y-67212401D01*
X78175198Y-67820000D01*
X78105000Y-67820000D01*
X77814161Y-67877852D01*
X77567599Y-68042599D01*
X75885198Y-69725000D01*
X75823398Y-69725000D01*
X76183461Y-69365564D01*
X76394759Y-68856702D01*
X76395240Y-68305715D01*
X76184831Y-67796485D01*
X75795564Y-67406539D01*
X75286702Y-67195241D01*
X74735715Y-67194760D01*
X74226485Y-67405169D01*
X73892938Y-67738136D01*
X73150000Y-66995198D01*
X73150000Y-65104285D01*
X73624760Y-65104285D01*
X73835169Y-65613515D01*
X74224436Y-66003461D01*
X74733298Y-66214759D01*
X75284285Y-66215240D01*
X75793515Y-66004831D01*
X76183461Y-65615564D01*
X76394759Y-65106702D01*
X76395240Y-64555715D01*
X76184831Y-64046485D01*
X75795564Y-63656539D01*
X75286702Y-63445241D01*
X74735715Y-63444760D01*
X74226485Y-63655169D01*
X73836539Y-64044436D01*
X73625241Y-64553298D01*
X73624760Y-65104285D01*
X73150000Y-65104285D01*
X73150000Y-59331517D01*
X74218088Y-59331517D01*
X74286077Y-59572460D01*
X74805171Y-59757201D01*
X75355448Y-59729230D01*
X75733923Y-59572460D01*
X75801912Y-59331517D01*
X75010000Y-58539605D01*
X74218088Y-59331517D01*
X73150000Y-59331517D01*
X73150000Y-58155171D01*
X73612799Y-58155171D01*
X73640770Y-58705448D01*
X73797540Y-59083923D01*
X74038483Y-59151912D01*
X74830395Y-58360000D01*
X75189605Y-58360000D01*
X75981517Y-59151912D01*
X76222460Y-59083923D01*
X76407201Y-58564829D01*
X76379230Y-58014552D01*
X76222460Y-57636077D01*
X75981517Y-57568088D01*
X75189605Y-58360000D01*
X74830395Y-58360000D01*
X74038483Y-57568088D01*
X73797540Y-57636077D01*
X73612799Y-58155171D01*
X73150000Y-58155171D01*
X73150000Y-57388483D01*
X74218088Y-57388483D01*
X75010000Y-58180395D01*
X75801912Y-57388483D01*
X75733923Y-57147540D01*
X75214829Y-56962799D01*
X74664552Y-56990770D01*
X74286077Y-57147540D01*
X74218088Y-57388483D01*
X73150000Y-57388483D01*
X73150000Y-56829802D01*
X74210401Y-55769401D01*
X74224436Y-55783461D01*
X74733298Y-55994759D01*
X75284285Y-55995240D01*
X75793515Y-55784831D01*
X76183461Y-55395564D01*
X76394759Y-54886702D01*
X76395240Y-54335715D01*
X76184831Y-53826485D01*
X75795564Y-53436539D01*
X75286702Y-53225241D01*
X74735715Y-53224760D01*
X74226485Y-53435169D01*
X73836539Y-53824436D01*
X73716375Y-54113823D01*
X71852599Y-55977599D01*
X71687852Y-56224161D01*
X71630000Y-56515000D01*
X71630000Y-67310000D01*
X71687852Y-67600839D01*
X71852599Y-67847401D01*
X73122599Y-69117401D01*
X73369160Y-69282148D01*
X73660000Y-69340000D01*
X73825453Y-69340000D01*
X73835169Y-69363515D01*
X74224436Y-69753461D01*
X74275442Y-69774641D01*
X74234160Y-69782852D01*
X73987599Y-69947599D01*
X72357638Y-71577560D01*
X71485000Y-71577560D01*
X71249683Y-71621838D01*
X71033559Y-71760910D01*
X70888569Y-71973110D01*
X70837560Y-72225000D01*
X70132440Y-72225000D01*
X70088162Y-71989683D01*
X69949090Y-71773559D01*
X69736890Y-71628569D01*
X69485000Y-71577560D01*
X68612362Y-71577560D01*
X68252401Y-71217599D01*
X68052440Y-71083990D01*
X68052440Y-70955000D01*
X68008162Y-70719683D01*
X67869090Y-70503559D01*
X67656890Y-70358569D01*
X67405000Y-70307560D01*
X66532362Y-70307560D01*
X65757369Y-69532567D01*
X65802440Y-69310000D01*
X65802440Y-67110000D01*
X65758162Y-66874683D01*
X65619090Y-66658559D01*
X65406890Y-66513569D01*
X65155000Y-66462560D01*
X63955000Y-66462560D01*
X63719683Y-66506838D01*
X63503559Y-66645910D01*
X63358569Y-66858110D01*
X63307560Y-67110000D01*
X63307560Y-69090000D01*
X63179802Y-69090000D01*
X63066735Y-68976933D01*
X63092440Y-68850000D01*
X63092440Y-67950000D01*
X63048162Y-67714683D01*
X62909090Y-67498559D01*
X62696890Y-67353569D01*
X62445000Y-67302560D01*
X60745000Y-67302560D01*
X60509683Y-67346838D01*
X60302440Y-67480195D01*
X60302440Y-67110000D01*
X60292550Y-67057440D01*
X61455000Y-67057440D01*
X61690317Y-67013162D01*
X61906441Y-66874090D01*
X62051431Y-66661890D01*
X62102440Y-66410000D01*
X62102440Y-64210000D01*
X62058162Y-63974683D01*
X61919090Y-63758559D01*
X61706890Y-63613569D01*
X61455000Y-63562560D01*
X60255000Y-63562560D01*
X60019683Y-63606838D01*
X59803559Y-63745910D01*
X59658569Y-63958110D01*
X59607560Y-64210000D01*
X59607560Y-66410000D01*
X59617450Y-66462560D01*
X58455000Y-66462560D01*
X58219683Y-66506838D01*
X58003559Y-66645910D01*
X57858569Y-66858110D01*
X57807560Y-67110000D01*
X57807560Y-69310000D01*
X57851838Y-69545317D01*
X57990910Y-69761441D01*
X58203110Y-69906431D01*
X58455000Y-69957440D01*
X59655000Y-69957440D01*
X59890317Y-69913162D01*
X60106441Y-69774090D01*
X60251431Y-69561890D01*
X60301346Y-69315404D01*
X60493110Y-69446431D01*
X60745000Y-69497440D01*
X61437638Y-69497440D01*
X62142758Y-70202560D01*
X60745000Y-70202560D01*
X60509683Y-70246838D01*
X60293559Y-70385910D01*
X60148569Y-70598110D01*
X60097560Y-70850000D01*
X60097560Y-71750000D01*
X60141838Y-71985317D01*
X60280910Y-72201441D01*
X60493110Y-72346431D01*
X60745000Y-72397440D01*
X62445000Y-72397440D01*
X62680317Y-72353162D01*
X62757560Y-72303457D01*
X62757560Y-72555000D01*
X62801838Y-72790317D01*
X62898022Y-72939791D01*
X62707808Y-73129673D01*
X62565162Y-73473201D01*
X62564843Y-73839800D01*
X62560200Y-73839800D01*
X62269361Y-73897652D01*
X62022799Y-74062399D01*
X61610398Y-74474800D01*
X60733940Y-74474800D01*
X60733940Y-74472798D01*
X60587892Y-74472798D01*
X60733940Y-74326750D01*
X60733940Y-74244890D01*
X60637267Y-74011501D01*
X60458638Y-73832873D01*
X60225249Y-73736200D01*
X59698890Y-73736200D01*
X59540140Y-73894950D01*
X59540140Y-74358760D01*
X59286140Y-74358760D01*
X59286140Y-73894950D01*
X59127390Y-73736200D01*
X58719934Y-73736200D01*
X58720162Y-73474833D01*
X58578117Y-73131057D01*
X58315327Y-72867808D01*
X57971799Y-72725162D01*
X57599833Y-72724838D01*
X57256057Y-72866883D01*
X56992808Y-73129673D01*
X56850162Y-73473201D01*
X56850121Y-73520077D01*
X56717638Y-73652560D01*
X55665000Y-73652560D01*
X55429683Y-73696838D01*
X55213559Y-73835910D01*
X55142437Y-73940000D01*
X54727279Y-73940000D01*
X54604090Y-73748559D01*
X54391890Y-73603569D01*
X54140000Y-73552560D01*
X52540000Y-73552560D01*
X52304683Y-73596838D01*
X52197000Y-73666130D01*
X52197000Y-69931873D01*
X52228691Y-69945000D01*
X52669250Y-69945000D01*
X52828000Y-69786250D01*
X52828000Y-68337000D01*
X53082000Y-68337000D01*
X53082000Y-69786250D01*
X53240750Y-69945000D01*
X53681309Y-69945000D01*
X53914698Y-69848327D01*
X54093327Y-69669699D01*
X54190000Y-69436310D01*
X54190000Y-68495750D01*
X54031250Y-68337000D01*
X53082000Y-68337000D01*
X52828000Y-68337000D01*
X52808000Y-68337000D01*
X52808000Y-68083000D01*
X52828000Y-68083000D01*
X52828000Y-66633750D01*
X53082000Y-66633750D01*
X53082000Y-68083000D01*
X54031250Y-68083000D01*
X54190000Y-67924250D01*
X54190000Y-66983690D01*
X54093327Y-66750301D01*
X53914698Y-66571673D01*
X53681309Y-66475000D01*
X53240750Y-66475000D01*
X53082000Y-66633750D01*
X52828000Y-66633750D01*
X52669250Y-66475000D01*
X52228691Y-66475000D01*
X52197000Y-66488127D01*
X52197000Y-64210000D01*
X54107560Y-64210000D01*
X54107560Y-66410000D01*
X54151838Y-66645317D01*
X54290910Y-66861441D01*
X54503110Y-67006431D01*
X54755000Y-67057440D01*
X55955000Y-67057440D01*
X56190317Y-67013162D01*
X56406441Y-66874090D01*
X56551431Y-66661890D01*
X56602440Y-66410000D01*
X56602440Y-64210000D01*
X56558162Y-63974683D01*
X56419090Y-63758559D01*
X56206890Y-63613569D01*
X55955000Y-63562560D01*
X54755000Y-63562560D01*
X54519683Y-63606838D01*
X54303559Y-63745910D01*
X54158569Y-63958110D01*
X54107560Y-64210000D01*
X52197000Y-64210000D01*
X52197000Y-62017815D01*
X67079630Y-62017815D01*
X67403980Y-62802800D01*
X68004041Y-63403909D01*
X68788459Y-63729628D01*
X69637815Y-63730370D01*
X70422800Y-63406020D01*
X71023909Y-62805959D01*
X71349628Y-62021541D01*
X71350370Y-61172185D01*
X71026020Y-60387200D01*
X70425959Y-59786091D01*
X69641541Y-59460372D01*
X68792185Y-59459630D01*
X68007200Y-59783980D01*
X67406091Y-60384041D01*
X67080372Y-61168459D01*
X67079630Y-62017815D01*
X52197000Y-62017815D01*
X52197000Y-55961873D01*
X52228691Y-55975000D01*
X52669250Y-55975000D01*
X52828000Y-55816250D01*
X52828000Y-54367000D01*
X53082000Y-54367000D01*
X53082000Y-55816250D01*
X53240750Y-55975000D01*
X53681309Y-55975000D01*
X53914698Y-55878327D01*
X54093327Y-55699699D01*
X54190000Y-55466310D01*
X54190000Y-54525750D01*
X54031250Y-54367000D01*
X53082000Y-54367000D01*
X52828000Y-54367000D01*
X52808000Y-54367000D01*
X52808000Y-54113000D01*
X52828000Y-54113000D01*
X52828000Y-52663750D01*
X53082000Y-52663750D01*
X53082000Y-54113000D01*
X54031250Y-54113000D01*
X54190000Y-53954250D01*
X54190000Y-53140000D01*
X57807560Y-53140000D01*
X57807560Y-55340000D01*
X57851838Y-55575317D01*
X57990910Y-55791441D01*
X58203110Y-55936431D01*
X58455000Y-55987440D01*
X59655000Y-55987440D01*
X59890317Y-55943162D01*
X60106441Y-55804090D01*
X60251431Y-55591890D01*
X60302440Y-55340000D01*
X60302440Y-53140000D01*
X63307560Y-53140000D01*
X63307560Y-55340000D01*
X63351838Y-55575317D01*
X63490910Y-55791441D01*
X63703110Y-55936431D01*
X63955000Y-55987440D01*
X65155000Y-55987440D01*
X65390317Y-55943162D01*
X65606441Y-55804090D01*
X65751431Y-55591890D01*
X65802440Y-55340000D01*
X65802440Y-53140000D01*
X65758162Y-52904683D01*
X65619090Y-52688559D01*
X65406890Y-52543569D01*
X65156260Y-52492815D01*
X86764630Y-52492815D01*
X87088980Y-53277800D01*
X87689041Y-53878909D01*
X88473459Y-54204628D01*
X89322815Y-54205370D01*
X90107800Y-53881020D01*
X90708909Y-53280959D01*
X91034628Y-52496541D01*
X91035370Y-51647185D01*
X90711020Y-50862200D01*
X90110959Y-50261091D01*
X89326541Y-49935372D01*
X88477185Y-49934630D01*
X87692200Y-50258980D01*
X87091091Y-50859041D01*
X86765372Y-51643459D01*
X86764630Y-52492815D01*
X65156260Y-52492815D01*
X65155000Y-52492560D01*
X63955000Y-52492560D01*
X63719683Y-52536838D01*
X63503559Y-52675910D01*
X63358569Y-52888110D01*
X63307560Y-53140000D01*
X60302440Y-53140000D01*
X60292550Y-53087440D01*
X61455000Y-53087440D01*
X61690317Y-53043162D01*
X61906441Y-52904090D01*
X62051431Y-52691890D01*
X62102440Y-52440000D01*
X62102440Y-51134285D01*
X73624760Y-51134285D01*
X73835169Y-51643515D01*
X74224436Y-52033461D01*
X74733298Y-52244759D01*
X75284285Y-52245240D01*
X75793515Y-52034831D01*
X76183461Y-51645564D01*
X76394759Y-51136702D01*
X76394761Y-51134285D01*
X78624760Y-51134285D01*
X78835169Y-51643515D01*
X79224436Y-52033461D01*
X79733298Y-52244759D01*
X80284285Y-52245240D01*
X80793515Y-52034831D01*
X81183461Y-51645564D01*
X81394759Y-51136702D01*
X81395240Y-50585715D01*
X81184831Y-50076485D01*
X80795564Y-49686539D01*
X80286702Y-49475241D01*
X79735715Y-49474760D01*
X79226485Y-49685169D01*
X78836539Y-50074436D01*
X78625241Y-50583298D01*
X78624760Y-51134285D01*
X76394761Y-51134285D01*
X76395240Y-50585715D01*
X76184831Y-50076485D01*
X75795564Y-49686539D01*
X75286702Y-49475241D01*
X74735715Y-49474760D01*
X74226485Y-49685169D01*
X73836539Y-50074436D01*
X73625241Y-50583298D01*
X73624760Y-51134285D01*
X62102440Y-51134285D01*
X62102440Y-50240000D01*
X62058162Y-50004683D01*
X61919090Y-49788559D01*
X61706890Y-49643569D01*
X61455000Y-49592560D01*
X60255000Y-49592560D01*
X60019683Y-49636838D01*
X59803559Y-49775910D01*
X59658569Y-49988110D01*
X59607560Y-50240000D01*
X59607560Y-52440000D01*
X59617450Y-52492560D01*
X58455000Y-52492560D01*
X58219683Y-52536838D01*
X58003559Y-52675910D01*
X57858569Y-52888110D01*
X57807560Y-53140000D01*
X54190000Y-53140000D01*
X54190000Y-53013690D01*
X54093327Y-52780301D01*
X53914698Y-52601673D01*
X53681309Y-52505000D01*
X53240750Y-52505000D01*
X53082000Y-52663750D01*
X52828000Y-52663750D01*
X52669250Y-52505000D01*
X52228691Y-52505000D01*
X52197000Y-52518127D01*
X52197000Y-50240000D01*
X54107560Y-50240000D01*
X54107560Y-52440000D01*
X54151838Y-52675317D01*
X54290910Y-52891441D01*
X54503110Y-53036431D01*
X54755000Y-53087440D01*
X55955000Y-53087440D01*
X56190317Y-53043162D01*
X56406441Y-52904090D01*
X56551431Y-52691890D01*
X56602440Y-52440000D01*
X56602440Y-50240000D01*
X56558162Y-50004683D01*
X56419090Y-49788559D01*
X56206890Y-49643569D01*
X55955000Y-49592560D01*
X54755000Y-49592560D01*
X54519683Y-49636838D01*
X54303559Y-49775910D01*
X54158569Y-49988110D01*
X54107560Y-50240000D01*
X52197000Y-50240000D01*
X52197000Y-47752000D01*
X92583000Y-47752000D01*
X92583000Y-107817750D01*
G36*
X70620910Y-110321441D02*
X70833110Y-110466431D01*
X71085000Y-110517440D01*
X71657638Y-110517440D01*
X72402560Y-111262362D01*
X72402560Y-111836200D01*
X72398890Y-111836200D01*
X72240140Y-111994950D01*
X72240140Y-112585500D01*
X72284590Y-112585500D01*
X72240140Y-112629950D01*
X72240140Y-112846800D01*
X71986140Y-112846800D01*
X71986140Y-112629950D01*
X71941690Y-112585500D01*
X71986140Y-112585500D01*
X71986140Y-111994950D01*
X71827390Y-111836200D01*
X71301031Y-111836200D01*
X71067642Y-111932873D01*
X70889013Y-112111501D01*
X70792340Y-112344890D01*
X70792340Y-112426750D01*
X70951090Y-112585500D01*
X71050015Y-112585500D01*
X70889013Y-112746501D01*
X70809021Y-112939619D01*
X70295000Y-112425598D01*
X70295000Y-110360757D01*
X70336441Y-110334090D01*
X70481431Y-110121890D01*
X70484081Y-110108803D01*
X70620910Y-110321441D01*
X70620910Y-110321441D01*
G37*
X70620910Y-110321441D02*
X70833110Y-110466431D01*
X71085000Y-110517440D01*
X71657638Y-110517440D01*
X72402560Y-111262362D01*
X72402560Y-111836200D01*
X72398890Y-111836200D01*
X72240140Y-111994950D01*
X72240140Y-112585500D01*
X72284590Y-112585500D01*
X72240140Y-112629950D01*
X72240140Y-112846800D01*
X71986140Y-112846800D01*
X71986140Y-112629950D01*
X71941690Y-112585500D01*
X71986140Y-112585500D01*
X71986140Y-111994950D01*
X71827390Y-111836200D01*
X71301031Y-111836200D01*
X71067642Y-111932873D01*
X70889013Y-112111501D01*
X70792340Y-112344890D01*
X70792340Y-112426750D01*
X70951090Y-112585500D01*
X71050015Y-112585500D01*
X70889013Y-112746501D01*
X70809021Y-112939619D01*
X70295000Y-112425598D01*
X70295000Y-110360757D01*
X70336441Y-110334090D01*
X70481431Y-110121890D01*
X70484081Y-110108803D01*
X70620910Y-110321441D01*
G36*
X61925000Y-84550198D02*
X61562638Y-84912560D01*
X60690000Y-84912560D01*
X60454683Y-84956838D01*
X60238559Y-85095910D01*
X60093569Y-85308110D01*
X60042560Y-85560000D01*
X60042560Y-87160000D01*
X60086838Y-87395317D01*
X60225910Y-87611441D01*
X60430000Y-87750890D01*
X60430000Y-90400000D01*
X60487852Y-90690839D01*
X60652599Y-90937401D01*
X61217758Y-91502560D01*
X60255000Y-91502560D01*
X60019683Y-91546838D01*
X59803559Y-91685910D01*
X59658569Y-91898110D01*
X59607560Y-92150000D01*
X59607560Y-94350000D01*
X59617450Y-94402560D01*
X58455000Y-94402560D01*
X58219683Y-94446838D01*
X58003559Y-94585910D01*
X57858569Y-94798110D01*
X57807560Y-95050000D01*
X57807560Y-95423848D01*
X57616890Y-95293569D01*
X57365000Y-95242560D01*
X57275000Y-95242560D01*
X57275000Y-87643025D01*
X57330302Y-87698327D01*
X57563691Y-87795000D01*
X57904250Y-87795000D01*
X58063000Y-87636250D01*
X58063000Y-86487000D01*
X58317000Y-86487000D01*
X58317000Y-87636250D01*
X58475750Y-87795000D01*
X58816309Y-87795000D01*
X59049698Y-87698327D01*
X59228327Y-87519699D01*
X59325000Y-87286310D01*
X59325000Y-86645750D01*
X59166250Y-86487000D01*
X58317000Y-86487000D01*
X58063000Y-86487000D01*
X58043000Y-86487000D01*
X58043000Y-86233000D01*
X58063000Y-86233000D01*
X58063000Y-86213000D01*
X58317000Y-86213000D01*
X58317000Y-86233000D01*
X59166250Y-86233000D01*
X59325000Y-86074250D01*
X59325000Y-85433690D01*
X59228327Y-85200301D01*
X59225466Y-85197440D01*
X59655000Y-85197440D01*
X59890317Y-85153162D01*
X60106441Y-85014090D01*
X60251431Y-84801890D01*
X60302440Y-84550000D01*
X60302440Y-82350000D01*
X60292550Y-82297440D01*
X61455000Y-82297440D01*
X61690317Y-82253162D01*
X61906441Y-82114090D01*
X61925000Y-82086928D01*
X61925000Y-84550198D01*
X61925000Y-84550198D01*
G37*
X61925000Y-84550198D02*
X61562638Y-84912560D01*
X60690000Y-84912560D01*
X60454683Y-84956838D01*
X60238559Y-85095910D01*
X60093569Y-85308110D01*
X60042560Y-85560000D01*
X60042560Y-87160000D01*
X60086838Y-87395317D01*
X60225910Y-87611441D01*
X60430000Y-87750890D01*
X60430000Y-90400000D01*
X60487852Y-90690839D01*
X60652599Y-90937401D01*
X61217758Y-91502560D01*
X60255000Y-91502560D01*
X60019683Y-91546838D01*
X59803559Y-91685910D01*
X59658569Y-91898110D01*
X59607560Y-92150000D01*
X59607560Y-94350000D01*
X59617450Y-94402560D01*
X58455000Y-94402560D01*
X58219683Y-94446838D01*
X58003559Y-94585910D01*
X57858569Y-94798110D01*
X57807560Y-95050000D01*
X57807560Y-95423848D01*
X57616890Y-95293569D01*
X57365000Y-95242560D01*
X57275000Y-95242560D01*
X57275000Y-87643025D01*
X57330302Y-87698327D01*
X57563691Y-87795000D01*
X57904250Y-87795000D01*
X58063000Y-87636250D01*
X58063000Y-86487000D01*
X58317000Y-86487000D01*
X58317000Y-87636250D01*
X58475750Y-87795000D01*
X58816309Y-87795000D01*
X59049698Y-87698327D01*
X59228327Y-87519699D01*
X59325000Y-87286310D01*
X59325000Y-86645750D01*
X59166250Y-86487000D01*
X58317000Y-86487000D01*
X58063000Y-86487000D01*
X58043000Y-86487000D01*
X58043000Y-86233000D01*
X58063000Y-86233000D01*
X58063000Y-86213000D01*
X58317000Y-86213000D01*
X58317000Y-86233000D01*
X59166250Y-86233000D01*
X59325000Y-86074250D01*
X59325000Y-85433690D01*
X59228327Y-85200301D01*
X59225466Y-85197440D01*
X59655000Y-85197440D01*
X59890317Y-85153162D01*
X60106441Y-85014090D01*
X60251431Y-84801890D01*
X60302440Y-84550000D01*
X60302440Y-82350000D01*
X60292550Y-82297440D01*
X61455000Y-82297440D01*
X61690317Y-82253162D01*
X61906441Y-82114090D01*
X61925000Y-82086928D01*
X61925000Y-84550198D01*
M02*
